<?xml version="1.0" encoding="utf-8"?>
<!-- Generator: Adobe Illustrator 21.1.0, SVG Export Plug-In . SVG Version: 6.00 Build 0)  -->
<svg version="1.1" id="Layer_1" xmlns="http://www.w3.org/2000/svg" xmlns:xlink="http://www.w3.org/1999/xlink" x="0px" y="0px"
	 viewBox="0 0 1280 1819" style="enable-background:new 0 0 1280 1819;" xml:space="preserve">
<g>
	<g>
		<path d="M662.2,287.4v5.6h-0.7l0.1-4.7l-1.8,4.7h-0.6l-1.8-4.7l0.1,4.7h-0.7v-5.6h1l1.7,4.6l1.7-4.6H662.2z"/>
		<path d="M665.6,290.5v1.9h3.3v0.7h-4v-5.6h3.9v0.7h-3.2v1.7h2.8v0.7H665.6z"/>
		<path d="M675.7,287.4v5.6H675l-3.1-4.6l0.1,4.6h-0.7v-5.6h0.7l3.1,4.5l0-4.5H675.7z"/>
		<path d="M682.7,287.4v3.6c0,0.2,0,0.5-0.1,0.7c-0.2,0.7-0.8,1.4-2.1,1.4c-0.4,0-1.2-0.1-1.7-0.8c-0.4-0.5-0.4-0.9-0.4-1.5v-3.5
			h0.8v3.4c0,0.5,0,1,0.3,1.3c0.3,0.4,0.8,0.4,1.1,0.4c0.7,0,1.2-0.3,1.4-0.9c0.1-0.2,0.1-0.5,0.1-0.8v-3.4H682.7z"/>
		<path d="M689.3,290.4v2.7h-0.8v-5.7h3.6v0.7h-2.9v1.7h2.7v0.7H689.3z"/>
		<path d="M696.7,293.2c-1.7,0-2.8-1.2-2.8-3c0-2.1,1.4-3,2.8-3c1.6,0,2.8,1.1,2.8,2.9C699.5,291.9,698.6,293.2,696.7,293.2z
			 M696.7,287.9c-1.4,0-2,1.1-2,2.4c0,1.2,0.6,2.4,2,2.4c1.5,0,2-1.3,2-2.4C698.7,288.8,698,287.9,696.7,287.9z"/>
		<path d="M702.7,290.7v2.4h-0.7v-5.6h2.1c0.8,0,1.2,0,1.7,0.3c0.4,0.3,0.6,0.8,0.6,1.3c0,1.3-1.1,1.5-1.3,1.6l1.6,2.4h-0.9
			l-1.5-2.4H702.7z M702.7,290h1.5c0.2,0,0.5,0,0.7-0.1c0.5-0.1,0.7-0.5,0.7-0.9c0-0.1,0-0.5-0.3-0.8c-0.3-0.2-0.7-0.2-1.1-0.2h-1.5
			V290z"/>
		<path d="M714.9,291.3h-2.2l-0.6,1.7h-0.8l2.2-5.6h0.8l2.1,5.6h-0.8L714.9,291.3z M714.7,290.7l-0.8-2.4l-0.9,2.4H714.7z"/>
		<path d="M721.6,287.4h1.8c0.8,0,1.5,0,2.2,0.7c0.7,0.7,0.7,1.7,0.7,2.1c0,0.4,0,1.5-0.8,2.2c-0.7,0.6-1.4,0.6-1.9,0.6h-1.9V287.4z
			 M722.4,288.1v4.3h1c0.5,0,0.9,0,1.2-0.2c0.4-0.2,0.9-0.7,0.9-1.9c0-0.9-0.3-1.8-1.2-2.1c-0.3-0.1-0.6-0.1-1-0.1H722.4z"/>
		<path d="M729.3,287.4v5.6h-0.8v-5.6H729.3z"/>
		<path d="M736.4,287.4v5.6h-0.7l-3.1-4.6l0.1,4.6H732v-5.6h0.7l3.1,4.5l0-4.5H736.4z"/>
		<path d="M743.6,287.4v5.6h-0.7l-3.1-4.6l0.1,4.6h-0.7v-5.6h0.7l3.1,4.5l0-4.5H743.6z"/>
		<path d="M747.1,290.5v1.9h3.3v0.7h-4v-5.6h3.9v0.7h-3.2v1.7h2.8v0.7H747.1z"/>
		<path d="M753.5,290.7v2.4h-0.7v-5.6h2.1c0.8,0,1.2,0,1.7,0.3c0.4,0.3,0.6,0.8,0.6,1.3c0,1.3-1.1,1.5-1.3,1.6l1.6,2.4h-0.9
			l-1.5-2.4H753.5z M753.5,290h1.5c0.2,0,0.5,0,0.7-0.1c0.5-0.1,0.7-0.5,0.7-0.9c0-0.1,0-0.5-0.3-0.8c-0.3-0.2-0.7-0.2-1.1-0.2h-1.5
			V290z"/>
		<path d="M660.7,304.5h-3.1v2.6h-0.8v-5.7h0.8v2.4h3.1v-2.4h0.8v5.7h-0.8V304.5z"/>
		<path d="M666.7,307.2c-1.7,0-2.8-1.2-2.8-3c0-2.1,1.4-3,2.8-3c1.6,0,2.8,1.1,2.8,2.9C669.5,305.9,668.6,307.2,666.7,307.2z
			 M666.7,301.9c-1.4,0-2,1.1-2,2.4c0,1.2,0.6,2.4,2,2.4c1.5,0,2-1.3,2-2.4C668.7,302.8,668,301.9,666.7,301.9z"/>
		<path d="M673.9,304.5c-0.8-0.2-2-0.4-2-1.6c0-0.6,0.3-0.9,0.5-1.1c0.5-0.4,1.1-0.5,1.5-0.5c0.4,0,1,0,1.5,0.4
			c0.6,0.4,0.7,1,0.7,1.3l-0.8,0c0-0.2,0-0.6-0.5-0.9c-0.3-0.2-0.6-0.3-1-0.3c-0.7,0-1.3,0.3-1.3,0.9c0,0.6,0.6,0.8,1.1,0.9l0.6,0.2
			c0.4,0.1,0.7,0.2,0.9,0.2c0.8,0.4,1,1,1,1.4c0,0.5-0.2,1-0.7,1.4c-0.5,0.4-1.2,0.4-1.5,0.4c-0.5,0-2.3-0.1-2.4-1.9l0.8-0.1
			c0,0.2,0,0.7,0.5,1.1c0.3,0.3,0.7,0.4,1.2,0.4c0.8,0,1.4-0.4,1.4-1.1c0-0.7-0.5-0.8-1.1-0.9L673.9,304.5z"/>
		<path d="M680.2,302.1v5h-0.8v-5h-1.7v-0.7h4.1v0.7H680.2z"/>
		<path d="M684.6,304.5v1.9h3.3v0.7h-4v-5.6h3.9v0.7h-3.2v1.7h2.8v0.7H684.6z"/>
		<path d="M690.2,301.4h1.8c0.8,0,1.5,0,2.2,0.7c0.7,0.7,0.7,1.7,0.7,2.1c0,0.4,0,1.5-0.8,2.2c-0.7,0.6-1.4,0.6-1.9,0.6h-1.9V301.4z
			 M691,302.1v4.3h1c0.5,0,0.9,0,1.2-0.2c0.4-0.2,0.9-0.7,0.9-1.9c0-0.9-0.3-1.8-1.2-2.1c-0.3-0.1-0.6-0.1-1-0.1H691z"/>
		<path d="M700.4,301.4h2.3c0.3,0,0.5,0,0.8,0c0.6,0.1,1.2,0.5,1.2,1.4c0,0.7-0.4,1.1-0.9,1.2c0.2,0.1,1,0.3,1,1.4
			c0,0.3,0,0.9-0.6,1.3c-0.4,0.3-0.8,0.3-1.7,0.3h-2.2V301.4z M701.2,302.1v1.7h1.2c0.9,0,1.3,0,1.5-0.4c0.1-0.2,0.1-0.3,0.1-0.5
			c0-0.8-0.8-0.8-1.1-0.8H701.2z M701.2,304.4v2h1.7c0.4,0,0.5,0,0.7,0c0.5-0.1,0.7-0.5,0.7-0.9c0-0.7-0.5-0.9-0.5-0.9
			c-0.2-0.1-0.4-0.1-1.1-0.1H701.2z"/>
		<path d="M709.1,304.5v2.6h-0.8v-2.6l-2-3.1h0.9l1.5,2.4l1.5-2.4h0.9L709.1,304.5z"/>
		<path d="M719.7,301.4h0.8l-2,5.6h-0.8l-1.9-5.6h0.8l1.5,4.7L719.7,301.4z"/>
		<path d="M724.9,307.2c-1.7,0-2.8-1.2-2.8-3c0-2.1,1.4-3,2.8-3c1.6,0,2.8,1.1,2.8,2.9C727.7,305.9,726.7,307.2,724.9,307.2z
			 M724.9,301.9c-1.4,0-2,1.1-2,2.4c0,1.2,0.6,2.4,2,2.4c1.5,0,2-1.3,2-2.4C726.9,302.8,726.2,301.9,724.9,301.9z"/>
		<path d="M735.4,304.1v3h-0.6v-0.8c-0.5,0.7-1.3,0.9-2.1,0.9c-1.7,0-2.8-1.2-2.8-2.9c0-1.4,0.9-3,2.9-3c0.7,0,1.4,0.2,2,0.7
			c0.4,0.4,0.6,0.7,0.6,0.9l-0.8,0.2c-0.1-0.2-0.2-0.4-0.4-0.7c-0.2-0.2-0.7-0.6-1.4-0.6c-1.6,0-2.1,1.3-2.1,2.3
			c0,1.1,0.6,2.3,2.1,2.3c0.7,0,2-0.3,2-1.8h-2v-0.6H735.4z"/>
		<path d="M742.4,301.4v3.6c0,0.2,0,0.5-0.1,0.7c-0.2,0.7-0.8,1.4-2.1,1.4c-0.4,0-1.2-0.1-1.7-0.8c-0.4-0.5-0.4-0.9-0.4-1.5v-3.5
			h0.8v3.4c0,0.5,0,1,0.3,1.3c0.3,0.4,0.8,0.4,1.1,0.4c0.7,0,1.2-0.3,1.4-0.9c0.1-0.2,0.1-0.5,0.1-0.8v-3.4H742.4z"/>
		<path d="M745.9,304.5v1.9h3.3v0.7h-4v-5.6h3.9v0.7h-3.2v1.7h2.8v0.7H745.9z"/>
		<path d="M757.6,305.3h-2.2l-0.6,1.7h-0.8l2.2-5.6h0.8l2.1,5.6h-0.8L757.6,305.3z M757.4,304.7l-0.8-2.4l-0.9,2.4H757.4z"/>
		<path d="M765.4,301.4v5.6h-0.7l-3.1-4.6l0.1,4.6H761v-5.6h0.7l3.1,4.5l0-4.5H765.4z"/>
		<path d="M768.2,301.4h1.8c0.8,0,1.5,0,2.2,0.7c0.7,0.7,0.7,1.7,0.7,2.1c0,0.4,0,1.5-0.8,2.2c-0.7,0.6-1.4,0.6-1.9,0.6h-1.9V301.4z
			 M768.9,302.1v4.3h1c0.5,0,0.9,0,1.2-0.2c0.4-0.2,0.9-0.7,0.9-1.9c0-0.9-0.3-1.8-1.2-2.1c-0.3-0.1-0.6-0.1-1-0.1H768.9z"/>
		<path d="M779.1,304.5v1.9h3.3v0.7h-4v-5.6h3.9v0.7h-3.2v1.7h2.8v0.7H779.1z"/>
		<path d="M786.3,302.1v5h-0.8v-5h-1.7v-0.7h4.1v0.7H786.3z"/>
		<path d="M790.7,304.7v2.4H790v-5.6h2.1c0.8,0,1.2,0,1.7,0.3c0.4,0.3,0.6,0.8,0.6,1.3c0,1.3-1.1,1.5-1.3,1.6l1.6,2.4h-0.9l-1.5-2.4
			H790.7z M790.7,304h1.5c0.2,0,0.5,0,0.7-0.1c0.5-0.1,0.7-0.5,0.7-0.9c0-0.1,0-0.5-0.3-0.8c-0.3-0.2-0.7-0.2-1.1-0.2h-1.5V304z"/>
		<path d="M799.3,307.2c-1.7,0-2.8-1.2-2.8-3c0-2.1,1.4-3,2.8-3c1.6,0,2.8,1.1,2.8,2.9C802.1,305.9,801.2,307.2,799.3,307.2z
			 M799.3,301.9c-1.4,0-2,1.1-2,2.4c0,1.2,0.6,2.4,2,2.4c1.5,0,2-1.3,2-2.4C801.3,302.8,800.6,301.9,799.3,301.9z"/>
	</g>
</g>
<g>
	<g>
		<path d="M521.1,576.9c-0.2,1.1-1.1,2.2-2.8,2.2c-1.9,0-2.8-1.4-2.8-3c0-1.6,0.9-3,2.9-3c2,0,2.4,1.4,2.6,1.7l-0.8,0.2
			c-0.1-0.2-0.1-0.4-0.3-0.6c-0.3-0.3-0.8-0.7-1.5-0.7c-0.6,0-1.2,0.2-1.6,0.7c-0.4,0.4-0.5,1-0.5,1.6c0,1.4,0.7,2.4,2,2.4
			c0.8,0,1.7-0.5,1.9-1.7L521.1,576.9z"/>
		<path d="M523.9,576.4v1.9h3.3v0.7h-4v-5.6h3.9v0.7h-3.2v1.7h2.8v0.7H523.9z"/>
		<path d="M530.3,576.6v2.4h-0.7v-5.6h2.1c0.8,0,1.2,0,1.7,0.3c0.4,0.3,0.6,0.8,0.6,1.3c0,1.3-1.1,1.5-1.3,1.6l1.6,2.4h-0.9
			l-1.5-2.4H530.3z M530.3,575.9h1.5c0.2,0,0.5,0,0.7-0.1c0.5-0.1,0.7-0.5,0.7-0.9c0-0.1,0-0.5-0.3-0.8c-0.3-0.2-0.7-0.2-1.1-0.2
			h-1.5V575.9z"/>
		<path d="M537.2,576.4v1.9h3.3v0.7h-4v-5.6h3.9v0.7h-3.2v1.7h2.8v0.7H537.2z"/>
		<path d="M548.1,573.3v5.6h-0.7l0.1-4.7l-1.8,4.7h-0.6l-1.8-4.7l0.1,4.7h-0.7v-5.6h1l1.7,4.6l1.7-4.6H548.1z"/>
		<path d="M553.3,579.1c-1.7,0-2.8-1.2-2.8-3c0-2.1,1.4-3,2.8-3c1.6,0,2.8,1.1,2.8,2.9C556.1,577.8,555.1,579.1,553.3,579.1z
			 M553.3,573.8c-1.4,0-2,1.1-2,2.4c0,1.2,0.6,2.4,2,2.4c1.5,0,2-1.3,2-2.4C555.3,574.7,554.6,573.8,553.3,573.8z"/>
		<path d="M562.9,573.3v5.6h-0.7l-3.1-4.6l0.1,4.6h-0.7v-5.6h0.7l3.1,4.5l0-4.5H562.9z"/>
		<path d="M567.6,576.4v2.6h-0.8v-2.6l-2-3.1h0.9l1.5,2.4l1.5-2.4h0.9L567.6,576.4z"/>
		<path d="M575.7,576.6v2.4H575v-5.6h2.4c0.3,0,0.6,0,0.9,0.1c0.7,0.2,1,0.8,1,1.5c0,0.6-0.3,1.3-1,1.6c-0.3,0.1-0.6,0.1-0.9,0.1
			H575.7z M575.7,575.9h1.6c0.4,0,0.7,0,1-0.3c0.2-0.2,0.3-0.5,0.3-0.8c0-0.2,0-0.5-0.3-0.7c-0.2-0.2-0.5-0.2-0.8-0.2h-1.7V575.9z"
			/>
		<path d="M582.1,576.6v2.4h-0.7v-5.6h2.1c0.8,0,1.2,0,1.7,0.3c0.4,0.3,0.6,0.8,0.6,1.3c0,1.3-1.1,1.5-1.3,1.6l1.6,2.4h-0.9
			l-1.5-2.4H582.1z M582.1,575.9h1.5c0.2,0,0.5,0,0.7-0.1c0.5-0.1,0.7-0.5,0.7-0.9c0-0.1,0-0.5-0.3-0.8c-0.3-0.2-0.7-0.2-1.1-0.2
			h-1.5V575.9z"/>
		<path d="M590.6,579.1c-1.7,0-2.8-1.2-2.8-3c0-2.1,1.4-3,2.8-3c1.6,0,2.8,1.1,2.8,2.9C593.5,577.8,592.5,579.1,590.6,579.1z
			 M590.7,573.8c-1.4,0-2,1.1-2,2.4c0,1.2,0.6,2.4,2,2.4c1.5,0,2-1.3,2-2.4C592.7,574.7,592,573.8,590.7,573.8z"/>
		<path d="M601.2,576v3h-0.6v-0.8c-0.5,0.7-1.3,0.9-2.1,0.9c-1.7,0-2.8-1.2-2.8-2.9c0-1.4,0.9-3,2.9-3c0.7,0,1.4,0.2,2,0.7
			c0.4,0.4,0.6,0.7,0.6,0.9l-0.8,0.2c-0.1-0.2-0.2-0.4-0.4-0.7c-0.2-0.2-0.7-0.6-1.4-0.6c-1.6,0-2.1,1.3-2.1,2.3
			c0,1.1,0.6,2.3,2.1,2.3c0.7,0,2-0.3,2-1.8h-2V576H601.2z"/>
		<path d="M604.7,576.6v2.4h-0.7v-5.6h2.1c0.8,0,1.2,0,1.7,0.3c0.4,0.3,0.6,0.8,0.6,1.3c0,1.3-1.1,1.5-1.3,1.6l1.6,2.4h-0.9
			l-1.5-2.4H604.7z M604.7,575.9h1.5c0.2,0,0.5,0,0.7-0.1c0.5-0.1,0.7-0.5,0.7-0.9c0-0.1,0-0.5-0.3-0.8c-0.3-0.2-0.7-0.2-1.1-0.2
			h-1.5V575.9z"/>
		<path d="M613.5,577.2h-2.2l-0.6,1.7h-0.8l2.2-5.6h0.8l2.1,5.6h-0.8L613.5,577.2z M613.3,576.6l-0.8-2.4l-0.9,2.4H613.3z"/>
		<path d="M622.2,573.3v5.6h-0.7l0.1-4.7l-1.8,4.7h-0.6l-1.8-4.7l0.1,4.7h-0.7v-5.6h1l1.7,4.6l1.7-4.6H622.2z"/>
		<path d="M634.5,573.3h0.8l-1.7,5.6h-0.7l-1.5-4.7l-1.4,4.7h-0.8l-1.7-5.6h0.8l1.3,4.7l1.4-4.7h0.7l1.5,4.7L634.5,573.3z"/>
		<path d="M638.1,573.3v5.6h-0.8v-5.6H638.1z"/>
		<path d="M642.4,574v5h-0.8v-5h-1.7v-0.7h4.1v0.7H642.4z"/>
		<path d="M649.8,576.4h-3.1v2.6H646v-5.7h0.8v2.4h3.1v-2.4h0.8v5.7h-0.8V576.4z"/>
		<path d="M656.4,573.3h1.8c0.8,0,1.5,0,2.2,0.7c0.7,0.7,0.7,1.7,0.7,2.1c0,0.4,0,1.5-0.8,2.2c-0.7,0.6-1.4,0.6-1.9,0.6h-1.9V573.3z
			 M657.2,574v4.3h1c0.5,0,0.9,0,1.2-0.2c0.4-0.2,0.9-0.7,0.9-1.9c0-0.9-0.3-1.8-1.2-2.1c-0.3-0.1-0.6-0.1-1-0.1H657.2z"/>
		<path d="M664.1,573.3v5.6h-0.8v-5.6H664.1z"/>
		<path d="M667.5,576.4v1.9h3.3v0.7h-4v-5.6h3.9v0.7h-3.2v1.7h2.8v0.7H667.5z"/>
		<path d="M674.2,576.3v0.6h-1.6v-0.6H674.2z"/>
		<path d="M681.7,576.9c-0.2,1.1-1.1,2.2-2.8,2.2c-1.9,0-2.8-1.4-2.8-3c0-1.6,0.9-3,2.9-3c2,0,2.4,1.4,2.6,1.7l-0.8,0.2
			c-0.1-0.2-0.1-0.4-0.3-0.6c-0.3-0.3-0.8-0.7-1.5-0.7c-0.6,0-1.2,0.2-1.6,0.7c-0.4,0.4-0.5,1-0.5,1.6c0,1.4,0.7,2.4,2,2.4
			c0.8,0,1.7-0.5,1.9-1.7L681.7,576.9z"/>
		<path d="M688,573.3v3.6c0,0.2,0,0.5-0.1,0.7c-0.2,0.7-0.8,1.4-2.1,1.4c-0.4,0-1.2-0.1-1.7-0.8c-0.4-0.5-0.4-0.9-0.4-1.5v-3.5h0.8
			v3.4c0,0.5,0,1,0.3,1.3c0.3,0.4,0.8,0.4,1.1,0.4c0.7,0,1.2-0.3,1.4-0.9c0.1-0.2,0.1-0.5,0.1-0.8v-3.4H688z"/>
		<path d="M692.4,574v5h-0.8v-5h-1.7v-0.7h4.1v0.7H692.4z"/>
		<path d="M522.5,587.3h0.8l-1.7,5.6h-0.7l-1.5-4.7l-1.4,4.7h-0.8l-1.7-5.6h0.8l1.3,4.7l1.4-4.7h0.7l1.5,4.7L522.5,587.3z"/>
		<path d="M526,587.3v5.6h-0.8v-5.6H526z"/>
		<path d="M533.1,587.3v5.6h-0.7l-3.1-4.6l0.1,4.6h-0.7v-5.6h0.7l3.1,4.5l0-4.5H533.1z"/>
		<path d="M535.9,587.3h1.8c0.8,0,1.5,0,2.2,0.7c0.7,0.7,0.7,1.7,0.7,2.1c0,0.4,0,1.5-0.8,2.2c-0.7,0.6-1.4,0.6-1.9,0.6h-1.9V587.3z
			 M536.7,588v4.3h1c0.5,0,0.9,0,1.2-0.2c0.4-0.2,0.9-0.7,0.9-1.9c0-0.9-0.3-1.8-1.2-2.1c-0.3-0.1-0.6-0.1-1-0.1H536.7z"/>
		<path d="M545.6,593.1c-1.7,0-2.8-1.2-2.8-3c0-2.1,1.4-3,2.8-3c1.6,0,2.8,1.1,2.8,2.9C548.4,591.8,547.4,593.1,545.6,593.1z
			 M545.6,587.8c-1.4,0-2,1.1-2,2.4c0,1.2,0.6,2.4,2,2.4c1.5,0,2-1.3,2-2.4C547.6,588.7,546.9,587.8,545.6,587.8z"/>
		<path d="M557.1,587.3h0.8l-1.7,5.6h-0.7l-1.5-4.7l-1.4,4.7h-0.8l-1.7-5.6h0.8l1.3,4.7l1.4-4.7h0.7l1.5,4.7L557.1,587.3z"/>
		<path d="M565.8,593.1c-1.7,0-2.8-1.2-2.8-3c0-2.1,1.4-3,2.8-3c1.6,0,2.8,1.1,2.8,2.9C568.7,591.8,567.7,593.1,565.8,593.1z
			 M565.9,587.8c-1.4,0-2,1.1-2,2.4c0,1.2,0.6,2.4,2,2.4c1.5,0,2-1.3,2-2.4C567.9,588.7,567.2,587.8,565.9,587.8z"/>
		<path d="M575.5,587.3v5.6h-0.7l-3.1-4.6l0.1,4.6h-0.7v-5.6h0.7l3.1,4.5l0-4.5H575.5z"/>
		<path d="M583.2,588v5h-0.8v-5h-1.7v-0.7h4.1v0.7H583.2z"/>
		<path d="M590.7,590.4h-3.1v2.6h-0.8v-5.7h0.8v2.4h3.1v-2.4h0.8v5.7h-0.8V590.4z"/>
		<path d="M595,590.4v1.9h3.3v0.7h-4v-5.6h3.9v0.7H595v1.7h2.8v0.7H595z"/>
		<path d="M608.9,590.9c-0.2,1.1-1.1,2.2-2.8,2.2c-1.9,0-2.8-1.4-2.8-3c0-1.6,0.9-3,2.9-3c2,0,2.4,1.4,2.6,1.7l-0.8,0.2
			c-0.1-0.2-0.1-0.4-0.3-0.6c-0.3-0.3-0.8-0.7-1.5-0.7c-0.6,0-1.2,0.2-1.6,0.7c-0.4,0.4-0.5,1-0.5,1.6c0,1.4,0.7,2.4,2,2.4
			c0.8,0,1.7-0.5,1.9-1.7L608.9,590.9z"/>
		<path d="M613.6,593.1c-1.7,0-2.8-1.2-2.8-3c0-2.1,1.4-3,2.8-3c1.6,0,2.8,1.1,2.8,2.9C616.5,591.8,615.5,593.1,613.6,593.1z
			 M613.6,587.8c-1.4,0-2,1.1-2,2.4c0,1.2,0.6,2.4,2,2.4c1.5,0,2-1.3,2-2.4C615.7,588.7,614.9,587.8,613.6,587.8z"/>
		<path d="M621.9,587.3h0.8l-2,5.6h-0.8l-1.9-5.6h0.8l1.5,4.7L621.9,587.3z"/>
		<path d="M625.3,590.4v1.9h3.3v0.7h-4v-5.6h3.9v0.7h-3.2v1.7h2.8v0.7H625.3z"/>
		<path d="M631.7,590.6v2.4h-0.7v-5.6h2.1c0.8,0,1.2,0,1.7,0.3c0.4,0.3,0.6,0.8,0.6,1.3c0,1.3-1.1,1.5-1.3,1.6l1.6,2.4h-0.9
			l-1.5-2.4H631.7z M631.7,589.9h1.5c0.2,0,0.5,0,0.7-0.1c0.5-0.1,0.7-0.5,0.7-0.9c0-0.1,0-0.5-0.3-0.8c-0.3-0.2-0.7-0.2-1.1-0.2
			h-1.5V589.9z"/>
		<path d="M642.8,588v5H642v-5h-1.7v-0.7h4.1v0.7H642.8z"/>
		<path d="M648.5,593.1c-1.7,0-2.8-1.2-2.8-3c0-2.1,1.4-3,2.8-3c1.6,0,2.8,1.1,2.8,2.9C651.4,591.8,650.4,593.1,648.5,593.1z
			 M648.5,587.8c-1.4,0-2,1.1-2,2.4c0,1.2,0.6,2.4,2,2.4c1.5,0,2-1.3,2-2.4C650.5,588.7,649.8,587.8,648.5,587.8z"/>
		<path d="M662.3,587.3v5.6h-0.7l0.1-4.7l-1.8,4.7h-0.6l-1.8-4.7l0.1,4.7h-0.7v-5.6h1l1.7,4.6l1.7-4.6H662.3z"/>
		<path d="M665.7,587.3v5.6h-0.8v-5.6H665.7z"/>
		<path d="M669.1,590.6v2.4h-0.7v-5.6h2.1c0.8,0,1.2,0,1.7,0.3c0.4,0.3,0.6,0.8,0.6,1.3c0,1.3-1.1,1.5-1.3,1.6l1.6,2.4h-0.9
			l-1.5-2.4H669.1z M669.1,589.9h1.5c0.2,0,0.5,0,0.7-0.1c0.5-0.1,0.7-0.5,0.7-0.9c0-0.1,0-0.5-0.3-0.8c-0.3-0.2-0.7-0.2-1.1-0.2
			h-1.5V589.9z"/>
		<path d="M676,590.6v2.4h-0.7v-5.6h2.1c0.8,0,1.2,0,1.7,0.3c0.4,0.3,0.6,0.8,0.6,1.3c0,1.3-1.1,1.5-1.3,1.6l1.6,2.4H679l-1.5-2.4
			H676z M676,589.9h1.5c0.2,0,0.5,0,0.7-0.1c0.5-0.1,0.7-0.5,0.7-0.9c0-0.1,0-0.5-0.3-0.8c-0.3-0.2-0.7-0.2-1.1-0.2H676V589.9z"/>
		<path d="M684.5,593.1c-1.7,0-2.8-1.2-2.8-3c0-2.1,1.4-3,2.8-3c1.6,0,2.8,1.1,2.8,2.9C687.4,591.8,686.4,593.1,684.5,593.1z
			 M684.6,587.8c-1.4,0-2,1.1-2,2.4c0,1.2,0.6,2.4,2,2.4c1.5,0,2-1.3,2-2.4C686.6,588.7,685.9,587.8,684.6,587.8z"/>
		<path d="M690.5,590.6v2.4h-0.7v-5.6h2.1c0.8,0,1.2,0,1.7,0.3c0.4,0.3,0.6,0.8,0.6,1.3c0,1.3-1.1,1.5-1.3,1.6l1.6,2.4h-0.9
			l-1.5-2.4H690.5z M690.5,589.9h1.5c0.2,0,0.5,0,0.7-0.1c0.5-0.1,0.7-0.5,0.7-0.9c0-0.1,0-0.5-0.3-0.8c-0.3-0.2-0.7-0.2-1.1-0.2
			h-1.5V589.9z"/>
		<path d="M702.7,591.2h-2.2L700,593h-0.8l2.2-5.6h0.8l2.1,5.6h-0.8L702.7,591.2z M702.5,590.6l-0.8-2.4l-0.9,2.4H702.5z"/>
		<path d="M711.4,590.4c-0.8-0.2-2-0.4-2-1.6c0-0.6,0.3-0.9,0.5-1.1c0.5-0.4,1.1-0.5,1.5-0.5c0.4,0,1,0,1.5,0.4
			c0.6,0.4,0.7,1,0.7,1.3l-0.8,0c0-0.2,0-0.6-0.5-0.9c-0.3-0.2-0.6-0.3-1-0.3c-0.7,0-1.3,0.3-1.3,0.9c0,0.6,0.6,0.8,1.1,0.9l0.6,0.2
			c0.4,0.1,0.7,0.2,0.9,0.2c0.8,0.4,1,1,1,1.4c0,0.5-0.2,1-0.7,1.4c-0.5,0.4-1.2,0.4-1.5,0.4c-0.5,0-2.3-0.1-2.4-1.9l0.8-0.1
			c0,0.2,0,0.7,0.5,1.1c0.3,0.3,0.7,0.4,1.2,0.4c0.8,0,1.4-0.4,1.4-1.1c0-0.7-0.5-0.8-1.1-0.9L711.4,590.4z"/>
		<path d="M717.7,588v5H717v-5h-1.7v-0.7h4.1v0.7H717.7z"/>
		<path d="M723.6,591.2h-2.2l-0.6,1.7H720l2.2-5.6h0.8l2.1,5.6h-0.8L723.6,591.2z M723.3,590.6l-0.8-2.4l-0.9,2.4H723.3z"/>
		<path d="M727.6,587.3v5.6h-0.8v-5.6H727.6z"/>
		<path d="M734.7,587.3v5.6H734l-3.1-4.6l0.1,4.6h-0.7v-5.6h0.7l3.1,4.5l0-4.5H734.7z"/>
		<path d="M738.2,590.4v1.9h3.3v0.7h-4v-5.6h3.9v0.7h-3.2v1.7h2.8v0.7H738.2z"/>
		<path d="M743.8,587.3h1.8c0.8,0,1.5,0,2.2,0.7c0.7,0.7,0.7,1.7,0.7,2.1c0,0.4,0,1.5-0.8,2.2c-0.7,0.6-1.4,0.6-1.9,0.6h-1.9V587.3z
			 M744.6,588v4.3h1c0.5,0,0.9,0,1.2-0.2c0.4-0.2,0.9-0.7,0.9-1.9c0-0.9-0.3-1.8-1.2-2.1c-0.3-0.1-0.6-0.1-1-0.1H744.6z"/>
		<path d="M521.1,604v3h-0.6v-0.8c-0.5,0.7-1.3,0.9-2.1,0.9c-1.7,0-2.8-1.2-2.8-2.9c0-1.4,0.9-3,2.9-3c0.7,0,1.4,0.2,2,0.7
			c0.4,0.4,0.6,0.7,0.6,0.9l-0.8,0.2c-0.1-0.2-0.2-0.4-0.4-0.7c-0.2-0.2-0.7-0.6-1.4-0.6c-1.6,0-2.1,1.3-2.1,2.3
			c0,1.1,0.6,2.3,2.1,2.3c0.7,0,2-0.3,2-1.8h-2V604H521.1z"/>
		<path d="M524.5,606.3h2.7v0.7h-3.5v-5.7h0.8V606.3z"/>
		<path d="M532.3,605.2h-2.2l-0.6,1.7h-0.8l2.2-5.6h0.8l2.1,5.6h-0.8L532.3,605.2z M532,604.6l-0.8-2.4l-0.9,2.4H532z"/>
		<path d="M537.4,604.4c-0.8-0.2-2-0.4-2-1.6c0-0.6,0.3-0.9,0.5-1.1c0.5-0.4,1.1-0.5,1.5-0.5c0.4,0,1,0,1.5,0.4
			c0.6,0.4,0.7,1,0.7,1.3l-0.8,0c0-0.2,0-0.6-0.5-0.9c-0.3-0.2-0.6-0.3-1-0.3c-0.7,0-1.3,0.3-1.3,0.9c0,0.6,0.6,0.8,1.1,0.9l0.6,0.2
			c0.4,0.1,0.7,0.2,0.9,0.2c0.8,0.4,1,1,1,1.4c0,0.5-0.2,1-0.7,1.4c-0.5,0.4-1.2,0.4-1.5,0.4c-0.5,0-2.3-0.1-2.4-1.9l0.8-0.1
			c0,0.2,0,0.7,0.5,1.1c0.3,0.3,0.7,0.4,1.2,0.4c0.8,0,1.4-0.4,1.4-1.1c0-0.7-0.5-0.8-1.1-0.9L537.4,604.4z"/>
		<path d="M544.1,604.4c-0.8-0.2-2-0.4-2-1.6c0-0.6,0.3-0.9,0.5-1.1c0.5-0.4,1.1-0.5,1.5-0.5c0.4,0,1,0,1.5,0.4
			c0.6,0.4,0.7,1,0.7,1.3l-0.8,0c0-0.2,0-0.6-0.5-0.9c-0.3-0.2-0.6-0.3-1-0.3c-0.7,0-1.3,0.3-1.3,0.9c0,0.6,0.6,0.8,1.1,0.9l0.6,0.2
			c0.4,0.1,0.7,0.2,0.9,0.2c0.8,0.4,1,1,1,1.4c0,0.5-0.2,1-0.7,1.4c-0.5,0.4-1.2,0.4-1.5,0.4c-0.5,0-2.3-0.1-2.4-1.9l0.8-0.1
			c0,0.2,0,0.7,0.5,1.1c0.3,0.3,0.7,0.4,1.2,0.4c0.8,0,1.4-0.4,1.4-1.1c0-0.7-0.5-0.8-1.1-0.9L544.1,604.4z"/>
		<path d="M558.7,601.3h0.8l-1.7,5.6H557l-1.5-4.7l-1.4,4.7h-0.8l-1.7-5.6h0.8l1.3,4.7l1.4-4.7h0.7l1.5,4.7L558.7,601.3z"/>
		<path d="M562.3,601.3v5.6h-0.8v-5.6H562.3z"/>
		<path d="M569.4,601.3v5.6h-0.7l-3.1-4.6l0.1,4.6H565v-5.6h0.7l3.1,4.5l0-4.5H569.4z"/>
		<path d="M572.2,601.3h1.8c0.8,0,1.5,0,2.2,0.7c0.7,0.7,0.7,1.7,0.7,2.1c0,0.4,0,1.5-0.8,2.2c-0.7,0.6-1.4,0.6-1.9,0.6h-1.9V601.3z
			 M572.9,602v4.3h1c0.5,0,0.9,0,1.2-0.2c0.4-0.2,0.9-0.7,0.9-1.9c0-0.9-0.3-1.8-1.2-2.1c-0.3-0.1-0.6-0.1-1-0.1H572.9z"/>
		<path d="M581.8,607.1c-1.7,0-2.8-1.2-2.8-3c0-2.1,1.4-3,2.8-3c1.6,0,2.8,1.1,2.8,2.9C584.7,605.8,583.7,607.1,581.8,607.1z
			 M581.8,601.8c-1.4,0-2,1.1-2,2.4c0,1.2,0.6,2.4,2,2.4c1.5,0,2-1.3,2-2.4C583.8,602.7,583.1,601.8,581.8,601.8z"/>
		<path d="M593.3,601.3h0.8l-1.7,5.6h-0.7l-1.5-4.7l-1.4,4.7H588l-1.7-5.6h0.8l1.3,4.7l1.4-4.7h0.7l1.5,4.7L593.3,601.3z"/>
		<path d="M600.1,601.3v5.6h-0.8v-5.6H600.1z"/>
		<path d="M607.2,601.3v5.6h-0.7l-3.1-4.6l0.1,4.6h-0.7v-5.6h0.7l3.1,4.5l0-4.5H607.2z"/>
		<path d="M615,602v5h-0.8v-5h-1.7v-0.7h4.1v0.7H615z"/>
		<path d="M622.4,604.4h-3.1v2.6h-0.8v-5.7h0.8v2.4h3.1v-2.4h0.8v5.7h-0.8V604.4z"/>
		<path d="M626.7,604.4v1.9h3.3v0.7h-4v-5.6h3.9v0.7h-3.2v1.7h2.8v0.7H626.7z"/>
		<path d="M640.7,604.9c-0.2,1.1-1.1,2.2-2.8,2.2c-1.9,0-2.8-1.4-2.8-3c0-1.6,0.9-3,2.9-3c2,0,2.4,1.4,2.6,1.7l-0.8,0.2
			c-0.1-0.2-0.1-0.4-0.3-0.6c-0.3-0.3-0.8-0.7-1.5-0.7c-0.6,0-1.2,0.2-1.6,0.7c-0.4,0.4-0.5,1-0.5,1.6c0,1.4,0.7,2.4,2,2.4
			c0.8,0,1.7-0.5,1.9-1.7L640.7,604.9z"/>
		<path d="M646.6,604.4h-3.1v2.6h-0.8v-5.7h0.8v2.4h3.1v-2.4h0.8v5.7h-0.8V604.4z"/>
		<path d="M652.8,605.2h-2.2L650,607h-0.8l2.2-5.6h0.8l2.1,5.6h-0.8L652.8,605.2z M652.6,604.6l-0.8-2.4l-0.9,2.4H652.6z"/>
		<path d="M656.8,604.6v2.4h-0.7v-5.6h2.4c0.3,0,0.6,0,0.9,0.1c0.7,0.2,1,0.8,1,1.5c0,0.6-0.3,1.3-1,1.6c-0.3,0.1-0.6,0.1-0.9,0.1
			H656.8z M656.8,603.9h1.6c0.4,0,0.7,0,1-0.3c0.2-0.2,0.3-0.5,0.3-0.8c0-0.2,0-0.5-0.3-0.7c-0.2-0.2-0.5-0.2-0.8-0.2h-1.7V603.9z"
			/>
		<path d="M663.2,604.4v1.9h3.3v0.7h-4v-5.6h3.9v0.7h-3.2v1.7h2.8v0.7H663.2z"/>
		<path d="M669.5,606.3h2.7v0.7h-3.5v-5.7h0.8V606.3z"/>
	</g>
</g>
<g>
	<g>
		<path d="M1047.7,274.5c-0.2,1.1-1.1,2.2-2.8,2.2c-1.9,0-2.8-1.4-2.8-3c0-1.6,0.9-3,2.9-3c2,0,2.4,1.4,2.6,1.7l-0.8,0.2
			c-0.1-0.2-0.1-0.4-0.3-0.6c-0.3-0.3-0.8-0.7-1.5-0.7c-0.6,0-1.2,0.2-1.6,0.7c-0.4,0.4-0.5,1-0.5,1.6c0,1.4,0.7,2.4,2,2.4
			c0.8,0,1.7-0.5,1.9-1.7L1047.7,274.5z"/>
		<path d="M1052.4,274.8h-2.2l-0.6,1.7h-0.8l2.2-5.6h0.8l2.1,5.6h-0.8L1052.4,274.8z M1052.2,274.2l-0.8-2.4l-0.9,2.4H1052.2z"/>
		<path d="M1056.4,275.9h2.7v0.7h-3.5v-5.7h0.8V275.9z"/>
		<path d="M1061.8,275.9h2.7v0.7h-3.5v-5.7h0.8V275.9z"/>
		<path d="M1067.2,270.9v5.6h-0.8v-5.6H1067.2z"/>
		<path d="M1075,273.6v3h-0.6v-0.8c-0.5,0.7-1.3,0.9-2.1,0.9c-1.7,0-2.8-1.2-2.8-2.9c0-1.4,0.9-3,2.9-3c0.7,0,1.4,0.2,2,0.7
			c0.4,0.4,0.6,0.7,0.6,0.9l-0.8,0.2c-0.1-0.2-0.2-0.4-0.4-0.7c-0.2-0.2-0.7-0.6-1.4-0.6c-1.6,0-2.1,1.3-2.1,2.3
			c0,1.1,0.6,2.3,2.1,2.3c0.7,0,2-0.3,2-1.8h-2v-0.6H1075z"/>
		<path d="M1078.5,274.2v2.4h-0.7v-5.6h2.1c0.8,0,1.2,0,1.7,0.3c0.4,0.3,0.6,0.8,0.6,1.3c0,1.3-1.1,1.5-1.3,1.6l1.6,2.4h-0.9
			l-1.5-2.4H1078.5z M1078.5,273.5h1.5c0.2,0,0.5,0,0.7-0.1c0.5-0.1,0.7-0.5,0.7-0.9c0-0.1,0-0.5-0.3-0.8c-0.3-0.2-0.7-0.2-1.1-0.2
			h-1.5V273.5z"/>
		<path d="M1087.3,274.8h-2.2l-0.6,1.7h-0.8l2.2-5.6h0.8l2.1,5.6h-0.8L1087.3,274.8z M1087.1,274.2l-0.8-2.4l-0.9,2.4H1087.1z"/>
		<path d="M1091.4,274.2v2.4h-0.7v-5.6h2.4c0.3,0,0.6,0,0.9,0.1c0.7,0.2,1,0.8,1,1.5c0,0.6-0.3,1.3-1,1.6c-0.3,0.1-0.6,0.1-0.9,0.1
			H1091.4z M1091.4,273.5h1.6c0.4,0,0.7,0,1-0.3c0.2-0.2,0.3-0.5,0.3-0.8c0-0.2,0-0.5-0.3-0.7c-0.2-0.2-0.5-0.2-0.8-0.2h-1.7V273.5z
			"/>
		<path d="M1100.8,274h-3.1v2.6h-0.8v-5.7h0.8v2.4h3.1v-2.4h0.8v5.7h-0.8V274z"/>
		<path d="M1106.3,274v2.6h-0.8V274l-2-3.1h0.9l1.5,2.4l1.5-2.4h0.9L1106.3,274z"/>
		<path d="M1113.6,270.9h1.8c0.8,0,1.5,0,2.2,0.7c0.7,0.7,0.7,1.7,0.7,2.1c0,0.4,0,1.5-0.8,2.2c-0.7,0.6-1.4,0.6-1.9,0.6h-1.9V270.9
			z M1114.4,271.6v4.3h1c0.5,0,0.9,0,1.2-0.2c0.4-0.2,0.9-0.7,0.9-1.9c0-0.9-0.3-1.8-1.2-2.1c-0.3-0.1-0.6-0.1-1-0.1H1114.4z"/>
		<path d="M1123.2,276.7c-1.7,0-2.8-1.2-2.8-3c0-2.1,1.4-3,2.8-3c1.6,0,2.8,1.1,2.8,2.9C1126.1,275.4,1125.1,276.7,1123.2,276.7z
			 M1123.3,271.4c-1.4,0-2,1.1-2,2.4c0,1.2,0.6,2.4,2,2.4c1.5,0,2-1.3,2-2.4C1125.3,272.3,1124.6,271.4,1123.3,271.4z"/>
		<path d="M1131.1,276.7c-1.7,0-2.8-1.2-2.8-3c0-2.1,1.4-3,2.8-3c1.6,0,2.8,1.1,2.8,2.9C1134,275.4,1133,276.7,1131.1,276.7z
			 M1131.1,271.4c-1.4,0-2,1.1-2,2.4c0,1.2,0.6,2.4,2,2.4c1.5,0,2-1.3,2-2.4C1133.2,272.3,1132.4,271.4,1131.1,271.4z"/>
		<path d="M1136.4,270.9h1.8c0.8,0,1.5,0,2.2,0.7c0.7,0.7,0.7,1.7,0.7,2.1c0,0.4,0,1.5-0.8,2.2c-0.7,0.6-1.4,0.6-1.9,0.6h-1.9V270.9
			z M1137.1,271.6v4.3h1c0.5,0,0.9,0,1.2-0.2c0.4-0.2,0.9-0.7,0.9-1.9c0-0.9-0.3-1.8-1.2-2.1c-0.3-0.1-0.6-0.1-1-0.1H1137.1z"/>
		<path d="M1144.1,275.9h2.7v0.7h-3.5v-5.7h0.8V275.9z"/>
		<path d="M1149.5,274v1.9h3.3v0.7h-4v-5.6h3.9v0.7h-3.2v1.7h2.8v0.7H1149.5z"/>
		<path d="M1156.9,273.9c-0.8-0.2-2-0.4-2-1.6c0-0.6,0.3-0.9,0.5-1.1c0.5-0.4,1.1-0.5,1.5-0.5c0.4,0,1,0,1.5,0.4
			c0.6,0.4,0.7,1,0.7,1.3l-0.8,0c0-0.2,0-0.6-0.5-0.9c-0.3-0.2-0.6-0.3-1-0.3c-0.7,0-1.3,0.3-1.3,0.9c0,0.6,0.6,0.8,1.1,0.9l0.6,0.2
			c0.4,0.1,0.7,0.2,0.9,0.2c0.8,0.4,1,1,1,1.4c0,0.5-0.2,1-0.7,1.4c-0.5,0.4-1.2,0.4-1.5,0.4c-0.5,0-2.3-0.1-2.4-1.9l0.8-0.1
			c0,0.2,0,0.7,0.5,1.1c0.3,0.3,0.7,0.4,1.2,0.4c0.8,0,1.4-0.4,1.4-1.1c0-0.7-0.5-0.8-1.1-0.9L1156.9,273.9z"/>
	</g>
</g>
<g>
	<g>
		<path d="M891.8,560.9v5.6h-0.7L888,562l0.1,4.6h-0.7v-5.6h0.7l3.1,4.5l0-4.5H891.8z"/>
		<path d="M895.3,564v1.9h3.3v0.7h-4v-5.6h3.9v0.7h-3.2v1.7h2.8v0.7H895.3z"/>
		<path d="M907.2,560.9h0.8l-1.7,5.6h-0.7l-1.5-4.7l-1.4,4.7h-0.8l-1.7-5.6h0.8l1.3,4.7l1.4-4.7h0.7l1.5,4.7L907.2,560.9z"/>
		<path d="M915.9,566.7c-1.7,0-2.8-1.2-2.8-3c0-2.1,1.4-3,2.8-3c1.6,0,2.8,1.1,2.8,2.9C918.8,565.4,917.8,566.7,915.9,566.7z
			 M916,561.4c-1.4,0-2,1.1-2,2.4c0,1.2,0.6,2.4,2,2.4c1.5,0,2-1.3,2-2.4C918,562.3,917.3,561.4,916,561.4z"/>
		<path d="M921.9,564.2v2.4h-0.7v-5.6h2.1c0.8,0,1.2,0,1.7,0.3c0.4,0.3,0.6,0.8,0.6,1.3c0,1.3-1.1,1.5-1.3,1.6l1.6,2.4h-0.9
			l-1.5-2.4H921.9z M921.9,563.5h1.5c0.2,0,0.5,0,0.7-0.1c0.5-0.1,0.7-0.5,0.7-0.9c0-0.1,0-0.5-0.3-0.8c-0.3-0.2-0.7-0.2-1.1-0.2
			h-1.5V563.5z"/>
		<path d="M928.7,565.9h2.7v0.7H928v-5.7h0.8V565.9z"/>
		<path d="M934.2,564v1.9h3.3v0.7h-4v-5.6h3.9v0.7h-3.2v1.7h2.8v0.7H934.2z"/>
		<path d="M942.5,564.8h-2.2l-0.6,1.7h-0.8l2.2-5.6h0.8l2.1,5.6h-0.8L942.5,564.8z M942.3,564.2l-0.8-2.3l-0.9,2.3H942.3z"/>
		<path d="M950.2,560.9v5.6h-0.7l-3.1-4.6l0.1,4.6h-0.7v-5.6h0.7l3.1,4.5l0-4.5H950.2z"/>
		<path d="M954.8,563.9c-0.8-0.2-2-0.4-2-1.6c0-0.6,0.3-0.9,0.5-1.1c0.5-0.4,1.1-0.5,1.5-0.5c0.4,0,1,0,1.5,0.4
			c0.6,0.4,0.7,1,0.7,1.3l-0.8,0c0-0.2,0-0.6-0.5-0.9c-0.3-0.2-0.6-0.3-1-0.3c-0.7,0-1.3,0.3-1.3,0.9c0,0.6,0.6,0.8,1.1,0.9l0.6,0.2
			c0.4,0.1,0.7,0.2,0.9,0.2c0.8,0.4,1,1,1,1.4c0,0.5-0.2,1-0.7,1.4c-0.5,0.4-1.2,0.4-1.5,0.4c-0.5,0-2.3-0.1-2.4-1.9l0.8-0.1
			c0,0.2,0,0.7,0.5,1.1c0.3,0.3,0.7,0.4,1.2,0.4c0.8,0,1.4-0.4,1.4-1.1c0-0.7-0.5-0.8-1.1-0.9L954.8,563.9z"/>
		<path d="M963.5,564.2v2.4h-0.7v-5.6h2.1c0.8,0,1.2,0,1.7,0.3c0.4,0.3,0.6,0.8,0.6,1.3c0,1.3-1.1,1.5-1.3,1.6l1.6,2.4h-0.9
			l-1.5-2.4H963.5z M963.5,563.5h1.5c0.2,0,0.5,0,0.7-0.1c0.5-0.1,0.7-0.5,0.7-0.9c0-0.1,0-0.5-0.3-0.8c-0.3-0.2-0.7-0.2-1.1-0.2
			h-1.5V563.5z"/>
		<path d="M970.4,564v1.9h3.3v0.7h-4v-5.6h3.9v0.7h-3.2v1.7h2.8v0.7H970.4z"/>
		<path d="M979.8,564h-3.1v2.6H976v-5.7h0.8v2.4h3.1v-2.4h0.8v5.7h-0.8V564z"/>
		<path d="M984.1,564v1.9h3.3v0.7h-4v-5.6h3.9v0.7h-3.2v1.7h2.8v0.7H984.1z"/>
		<path d="M992.4,564.8h-2.2l-0.6,1.7h-0.8l2.2-5.6h0.8l2.1,5.6h-0.8L992.4,564.8z M992.2,564.2l-0.8-2.3l-0.9,2.3H992.2z"/>
		<path d="M996.5,564.2v2.4h-0.7v-5.6h2.1c0.8,0,1.2,0,1.7,0.3c0.4,0.3,0.6,0.8,0.6,1.3c0,1.3-1.1,1.5-1.3,1.6l1.6,2.4h-0.9
			l-1.5-2.4H996.5z M996.5,563.5h1.5c0.2,0,0.5,0,0.7-0.1c0.5-0.1,0.7-0.5,0.7-0.9c0-0.1,0-0.5-0.3-0.8c-0.3-0.2-0.7-0.2-1.1-0.2
			h-1.5V563.5z"/>
		<path d="M1004.6,563.9c-0.8-0.2-2-0.4-2-1.6c0-0.6,0.3-0.9,0.5-1.1c0.5-0.4,1.1-0.5,1.5-0.5c0.4,0,1,0,1.5,0.4
			c0.6,0.4,0.7,1,0.7,1.3l-0.8,0c0-0.2,0-0.6-0.5-0.9c-0.3-0.2-0.6-0.3-1-0.3c-0.7,0-1.3,0.3-1.3,0.9c0,0.6,0.6,0.8,1.1,0.9l0.6,0.2
			c0.4,0.1,0.7,0.2,0.9,0.2c0.8,0.4,1,1,1,1.4c0,0.5-0.2,1-0.7,1.4c-0.5,0.4-1.2,0.4-1.5,0.4c-0.5,0-2.3-0.1-2.4-1.9l0.8-0.1
			c0,0.2,0,0.7,0.5,1.1c0.3,0.3,0.7,0.4,1.2,0.4c0.8,0,1.4-0.4,1.4-1.1c0-0.7-0.5-0.8-1.1-0.9L1004.6,563.9z"/>
		<path d="M1012.2,564.8h-2.2l-0.6,1.7h-0.8l2.2-5.6h0.8l2.1,5.6h-0.8L1012.2,564.8z M1012,564.2l-0.8-2.3l-0.9,2.3H1012z"/>
		<path d="M1016.2,565.9h2.7v0.7h-3.5v-5.7h0.8V565.9z"/>
		<path d="M1024.3,560.9h1.8c0.8,0,1.5,0,2.2,0.7c0.7,0.7,0.7,1.7,0.7,2.1c0,0.4,0,1.5-0.8,2.2c-0.7,0.6-1.4,0.6-1.9,0.6h-1.9V560.9
			z M1025.1,561.6v4.3h1c0.5,0,0.9,0,1.2-0.2c0.4-0.2,0.9-0.7,0.9-1.9c0-0.9-0.3-1.8-1.2-2.1c-0.3-0.1-0.6-0.1-1-0.1H1025.1z"/>
		<path d="M1032,560.9v5.6h-0.8v-5.6H1032z"/>
		<path d="M1039.1,560.9v5.6h-0.7l-3.1-4.6l0.1,4.6h-0.7v-5.6h0.7l3.1,4.5l0-4.5H1039.1z"/>
		<path d="M1046.3,560.9v5.6h-0.7l-3.1-4.6l0.1,4.6h-0.7v-5.6h0.7l3.1,4.5l0-4.5H1046.3z"/>
		<path d="M1049.8,564v1.9h3.3v0.7h-4v-5.6h3.9v0.7h-3.2v1.7h2.8v0.7H1049.8z"/>
		<path d="M1056.2,564.2v2.4h-0.7v-5.6h2.1c0.8,0,1.2,0,1.7,0.3c0.4,0.3,0.6,0.8,0.6,1.3c0,1.3-1.1,1.5-1.3,1.6l1.6,2.4h-0.9
			l-1.5-2.4H1056.2z M1056.2,563.5h1.5c0.2,0,0.5,0,0.7-0.1c0.5-0.1,0.7-0.5,0.7-0.9c0-0.1,0-0.5-0.3-0.8c-0.3-0.2-0.7-0.2-1.1-0.2
			h-1.5V563.5z"/>
	</g>
</g>
<g>
	<g>
		<path d="M711.2,1146.9h1.8c0.8,0,1.5,0,2.2,0.7c0.7,0.7,0.7,1.7,0.7,2.1c0,0.4,0,1.5-0.8,2.2c-0.7,0.6-1.4,0.6-1.9,0.6h-1.9
			V1146.9z M711.9,1147.6v4.3h1c0.5,0,0.9,0,1.2-0.2c0.4-0.2,0.9-0.7,0.9-1.9c0-0.9-0.3-1.8-1.2-2.1c-0.3-0.1-0.6-0.1-1-0.1H711.9z"
			/>
		<path d="M718.9,1150v1.9h3.3v0.7h-4v-5.6h3.9v0.7h-3.2v1.7h2.8v0.7H718.9z"/>
		<path d="M725.3,1150.1v2.4h-0.7v-5.6h2.1c0.8,0,1.2,0,1.7,0.3c0.4,0.3,0.6,0.8,0.6,1.3c0,1.3-1.1,1.5-1.3,1.6l1.6,2.4h-0.9
			l-1.5-2.4H725.3z M725.3,1149.5h1.5c0.2,0,0.5,0,0.7-0.1c0.5-0.1,0.7-0.5,0.7-0.9c0-0.1,0-0.5-0.3-0.8c-0.3-0.2-0.7-0.2-1.1-0.2
			h-1.5V1149.5z"/>
		<path d="M731.4,1146.9h2.3c0.3,0,0.5,0,0.8,0c0.6,0.1,1.2,0.5,1.2,1.4c0,0.7-0.4,1.1-0.9,1.2c0.2,0.1,1,0.3,1,1.4
			c0,0.3,0,0.9-0.6,1.3c-0.4,0.3-0.8,0.3-1.7,0.3h-2.2V1146.9z M732.1,1147.6v1.7h1.2c0.9,0,1.3,0,1.5-0.4c0.1-0.2,0.1-0.3,0.1-0.5
			c0-0.8-0.8-0.8-1.1-0.8H732.1z M732.1,1149.9v2h1.7c0.4,0,0.5,0,0.7,0c0.5-0.1,0.7-0.5,0.7-0.9c0-0.7-0.5-0.9-0.5-0.9
			c-0.2-0.1-0.4-0.1-1.1-0.1H732.1z"/>
		<path d="M740,1150v2.6h-0.8v-2.6l-2-3.1h0.9l1.5,2.4l1.5-2.4h0.9L740,1150z"/>
		<path d="M749.3,1147.6v5h-0.8v-5h-1.7v-0.7h4.1v0.7H749.3z"/>
		<path d="M756.7,1150h-3.1v2.6h-0.8v-5.7h0.8v2.4h3.1v-2.4h0.8v5.7h-0.8V1150z"/>
		<path d="M761,1150v1.9h3.3v0.7h-4v-5.6h3.9v0.7H761v1.7h2.8v0.7H761z"/>
		<path d="M772,1146.9v5.6h-0.7l0.1-4.7l-1.8,4.7H769l-1.8-4.7l0.1,4.7h-0.7v-5.6h1l1.7,4.6l1.7-4.6H772z"/>
		<path d="M775.4,1150v1.9h3.3v0.7h-4v-5.6h3.9v0.7h-3.2v1.7h2.8v0.7H775.4z"/>
		<path d="M781.1,1146.9h1.8c0.8,0,1.5,0,2.2,0.7c0.7,0.7,0.7,1.7,0.7,2.1c0,0.4,0,1.5-0.8,2.2c-0.7,0.6-1.4,0.6-1.9,0.6h-1.9
			V1146.9z M781.8,1147.6v4.3h1c0.5,0,0.9,0,1.2-0.2c0.4-0.2,0.9-0.7,0.9-1.9c0-0.9-0.3-1.8-1.2-2.1c-0.3-0.1-0.6-0.1-1-0.1H781.8z"
			/>
		<path d="M792,1150v1.9h3.3v0.7h-4v-5.6h3.9v0.7H792v1.7h2.8v0.7H792z"/>
		<path d="M799.4,1149.9c-0.8-0.2-2-0.4-2-1.6c0-0.6,0.3-0.9,0.5-1.1c0.5-0.4,1.1-0.5,1.5-0.5c0.4,0,1,0,1.5,0.4
			c0.6,0.4,0.7,1,0.7,1.3l-0.8,0c0-0.2,0-0.6-0.5-0.9c-0.3-0.2-0.6-0.3-1-0.3c-0.7,0-1.3,0.3-1.3,0.9c0,0.6,0.6,0.8,1.1,0.9l0.6,0.2
			c0.4,0.1,0.7,0.2,0.9,0.2c0.8,0.4,1,1,1,1.4c0,0.5-0.2,1-0.7,1.4c-0.5,0.4-1.2,0.4-1.5,0.4c-0.5,0-2.3-0.1-2.4-1.9l0.8-0.1
			c0,0.2,0,0.7,0.5,1.1c0.3,0.3,0.7,0.4,1.2,0.4c0.8,0,1.4-0.4,1.4-1.1c0-0.7-0.5-0.8-1.1-0.9L799.4,1149.9z"/>
		<path d="M809.5,1150.5c-0.2,1.1-1.1,2.2-2.8,2.2c-1.9,0-2.8-1.4-2.8-3c0-1.6,0.9-3,2.9-3c2,0,2.4,1.4,2.6,1.7l-0.8,0.2
			c-0.1-0.2-0.1-0.4-0.3-0.6c-0.3-0.3-0.8-0.7-1.5-0.7c-0.6,0-1.2,0.2-1.6,0.7c-0.4,0.4-0.5,1-0.5,1.6c0,1.4,0.7,2.4,2,2.4
			c0.8,0,1.7-0.5,1.9-1.7L809.5,1150.5z"/>
		<path d="M814.2,1152.7c-1.7,0-2.8-1.2-2.8-3c0-2.1,1.4-3,2.8-3c1.6,0,2.8,1.1,2.8,2.9C817,1151.4,816,1152.7,814.2,1152.7z
			 M814.2,1147.4c-1.4,0-2,1.1-2,2.4c0,1.2,0.6,2.4,2,2.4c1.5,0,2-1.3,2-2.4C816.2,1148.3,815.5,1147.4,814.2,1147.4z"/>
		<path d="M820.2,1150.1v2.4h-0.7v-5.6h2.1c0.8,0,1.2,0,1.7,0.3c0.4,0.3,0.6,0.8,0.6,1.3c0,1.3-1.1,1.5-1.3,1.6l1.6,2.4h-0.9
			l-1.5-2.4H820.2z M820.2,1149.5h1.5c0.2,0,0.5,0,0.7-0.1c0.5-0.1,0.7-0.5,0.7-0.9c0-0.1,0-0.5-0.3-0.8c-0.3-0.2-0.7-0.2-1.1-0.2
			h-1.5V1149.5z"/>
		<path d="M827.9,1147.6v5h-0.8v-5h-1.7v-0.7h4.1v0.7H827.9z"/>
		<path d="M840.2,1150.5c-0.2,1.1-1.1,2.2-2.8,2.2c-1.9,0-2.8-1.4-2.8-3c0-1.6,0.9-3,2.9-3c2,0,2.4,1.4,2.6,1.7l-0.8,0.2
			c-0.1-0.2-0.1-0.4-0.3-0.6c-0.3-0.3-0.8-0.7-1.5-0.7c-0.6,0-1.2,0.2-1.6,0.7c-0.4,0.4-0.5,1-0.5,1.6c0,1.4,0.7,2.4,2,2.4
			c0.8,0,1.7-0.5,1.9-1.7L840.2,1150.5z"/>
		<path d="M844.9,1150.8h-2.2l-0.6,1.7h-0.8l2.2-5.6h0.8l2.1,5.6h-0.8L844.9,1150.8z M844.7,1150.2l-0.8-2.4l-0.9,2.4H844.7z"/>
		<path d="M849,1150.1v2.4h-0.7v-5.6h2.1c0.8,0,1.2,0,1.7,0.3c0.4,0.3,0.6,0.8,0.6,1.3c0,1.3-1.1,1.5-1.3,1.6l1.6,2.4H852l-1.5-2.4
			H849z M849,1149.5h1.5c0.2,0,0.5,0,0.7-0.1c0.5-0.1,0.7-0.5,0.7-0.9c0-0.1,0-0.5-0.3-0.8c-0.3-0.2-0.7-0.2-1.1-0.2H849V1149.5z"/>
		<path d="M855.1,1146.9h1.8c0.8,0,1.5,0,2.2,0.7c0.7,0.7,0.7,1.7,0.7,2.1c0,0.4,0,1.5-0.8,2.2c-0.7,0.6-1.4,0.6-1.9,0.6h-1.9
			V1146.9z M855.9,1147.6v4.3h1c0.5,0,0.9,0,1.2-0.2c0.4-0.2,0.9-0.7,0.9-1.9c0-0.9-0.3-1.8-1.2-2.1c-0.3-0.1-0.6-0.1-1-0.1H855.9z"
			/>
		<path d="M864.1,1149.9c-0.8-0.2-2-0.4-2-1.6c0-0.6,0.3-0.9,0.5-1.1c0.5-0.4,1.1-0.5,1.5-0.5c0.4,0,1,0,1.5,0.4
			c0.6,0.4,0.7,1,0.7,1.3l-0.8,0c0-0.2,0-0.6-0.5-0.9c-0.3-0.2-0.6-0.3-1-0.3c-0.7,0-1.3,0.3-1.3,0.9c0,0.6,0.6,0.8,1.1,0.9l0.6,0.2
			c0.4,0.1,0.7,0.2,0.9,0.2c0.8,0.4,1,1,1,1.4c0,0.5-0.2,1-0.7,1.4c-0.5,0.4-1.2,0.4-1.5,0.4c-0.5,0-2.3-0.1-2.4-1.9l0.8-0.1
			c0,0.2,0,0.7,0.5,1.1c0.3,0.3,0.7,0.4,1.2,0.4c0.8,0,1.4-0.4,1.4-1.1c0-0.7-0.5-0.8-1.1-0.9L864.1,1149.9z"/>
		<path d="M711.9,1163.9v2.7h-0.8v-5.7h3.6v0.7h-2.9v1.7h2.7v0.7H711.9z"/>
		<path d="M719.3,1166.7c-1.7,0-2.8-1.2-2.8-3c0-2.1,1.4-3,2.8-3c1.6,0,2.8,1.1,2.8,2.9C722.2,1165.4,721.2,1166.7,719.3,1166.7z
			 M719.3,1161.4c-1.4,0-2,1.1-2,2.4c0,1.2,0.6,2.4,2,2.4c1.5,0,2-1.3,2-2.4C721.3,1162.3,720.6,1161.4,719.3,1161.4z"/>
		<path d="M725.3,1164.1v2.4h-0.7v-5.6h2.1c0.8,0,1.2,0,1.7,0.3c0.4,0.3,0.6,0.8,0.6,1.3c0,1.3-1.1,1.5-1.3,1.6l1.6,2.4h-0.9
			l-1.5-2.4H725.3z M725.3,1163.5h1.5c0.2,0,0.5,0,0.7-0.1c0.5-0.1,0.7-0.5,0.7-0.9c0-0.1,0-0.5-0.3-0.8c-0.3-0.2-0.7-0.2-1.1-0.2
			h-1.5V1163.5z"/>
		<path d="M737.5,1164.8h-2.2l-0.6,1.7h-0.8l2.2-5.6h0.8l2.1,5.6h-0.8L737.5,1164.8z M737.3,1164.2l-0.8-2.4l-0.9,2.4H737.3z"/>
		<path d="M745.7,1163.8l-0.8,0.8v2h-0.8v-5.6h0.8v2.8l2.7-2.8h0.9l-2.3,2.3l2.4,3.3h-0.9L745.7,1163.8z"/>
		<path d="M751.3,1164v1.9h3.3v0.7h-4v-5.6h3.9v0.7h-3.2v1.7h2.8v0.7H751.3z"/>
		<path d="M761.4,1160.9v5.6h-0.7l-3.1-4.6l0.1,4.6h-0.7v-5.6h0.7l3.1,4.5l0-4.5H761.4z"/>
		<path d="M765.7,1161.6v5H765v-5h-1.7v-0.7h4.1v0.7H765.7z"/>
		<path d="M773.6,1160.9v3.6c0,0.2,0,0.5-0.1,0.7c-0.2,0.7-0.8,1.4-2.1,1.4c-0.4,0-1.2-0.1-1.7-0.8c-0.4-0.5-0.4-0.9-0.4-1.5v-3.5
			h0.8v3.4c0,0.5,0,1,0.3,1.3c0.3,0.4,0.8,0.4,1.1,0.4c0.7,0,1.2-0.3,1.4-0.9c0.1-0.2,0.1-0.5,0.1-0.8v-3.4H773.6z"/>
		<path d="M781.5,1164.5c-0.2,1.1-1.1,2.2-2.8,2.2c-1.9,0-2.8-1.4-2.8-3c0-1.6,0.9-3,2.9-3c2,0,2.4,1.4,2.6,1.7l-0.8,0.2
			c-0.1-0.2-0.1-0.4-0.3-0.6c-0.3-0.3-0.8-0.7-1.5-0.7c-0.6,0-1.2,0.2-1.6,0.7c-0.4,0.4-0.5,1-0.5,1.6c0,1.4,0.7,2.4,2,2.4
			c0.8,0,1.7-0.5,1.9-1.7L781.5,1164.5z"/>
		<path d="M785,1163.8l-0.8,0.8v2h-0.8v-5.6h0.8v2.8l2.7-2.8h0.9l-2.3,2.3l2.4,3.3H787L785,1163.8z"/>
		<path d="M791.9,1164v2.6h-0.8v-2.6l-2-3.1h0.9l1.5,2.4l1.5-2.4h0.9L791.9,1164z"/>
		<path d="M805.8,1160.9h0.8l-1.7,5.6h-0.7l-1.5-4.7l-1.4,4.7h-0.8l-1.7-5.6h0.8l1.3,4.7l1.4-4.7h0.7l1.5,4.7L805.8,1160.9z"/>
		<path d="M809.5,1164v1.9h3.3v0.7h-4v-5.6h3.9v0.7h-3.2v1.7h2.8v0.7H809.5z"/>
		<path d="M815.1,1160.9h1.8c0.8,0,1.5,0,2.2,0.7c0.7,0.7,0.7,1.7,0.7,2.1c0,0.4,0,1.5-0.8,2.2c-0.7,0.6-1.4,0.6-1.9,0.6h-1.9
			V1160.9z M815.9,1161.6v4.3h1c0.5,0,0.9,0,1.2-0.2c0.4-0.2,0.9-0.7,0.9-1.9c0-0.9-0.3-1.8-1.2-2.1c-0.3-0.1-0.6-0.1-1-0.1H815.9z"
			/>
		<path d="M822.1,1160.9h1.8c0.8,0,1.5,0,2.2,0.7c0.7,0.7,0.7,1.7,0.7,2.1c0,0.4,0,1.5-0.8,2.2c-0.7,0.6-1.4,0.6-1.9,0.6h-1.9
			V1160.9z M822.9,1161.6v4.3h1c0.5,0,0.9,0,1.2-0.2c0.4-0.2,0.9-0.7,0.9-1.9c0-0.9-0.3-1.8-1.2-2.1c-0.3-0.1-0.6-0.1-1-0.1H822.9z"
			/>
		<path d="M829.8,1160.9v5.6h-0.8v-5.6H829.8z"/>
		<path d="M836.9,1160.9v5.6h-0.7l-3.1-4.6l0.1,4.6h-0.7v-5.6h0.7l3.1,4.5l0-4.5H836.9z"/>
		<path d="M844.9,1163.6v3h-0.6v-0.8c-0.5,0.7-1.3,0.9-2.1,0.9c-1.7,0-2.8-1.2-2.8-2.9c0-1.4,0.9-3,2.9-3c0.7,0,1.4,0.2,2,0.7
			c0.4,0.4,0.6,0.7,0.6,0.9l-0.8,0.2c-0.1-0.2-0.2-0.4-0.4-0.7c-0.2-0.2-0.7-0.6-1.4-0.6c-1.6,0-2.1,1.3-2.1,2.3
			c0,1.1,0.6,2.3,2.1,2.3c0.7,0,2-0.3,2-1.8h-2v-0.6H844.9z"/>
	</g>
</g>
<g>
	<g>
		<path d="M195.8,1364.9h0.8l-1.7,5.6h-0.7l-1.5-4.7l-1.4,4.7h-0.8l-1.7-5.6h0.8l1.3,4.7l1.4-4.7h0.7l1.5,4.7L195.8,1364.9z"/>
		<path d="M199.4,1368v1.9h3.3v0.7h-4v-5.6h3.9v0.7h-3.2v1.7h2.8v0.7H199.4z"/>
		<path d="M211.1,1368.8H209l-0.6,1.7h-0.8l2.2-5.6h0.8l2.1,5.6h-0.8L211.1,1368.8z M210.9,1368.2l-0.8-2.3l-0.9,2.3H210.9z"/>
		<path d="M215.2,1368.1v2.4h-0.7v-5.6h2.1c0.8,0,1.2,0,1.7,0.3c0.4,0.3,0.6,0.8,0.6,1.3c0,1.3-1.1,1.5-1.3,1.6l1.6,2.4h-0.9
			l-1.5-2.4H215.2z M215.2,1367.5h1.5c0.2,0,0.5,0,0.7-0.1c0.5-0.1,0.7-0.5,0.7-0.9c0-0.1,0-0.5-0.3-0.8c-0.3-0.2-0.7-0.2-1.1-0.2
			h-1.5V1367.5z"/>
		<path d="M222.1,1368v1.9h3.3v0.7h-4v-5.6h3.9v0.7h-3.2v1.7h2.8v0.7H222.1z"/>
		<path d="M233.3,1370.7c-1.7,0-2.8-1.2-2.8-3c0-2.1,1.4-3,2.8-3c1.6,0,2.8,1.1,2.8,2.9C236.2,1369.4,235.2,1370.7,233.3,1370.7z
			 M233.4,1365.4c-1.4,0-2,1.1-2,2.4c0,1.2,0.6,2.4,2,2.4c1.5,0,2-1.3,2-2.4C235.4,1366.3,234.7,1365.4,233.4,1365.4z"/>
		<path d="M238.6,1364.9h2.3c0.3,0,0.5,0,0.8,0c0.6,0.1,1.2,0.5,1.2,1.4c0,0.7-0.4,1.1-0.9,1.2c0.2,0.1,1,0.3,1,1.4
			c0,0.3,0,0.9-0.6,1.3c-0.4,0.3-0.8,0.3-1.7,0.3h-2.2V1364.9z M239.3,1365.6v1.7h1.2c0.9,0,1.3,0,1.5-0.4c0.1-0.2,0.1-0.3,0.1-0.5
			c0-0.8-0.8-0.8-1.1-0.8H239.3z M239.3,1367.9v2h1.7c0.4,0,0.5,0,0.7,0c0.5-0.1,0.7-0.5,0.7-0.9c0-0.7-0.5-0.9-0.5-0.9
			c-0.2-0.1-0.4-0.1-1.1-0.1H239.3z"/>
		<path d="M247.6,1367.9c-0.8-0.2-2-0.4-2-1.6c0-0.6,0.3-0.9,0.5-1.1c0.5-0.4,1.1-0.5,1.5-0.5c0.4,0,1,0,1.5,0.4
			c0.6,0.4,0.7,1,0.7,1.3l-0.8,0c0-0.2,0-0.6-0.5-0.9c-0.3-0.2-0.6-0.3-1-0.3c-0.7,0-1.3,0.3-1.3,0.9c0,0.6,0.6,0.8,1.1,0.9l0.6,0.2
			c0.4,0.1,0.7,0.2,0.9,0.2c0.8,0.4,1,1,1,1.4c0,0.5-0.2,1-0.7,1.4c-0.5,0.4-1.2,0.4-1.5,0.4c-0.5,0-2.3-0.1-2.4-1.9l0.8-0.1
			c0,0.2,0,0.7,0.5,1.1c0.3,0.3,0.7,0.4,1.2,0.4c0.8,0,1.4-0.4,1.4-1.1c0-0.7-0.5-0.8-1.1-0.9L247.6,1367.9z"/>
		<path d="M253.1,1368v1.9h3.3v0.7h-4v-5.6h3.9v0.7h-3.2v1.7h2.8v0.7H253.1z"/>
		<path d="M260.5,1367.9c-0.8-0.2-2-0.4-2-1.6c0-0.6,0.3-0.9,0.5-1.1c0.5-0.4,1.1-0.5,1.5-0.5c0.4,0,1,0,1.5,0.4
			c0.6,0.4,0.7,1,0.7,1.3l-0.8,0c0-0.2,0-0.6-0.5-0.9c-0.3-0.2-0.6-0.3-1-0.3c-0.7,0-1.3,0.3-1.3,0.9c0,0.6,0.6,0.8,1.1,0.9l0.6,0.2
			c0.4,0.1,0.7,0.2,0.9,0.2c0.8,0.4,1,1,1,1.4c0,0.5-0.2,1-0.7,1.4c-0.5,0.4-1.2,0.4-1.5,0.4c-0.5,0-2.3-0.1-2.4-1.9l0.8-0.1
			c0,0.2,0,0.7,0.5,1.1c0.3,0.3,0.7,0.4,1.2,0.4c0.8,0,1.4-0.4,1.4-1.1c0-0.7-0.5-0.8-1.1-0.9L260.5,1367.9z"/>
		<path d="M267.2,1367.9c-0.8-0.2-2-0.4-2-1.6c0-0.6,0.3-0.9,0.5-1.1c0.5-0.4,1.1-0.5,1.5-0.5c0.4,0,1,0,1.5,0.4
			c0.6,0.4,0.7,1,0.7,1.3l-0.8,0c0-0.2,0-0.6-0.5-0.9c-0.3-0.2-0.6-0.3-1-0.3c-0.7,0-1.3,0.3-1.3,0.9c0,0.6,0.6,0.8,1.1,0.9l0.6,0.2
			c0.4,0.1,0.7,0.2,0.9,0.2c0.8,0.4,1,1,1,1.4c0,0.5-0.2,1-0.7,1.4c-0.5,0.4-1.2,0.4-1.5,0.4c-0.5,0-2.3-0.1-2.4-1.9l0.8-0.1
			c0,0.2,0,0.7,0.5,1.1c0.3,0.3,0.7,0.4,1.2,0.4c0.8,0,1.4-0.4,1.4-1.1c0-0.7-0.5-0.8-1.1-0.9L267.2,1367.9z"/>
		<path d="M272.6,1364.9v5.6h-0.8v-5.6H272.6z"/>
		<path d="M278.3,1364.9h0.8l-2,5.6h-0.8l-1.9-5.6h0.8l1.5,4.7L278.3,1364.9z"/>
		<path d="M281.7,1368v1.9h3.3v0.7h-4v-5.6h3.9v0.7h-3.2v1.7h2.8v0.7H281.7z"/>
		<path d="M192.2,1382.8h-2.2l-0.6,1.7h-0.8l2.2-5.6h0.8l2.1,5.6h-0.8L192.2,1382.8z M192,1382.2l-0.8-2.3l-0.9,2.3H192z"/>
		<path d="M195.5,1378.9h2.3c0.3,0,0.5,0,0.8,0c0.6,0.1,1.2,0.5,1.2,1.4c0,0.7-0.4,1.1-0.9,1.2c0.2,0.1,1,0.3,1,1.4
			c0,0.3,0,0.9-0.6,1.3c-0.4,0.3-0.8,0.3-1.7,0.3h-2.2V1378.9z M196.2,1379.6v1.7h1.2c0.9,0,1.3,0,1.5-0.4c0.1-0.2,0.1-0.3,0.1-0.5
			c0-0.8-0.8-0.8-1.1-0.8H196.2z M196.2,1381.9v2h1.7c0.4,0,0.5,0,0.7,0c0.5-0.1,0.7-0.5,0.7-0.9c0-0.7-0.5-0.9-0.5-0.9
			c-0.2-0.1-0.4-0.1-1.1-0.1H196.2z"/>
		<path d="M205.2,1384.7c-1.7,0-2.8-1.2-2.8-3c0-2.1,1.4-3,2.8-3c1.6,0,2.8,1.1,2.8,2.9C208,1383.4,207.1,1384.7,205.2,1384.7z
			 M205.2,1379.4c-1.4,0-2,1.1-2,2.4c0,1.2,0.6,2.4,2,2.4c1.5,0,2-1.3,2-2.4C207.2,1380.3,206.5,1379.4,205.2,1379.4z"/>
		<path d="M214.7,1378.9v3.6c0,0.2,0,0.5-0.1,0.7c-0.2,0.7-0.8,1.4-2.1,1.4c-0.4,0-1.2-0.1-1.7-0.8c-0.4-0.5-0.4-0.9-0.4-1.5v-3.5
			h0.8v3.4c0,0.5,0,1,0.3,1.3c0.3,0.4,0.8,0.4,1.1,0.4c0.7,0,1.2-0.3,1.4-0.9c0.1-0.2,0.1-0.5,0.1-0.8v-3.4H214.7z"/>
		<path d="M219.1,1379.6v5h-0.8v-5h-1.7v-0.7h4.1v0.7H219.1z"/>
		<path d="M226.8,1382.1v2.4H226v-5.6h2.1c0.8,0,1.2,0,1.7,0.3c0.4,0.3,0.6,0.8,0.6,1.3c0,1.3-1.1,1.5-1.3,1.6l1.6,2.4h-0.9
			l-1.5-2.4H226.8z M226.8,1381.5h1.5c0.2,0,0.5,0,0.7-0.1c0.5-0.1,0.7-0.5,0.7-0.9c0-0.1,0-0.5-0.3-0.8c-0.3-0.2-0.7-0.2-1.1-0.2
			h-1.5V1381.5z"/>
		<path d="M233.6,1378.9v5.6h-0.8v-5.6H233.6z"/>
		<path d="M236.3,1378.9h2.3c0.3,0,0.5,0,0.8,0c0.6,0.1,1.2,0.5,1.2,1.4c0,0.7-0.4,1.1-0.9,1.2c0.2,0.1,1,0.3,1,1.4
			c0,0.3,0,0.9-0.6,1.3c-0.4,0.3-0.8,0.3-1.7,0.3h-2.2V1378.9z M237,1379.6v1.7h1.2c0.9,0,1.3,0,1.5-0.4c0.1-0.2,0.1-0.3,0.1-0.5
			c0-0.8-0.8-0.8-1.1-0.8H237z M237,1381.9v2h1.7c0.4,0,0.5,0,0.7,0c0.5-0.1,0.7-0.5,0.7-0.9c0-0.7-0.5-0.9-0.5-0.9
			c-0.2-0.1-0.4-0.1-1.1-0.1H237z"/>
		<path d="M243.3,1378.9h2.3c0.3,0,0.5,0,0.8,0c0.6,0.1,1.2,0.5,1.2,1.4c0,0.7-0.4,1.1-0.9,1.2c0.2,0.1,1,0.3,1,1.4
			c0,0.3,0,0.9-0.6,1.3c-0.4,0.3-0.8,0.3-1.7,0.3h-2.2V1378.9z M244,1379.6v1.7h1.2c0.9,0,1.3,0,1.5-0.4c0.1-0.2,0.1-0.3,0.1-0.5
			c0-0.8-0.8-0.8-1.1-0.8H244z M244,1381.9v2h1.7c0.4,0,0.5,0,0.7,0c0.5-0.1,0.7-0.5,0.7-0.9c0-0.7-0.5-0.9-0.5-0.9
			c-0.2-0.1-0.4-0.1-1.1-0.1H244z"/>
		<path d="M253,1384.7c-1.7,0-2.8-1.2-2.8-3c0-2.1,1.4-3,2.8-3c1.6,0,2.8,1.1,2.8,2.9C255.8,1383.4,254.8,1384.7,253,1384.7z
			 M253,1379.4c-1.4,0-2,1.1-2,2.4c0,1.2,0.6,2.4,2,2.4c1.5,0,2-1.3,2-2.4C255,1380.3,254.3,1379.4,253,1379.4z"/>
		<path d="M262.6,1378.9v5.6H262l-3.1-4.6l0.1,4.6h-0.7v-5.6h0.7l3.1,4.5l0-4.5H262.6z"/>
	</g>
</g>
</svg>
