<?xml version="1.0" encoding="utf-8"?>
<!-- Generator: Adobe Illustrator 21.1.0, SVG Export Plug-In . SVG Version: 6.00 Build 0)  -->
<svg version="1.1" xmlns="http://www.w3.org/2000/svg" xmlns:xlink="http://www.w3.org/1999/xlink" x="0px" y="0px"
	 viewBox="0 0 1280 6631" style="enable-background:new 0 0 1280 6631;" xml:space="preserve">
<style type="text/css">
	.st0{display:none;}
	.st1{display:inline;fill:#F2EDEA;}
	.st2{display:inline;}
	.st3{opacity:0.82;}
	.st4{clip-path:url(#SVGID_12_);}
	.st5{display:inline;fill:url(#SVGID_29_);}
	.st6{clip-path:url(#SVGID_37_);}
	.st7{fill:#F2EDEA;}
	.st8{clip-path:url(#SVGID_61_);}
	.st9{clip-path:url(#SVGID_67_);}
	.st10{clip-path:url(#SVGID_71_);}
	.st11{clip-path:url(#SVGID_73_);}
	.st12{font-family:'AkzidenzGroteskBE-Regular';}
	.st13{font-size:9px;}
	.st14{letter-spacing:2;}
	.st15{fill:none;stroke:#000000;stroke-miterlimit:10;}
	.st16{letter-spacing:1;}
	.st17{clip-path:url(#SVGID_75_);}
	.st18{fill:#FFEC00;}
	.st19{fill:#FF0000;}
</style>
<g id="Layer_1" class="st0">
	<rect y="5899" class="st1" width="1279" height="732"/>
	<rect y="3969" class="st1" width="1279" height="852"/>
	<g class="st2">
		<defs>
			<rect id="SVGID_1_" y="953" width="1280" height="988"/>
		</defs>
		<clipPath id="SVGID_2_">
			<use xlink:href="#SVGID_1_"  style="overflow:visible;"/>
		</clipPath>
		<g transform="matrix(1 0 0 1 -3.814697e-06 0)" style="clip-path:url(#SVGID_2_);">
			
				<image style="overflow:visible;" width="2000" height="1500" xlink:href="D0A65A0DD63352FE.jpg"  transform="matrix(0.6845 0 0 0.6845 -44.5 890.2436)">
			</image>
		</g>
	</g>
	<g class="st2">
		<defs>
			<rect id="SVGID_3_" y="132" width="1280" height="913"/>
		</defs>
		<clipPath id="SVGID_4_">
			<use xlink:href="#SVGID_3_"  style="overflow:visible;"/>
		</clipPath>
		<g transform="matrix(1 0 0 1 0 -7.629395e-06)" style="clip-path:url(#SVGID_4_);">
			
				<image style="overflow:visible;" width="2000" height="1500" xlink:href="D0A65A0DD6335302.jpg"  transform="matrix(0.677 0 0 0.677 -37 122.25)">
			</image>
		</g>
	</g>
	<rect class="st1" width="1280" height="240"/>
	<rect x="12" y="132" class="st1" width="151" height="67"/>
	<polyline class="st1" points="87.5,50 163,50 163,95 12,95 12,50 87.5,50 	"/>
	<g class="st2">
		<g>
			<defs>
				<rect id="SVGID_5_" y="1845" width="1280" height="749"/>
			</defs>
			<clipPath id="SVGID_6_">
				<use xlink:href="#SVGID_5_"  style="overflow:visible;"/>
			</clipPath>
			<g transform="matrix(1 0 0 1 0 -1.220703e-04)" style="clip-path:url(#SVGID_6_);">
				
					<image style="overflow:visible;" width="2000" height="1500" xlink:href="D0A65A0DD6335305.jpg"  transform="matrix(0.727 0 0 0.727 -69 1671)">
				</image>
			</g>
		</g>
		<g class="st3">
			<defs>
				<rect id="SVGID_7_" x="941" y="1883" class="st3" width="339" height="316"/>
			</defs>
			<clipPath id="SVGID_8_">
				<use xlink:href="#SVGID_7_"  style="overflow:visible;"/>
			</clipPath>
			<g transform="matrix(1 0 0 1 0 -1.220703e-04)" style="clip-path:url(#SVGID_8_);">
				
					<image style="overflow:visible;" width="2000" height="1500" xlink:href="D0A65A0DD6335306.jpg"  transform="matrix(0.727 0 0 0.727 -69 1671)">
				</image>
			</g>
		</g>
	</g>
	<g class="st2">
		<defs>
			<rect id="SVGID_9_" y="2588" width="1280" height="854"/>
		</defs>
		<clipPath id="SVGID_10_">
			<use xlink:href="#SVGID_9_"  style="overflow:visible;"/>
		</clipPath>
		<g transform="matrix(1 0 0 1 0 0)" style="clip-path:url(#SVGID_10_);">
			
				<image style="overflow:visible;" width="2000" height="1500" xlink:href="D0A65A0DD6335304.jpg"  transform="matrix(0.694 1.111565e-02 -1.111565e-02 0.694 -42.3265 2418)">
			</image>
		</g>
	</g>
	<rect x="405" y="2583" class="st1" width="181" height="170"/>
	<g class="st2">
		<defs>
			<rect id="SVGID_11_" x="419" y="2564.1" width="178" height="143.9"/>
		</defs>
		<clipPath id="SVGID_12_">
			<use xlink:href="#SVGID_11_"  style="overflow:visible;"/>
		</clipPath>
		<g class="st4">
			<defs>
				<rect id="SVGID_13_" x="-20.1" y="2533.2" width="1364.3" height="910.3"/>
			</defs>
			<clipPath id="SVGID_14_">
				<use xlink:href="#SVGID_13_"  style="overflow:visible;"/>
			</clipPath>
			<g style="clip-path:url(#SVGID_14_);">
				
					<image style="overflow:visible;" width="2000" height="1500" xlink:href="D0A65A0DD6335303.jpg"  transform="matrix(0.7397 1.184782e-02 -1.184782e-02 0.7397 -65.2522 2352)">
				</image>
			</g>
		</g>
	</g>
	<g class="st2">
		<defs>
			<path id="SVGID_15_" d="M738.8,3253.6c-11.8-12.9-18-32.2-11.6-48.6c4.8-12.4,16-21.5,28.4-26.3c12.4-4.8,25.9-5.6,39.2-5.4
				c12.8,0.2,27.3,2.4,34.2,13.1c4.4,6.9,4.5,15.6,3.4,23.7c-3.2,23.2-16,46.5-34.9,60.7C778.1,3285.3,753.8,3270,738.8,3253.6z"/>
		</defs>
		<clipPath id="SVGID_16_">
			<use xlink:href="#SVGID_15_"  style="overflow:visible;"/>
		</clipPath>
		<g style="clip-path:url(#SVGID_16_);">
			
				<image style="overflow:visible;" width="5842" height="7800" xlink:href="D0A65A0DD633530D.jpg"  transform="matrix(0.1267 2.671048e-02 -2.671048e-02 0.1267 503.5734 3076.2988)">
			</image>
		</g>
	</g>
	<g class="st2">
		<defs>
			<path id="SVGID_17_" d="M329.6,2620.4c-7.4,2.2-15.1,4-22.7,2.9c-7.6-1.1-15.2-5.7-17.8-12.9c-1.7-4.8-1.2-10-0.4-15
				c3.5-22.9,11.5-46.2,28.3-62.2c17.9-16.9,44.3-23.4,68.5-19.4c24.3,4,46.4,17.6,63,35.7c5.1,5.5,9.9,13.5,6,19.9
				c-1.8,3-5.2,4.7-8.4,6.2C406.9,2594.6,371.1,2607.8,329.6,2620.4z"/>
		</defs>
		<clipPath id="SVGID_18_">
			<use xlink:href="#SVGID_17_"  style="overflow:visible;"/>
		</clipPath>
		<g transform="matrix(1 -2.980232e-08 2.980232e-08 1 -7.629395e-05 0)" style="clip-path:url(#SVGID_18_);">
			
				<image style="overflow:visible;" width="5842" height="7800" xlink:href="D0A65A0DD633530E.jpg"  transform="matrix(0.1003 5.630923e-02 -5.630923e-02 0.1003 160.6572 2175.717)">
			</image>
		</g>
	</g>
	<g class="st2">
		<defs>
			<path id="SVGID_19_" d="M1280,4027H0c0,0,0-783.5,0-785c0,0,90.1,0,94.9,0c32.3,0,67.3-4.6,98.1,4.5c36,10.6,71.4,23.6,107,35.4
				c26.4,8.7,53,17.5,80.7,20.2c45.1,4.4,90-7.4,133.6-19.9c71-20.3,143.1-21,196.9,38.9c7.6,8.5,14.4,18.4,24.6,23.6
				c17.5,9,38.5,1.3,56.5-6.5c27.4-11.9,56.1-30.5,84.4-38.2c32.6-8.9,70.8-8,104.4-13.5c51.2-8.3,102-19,152.2-32.1
				c50.3-13.1,94.5-12.6,146.7-12.6V4027z"/>
		</defs>
		<clipPath id="SVGID_20_">
			<use xlink:href="#SVGID_19_"  style="overflow:visible;"/>
		</clipPath>
		<g style="clip-path:url(#SVGID_20_);">
			
				<image style="overflow:visible;" width="2000" height="1500" xlink:href="D0A65A0DD633530C.jpg"  transform="matrix(0.6875 0 0 0.6875 -50 3075.4919)">
			</image>
		</g>
	</g>
	<g class="st2">
		<defs>
			<path id="SVGID_21_" d="M622,4723h641v-687c0,0-48.2,0-50.7,0c-33.1,0-60.9,5.6-93-4.4c-32.6-10.2-62.8-10.1-92.7-26.4
				c-24.3-13.2-44.5-31.8-70.3-40.8c-1.3-2.4-2.6-4.9-3.9-7.3c-5.8-1.7-11.7-3.5-17.5-5.2c-5.6-1.6-11.2-3.3-16.9-3.8
				c-10.1-0.9-20.2,1.8-30,4.4c-20.1,5.4-38.3,8-53.7,21.9c-17.4,15.7-35.3,29.3-54.1,43.5c-10.9,7.8-158.1,18.1-158.1,18.1
				s0,169,0,339.3c0,6.3-69,12.6-69,18.9c0,99.9,0,198.1,0,260.6c0,4,69,7.9,69,11.6C622,4701.1,622,4723,622,4723z"/>
		</defs>
		<clipPath id="SVGID_22_">
			<use xlink:href="#SVGID_21_"  style="overflow:visible;"/>
		</clipPath>
		<g transform="matrix(1 0 0 1 0 2.441406e-04)" style="clip-path:url(#SVGID_22_);">
			
				<image style="overflow:visible;" width="2000" height="1500" xlink:href="280B03FFF56AFF01.jpg"  transform="matrix(0.6579 0 0 0.6579 -8.1474 3846.4377)">
			</image>
		</g>
	</g>
	<g class="st2">
		<defs>
			
				<rect id="SVGID_23_" x="228.2" y="3879.8" transform="matrix(2.449145e-02 -0.9997 0.9997 2.449145e-02 -3723.5029 4395.2007)" width="324.2" height="451.4"/>
		</defs>
		<clipPath id="SVGID_24_">
			<use xlink:href="#SVGID_23_"  style="overflow:visible;"/>
		</clipPath>
		<g transform="matrix(1 0 0 1 -1.144409e-05 2.441406e-04)" style="clip-path:url(#SVGID_24_);">
			
				<image style="overflow:visible;" width="2000" height="1500" xlink:href="280B03FFF56AFF07.jpg"  transform="matrix(0.6577 1.611293e-02 -1.611293e-02 0.6577 63.5349 3414.7173)">
			</image>
		</g>
	</g>
	<g class="st2">
		<defs>
			<rect id="SVGID_25_" x="103" y="4269" width="460" height="247"/>
		</defs>
		<clipPath id="SVGID_26_">
			<use xlink:href="#SVGID_25_"  style="overflow:visible;"/>
		</clipPath>
		<g transform="matrix(1 0 0 1 0 0)" style="clip-path:url(#SVGID_26_);">
			
				<image style="overflow:visible;" width="2000" height="1500" xlink:href="280B03FFF56AFF00.jpg"  transform="matrix(0.6579 0 0 0.6579 -66.3901 3993.9858)">
			</image>
		</g>
	</g>
	<g class="st2">
		<defs>
			<rect id="SVGID_27_" y="4660" width="1279" height="667"/>
		</defs>
		<clipPath id="SVGID_28_">
			<use xlink:href="#SVGID_27_"  style="overflow:visible;"/>
		</clipPath>
		<g style="clip-path:url(#SVGID_28_);">
			
				<image style="overflow:visible;" width="2000" height="1500" xlink:href="280B03FFF56AFF03.jpg"  transform="matrix(0.7412 0 0 0.7412 -101.2634 4402.8721)">
			</image>
		</g>
	</g>
	
		<linearGradient id="SVGID_29_" gradientUnits="userSpaceOnUse" x1="1385" y1="4796" x2="1385" y2="4641" gradientTransform="matrix(-1 0 0 -1 2576 9437)">
		<stop  offset="0" style="stop-color:#F2EDEA"/>
		<stop  offset="1" style="stop-color:#F2EDEA;stop-opacity:0.3"/>
	</linearGradient>
	<rect x="1102" y="4641" class="st5" width="178" height="155"/>
	<g class="st2">
		<defs>
			<path id="SVGID_30_" d="M1136.8,4023.1c8.8,9.5,11.1,23.3,10.8,36.3c-0.2,12.9-2.6,25.9-1.3,38.8c-10.6,1.4-21.3,2.9-31.9,4.3
				c-4.2,0.6-8.5,1.1-12.5,0c-12.2-3.5-14.9-19-21.4-29.9c-8.1-13.6-23.4-20.9-34.6-31.9c-11.1-10.9-18.4-25.8-31.5-34.2
				c-4-2.6-8.5-4.5-12.3-7.4c-10.4-8-13.8-22-16.5-34.9c8.5-8,10.9-24,22.5-25.3c7-0.8,12.9,4.7,19.5,7c17.7,6,37.4-11.7,54.9-5
				c5.8,2.2,10.3,6.9,14.1,11.8c6.6,8.6,11.6,18.5,14.6,29c2.6,9.4,3.9,19.6,9.9,27.2C1125.5,4014.4,1132,4018,1136.8,4023.1z"/>
		</defs>
		<clipPath id="SVGID_31_">
			<use xlink:href="#SVGID_30_"  style="overflow:visible;"/>
		</clipPath>
		<g transform="matrix(1 1.490116e-08 -1.490116e-08 1 6.103516e-05 0)" style="clip-path:url(#SVGID_31_);">
			
				<image style="overflow:visible;" width="5842" height="7800" xlink:href="280B03FFF56AFF1F.jpg"  transform="matrix(7.786708e-02 -1.881460e-02 1.881460e-02 7.786708e-02 766.6432 3785.9031)">
			</image>
		</g>
	</g>
	<g class="st2">
		<defs>
			<path id="SVGID_32_" d="M428.3,4529.7c25.5-1.7,63.4,0.1,86.8,11.5c21.4,10.3,18,31.5,18.1,52.6c0.1,12.5-0.3,26.2-8.3,35.8
				c-4.7,5.6-11.5,9-18,12.2c-4.5,2.2-9,4.5-13.6,6.7c-3.6,1.8-7.3,3.6-11.4,4.2c-14.7,2-38.8-8.6-54.4-10.8
				c-22.6-3.2-45.2-6.8-67.7-10.2c-3.9-0.6-8-1.3-10.7-4.2c-3.2-3.4-3.2-8.5-3-13.1c1.4-27,5.8-53.9,13.1-80
				C382.1,4538.2,405.2,4531.2,428.3,4529.7z"/>
		</defs>
		<clipPath id="SVGID_33_">
			<use xlink:href="#SVGID_32_"  style="overflow:visible;"/>
		</clipPath>
		<g transform="matrix(1 -1.862645e-09 1.862645e-09 1 0 4.882812e-04)" style="clip-path:url(#SVGID_33_);">
			
				<image style="overflow:visible;" width="5842" height="7800" xlink:href="280B03FFF56AFF02.jpg"  transform="matrix(0.1579 3.254385e-03 -3.254385e-03 0.1579 319.8949 4308.5371)">
			</image>
		</g>
	</g>
	<g class="st2">
		<defs>
			<polygon id="SVGID_34_" points="0,6011 1279,6011 1279,5238 1140,5238 1133,5194 869.7,5194 865.7,5271 685,5271 667,5238 
				443.6,5238 421.1,5304 0,5304 			"/>
		</defs>
		<clipPath id="SVGID_35_">
			<use xlink:href="#SVGID_34_"  style="overflow:visible;"/>
		</clipPath>
		<g style="clip-path:url(#SVGID_35_);">
			
				<image style="overflow:visible;" width="2000" height="1500" xlink:href="280B03FFF56AFF05.jpg"  transform="matrix(0.718 0 0 0.718 -25 5000.125)">
			</image>
		</g>
	</g>
	<g class="st2">
		<defs>
			<rect id="SVGID_36_" x="90" y="5262" width="319" height="398"/>
		</defs>
		<clipPath id="SVGID_37_">
			<use xlink:href="#SVGID_36_"  style="overflow:visible;"/>
		</clipPath>
		<g class="st6">
			<defs>
				<polygon id="SVGID_38_" points="0,5969 1279,5969 1279,5196 1140,5196 1133,5152 869.7,5152 865.7,5229 685,5229 667,5196 
					443.6,5196 421.1,5262 0,5262 				"/>
			</defs>
			<clipPath id="SVGID_39_">
				<use xlink:href="#SVGID_38_"  style="overflow:visible;"/>
			</clipPath>
			<g style="clip-path:url(#SVGID_39_);">
				
					<image style="overflow:visible;" width="2000" height="1500" xlink:href="280B03FFF56AFF06.jpg"  transform="matrix(0.718 0 0 0.718 -25 4958.125)">
				</image>
			</g>
		</g>
	</g>
	<rect x="90" y="5660" class="st1" width="319" height="103"/>
	<g class="st2">
		<defs>
			<path id="SVGID_40_" d="M1193,6431H495v-605c47,0,93.3,0,140,0c45.3,0,90.6,0,135.8,0c19,0,36.8-5.1,53.5,5.1
				c15.8,9.6,27.8,25.2,37.4,40.6c3.4,5.5,6.7,11.2,12.1,14.8c5.1,3.4,11.4,4.4,17.5,4.7c21.3,1,43-6.2,59.4-19.8
				c6.4-5.3,12-11.5,18.3-17c38.2-33.5,93.4-28.4,140.8-28.4c4.4,0,83.2,0,83.2,0C1193,5827.3,1193,6431,1193,6431z"/>
		</defs>
		<clipPath id="SVGID_41_">
			<use xlink:href="#SVGID_40_"  style="overflow:visible;"/>
		</clipPath>
		<g style="clip-path:url(#SVGID_41_);">
			
				<image style="overflow:visible;" width="6000" height="4500" xlink:href="280B03FFF56AFF04.jpg"  transform="matrix(0.1543 0 0 0.1543 379.6868 5779.5859)">
			</image>
		</g>
	</g>
	<g class="st2">
		<defs>
			<path id="SVGID_42_" d="M2.4,6299.4c-5.4-19.8-4.6-40.7-3.8-61.2c2.9-72.2,6.7-147.5,41.9-210.5c25.4-45.4,66.7-83.8,76.3-135
				c9.6-51.2-10.4-131,63.6-130.3c64.5,0.6,124.2,40.5,188.7,38.7c23-0.6,46.4-6.6,68.6-0.7c15.3,4.1,28.6,13.4,40.7,23.6
				c35.2,29.4,42.3,67,60.9,105.3c6.9,14.2,5.3,30.9,3,46.6c-9.2,62.2-26.3,123.3-50.9,181.2c-11.6,60.4,4.8,125.3-17,182.8
				c-8.6,22.6-22.6,42.6-37,62.1c-9.5,12.9-19.7,26-33.5,34.1c-14.1,8.2-30.8,10.6-47,12.5c-66.5,7.8-133.5,10.9-200.4,9.2
				c-33-0.8-69.2-4.1-92.7-27.3c-20.4-20.1-26.3-50.2-37.5-76.5C18.4,6335.7,7.6,6318.6,2.4,6299.4z"/>
		</defs>
		<clipPath id="SVGID_43_">
			<use xlink:href="#SVGID_42_"  style="overflow:visible;"/>
		</clipPath>
		<g transform="matrix(1 0 0 1 0 0)" style="clip-path:url(#SVGID_43_);">
			
				<image style="overflow:visible;" width="6000" height="4500" xlink:href="280B03FFF56AFF0C.jpg"  transform="matrix(-0.1945 -8.819388e-03 8.819388e-03 -0.1945 1083.5675 6565.1279)">
			</image>
		</g>
	</g>
	<g class="st2">
		<defs>
			<path id="SVGID_44_" d="M282.6,5734.8c8.4,15.7,29.4,19.1,47.2,17.9c1.1,8.9,0,18.1,2.1,26.9s8.9,17.4,17.9,17.6
				c4.3,0.1,8.4-1.8,12.3-3.7c13.1-6.2,27.4-13.7,32.3-27.3c4.5-17.5,2.1-36.7-6.6-52.6c-3.7-6.8-8.6-13-13.4-19.1
				c-4.7-6.1-9.6-12.2-15.8-16.7c-11.3-8.1-26.5-10.1-39.8-6.1c-13.3,4-24.7,13.5-32,25.3C279.8,5708.2,276.4,5723,282.6,5734.8z"/>
		</defs>
		<clipPath id="SVGID_45_">
			<use xlink:href="#SVGID_44_"  style="overflow:visible;"/>
		</clipPath>
		<g transform="matrix(1 -2.980232e-08 2.980232e-08 1 -6.103516e-05 0)" style="clip-path:url(#SVGID_45_);">
			
				<image style="overflow:visible;" width="5842" height="7800" xlink:href="280B03FFF56AFF24.jpg"  transform="matrix(-0.1052 4.536605e-02 -4.536605e-02 -0.1052 991.2659 5997.2251)">
			</image>
		</g>
	</g>
</g>
<g id="Layer_4">
	<g id="HappyMenocal_x5F_Website_x5F_Initial_x5F_STATIONERY-01.tif_1_">
		<g id="HappyMenocal_x5F_Website_x5F_Initial_x5F_STATIONERY-01.tif">
			
				<image style="overflow:visible;" width="5334" height="27630" id="HappyMenocal_x5F_Website_x5F_Initial_x5F_STATIONERY-01" xlink:href="280B03FFF56AFF24.png"  transform="matrix(0.24 0 0 0.24 -8.000000e-02 0)">
			</image>
		</g>
	</g>
	<g>
		<defs>
			<path id="SVGID_48_" d="M659.7,4037.6c-7.9-1.5-16.8-4.7-19.1-12.4c-1-3.5-0.4-7.3,0.3-10.9c1.9-10.4,3.8-20.8,5.8-31.2
				c0.8-4.3,1.8-9,5.1-12c2.2-2,5.2-2.8,8-3.6c17.7-4.8,36.3-9,54.1-4.7c17.8,4.3,34.2,19.5,34,37.8c-0.1,10.2-5.5,20.1-13.4,26.6
				C715.5,4042.8,682.5,4041.9,659.7,4037.6z"/>
		</defs>
		<clipPath id="SVGID_47_">
			<use xlink:href="#SVGID_48_"  style="overflow:visible;"/>
		</clipPath>
	</g>
	<g>
		<defs>
			<path id="SVGID_50_" d="M1182.1,6459.1c9.5-12.6,11.1-29.3,11.6-45.1c0.4-13.2,0.3-26.3-0.4-39.5c-0.7-13.2-2-26.6-7.6-38.6
				c-5.5-12-16-22.4-29-24.7c-11.5-2-22.9,2.4-33.7,6.8c-2.7,1.1-5.4,2.2-7.5,4.3c-2.8,2.8-3.8,6.8-4.8,10.6
				c-2.1,8.6-4.3,17.3-6.4,25.9c-1.2,4.7-2.4,9.5-4.6,13.9c-3.7,7-10,12.3-13.8,19.2c-7.7,14-3.3,32.2,6.5,44.9
				C1111.2,6461.1,1157.1,6492.5,1182.1,6459.1z"/>
		</defs>
		<clipPath id="SVGID_49_">
			<use xlink:href="#SVGID_50_"  style="overflow:visible;"/>
		</clipPath>
	</g>
	<g>
		<defs>
			<path id="SVGID_56_" d="M1083.9,6354.8c-0.5,0.8-1.1,1.6-1.7,2.3c-18.8,23.7-55.5,16-85.5,19.7c-43.3,5.3-78.5,38.1-120.9,48.3
				c-78.3,18.7-167.4,5.9-247.4,5.9c-7.2,0-133.4,0-133.4,0c0-171.3-2.3-334.7,60.1-497.7c3.9-10.3,8.3-20.9,16.6-28.1
				c23.8-20.8,60.7-2.3,92.2-5.7c60.3-6.4,92.8-109.4,160.5-68.5c15.8,9.6,27.8,25.2,37.4,40.6c3.4,5.5,6.7,11.2,12.1,14.8
				c5.1,3.4,11.4,4.4,17.5,4.7c21.3,1,43-6.2,59.4-19.8c6.4-5.3,12-11.5,18.3-17c38.2-33.5,93.4-28.4,140.8-28.4
				c4.4,0,83.2,0,83.2,0c0,0,0,152,0,161.1c0,94.6,5.1,186.8-30,276.8c-2,5.2-4.3,10.6-8.5,14.3c-10,8.9-25.9,5-38,10.6
				C1093.6,6299.4,1098,6333.9,1083.9,6354.8z"/>
		</defs>
		<clipPath id="SVGID_51_">
			<use xlink:href="#SVGID_56_"  style="overflow:visible;"/>
		</clipPath>
	</g>
	<g>
		<defs>
			<path id="SVGID_60_" d="M2421.5,4027.6c-2.1-0.8-4-2-5.4-3.8c-2.1-2.6-2.9-6.3-5.3-8.6c-1.6-1.5-3.7-2.3-5.8-3
				c-15.6-4.6-40.3,1.9-49.8-16c-2.3-4.3-2.6-9.3-2.9-14.1c-0.7-11.3-0.8-24.3,7.6-31.8c6.2-5.5,15.1-6.4,23.4-6.9
				c18.4-1.2,37-2.2,55.2,0.9c18.2,3.1,36.2,10.7,48.6,24.4c15.6,17.2,20.5,41.5,33.4,60.7c9.2,13.7,22.3,24.6,31,38.6
				c8.8,14,12.2,33.7,1.5,46.2c-8.2,9.7-28.6,16.6-41.1,13.4c-12-3.1-15.4-16.2-22-25.1c-9.9-13.4-18.4-24.8-24.5-40.7
				c-5.5-14.4-15.1-28.3-31.1-31.6C2430,4029.4,2425.4,4029.1,2421.5,4027.6z"/>
		</defs>
		<clipPath id="SVGID_53_">
			<use xlink:href="#SVGID_60_"  style="overflow:visible;"/>
		</clipPath>
		<g id="HappyMenocal_x5F_Website_x5F_Initial_x5F_STATIONERY-01.tif_2_" style="clip-path:url(#SVGID_53_);">
			<g id="HappyMenocal_x5F_Website_x5F_Initial_x5F_STATIONERY-01.tif_3_">
				
					<image style="overflow:visible;" width="5334" height="27630" id="HappyMenocal_x5F_Website_x5F_Initial_x5F_STATIONERY-01_1_" xlink:href="280B03FFF56AFF25.png"  transform="matrix(0.2387 -2.531935e-02 2.531935e-02 0.2387 961.0253 146.0596)">
				</image>
			</g>
		</g>
	</g>
	<g>
		<defs>
			<path id="SVGID_66_" d="M-317.5,4027.6c-2.1-0.8-4-2-5.4-3.8c-2.1-2.6-2.9-6.3-5.3-8.6c-1.6-1.5-3.7-2.3-5.8-3
				c-15.6-4.6-40.3,1.9-49.8-16c-2.3-4.3-2.6-9.3-2.9-14.1c-0.7-11.3-0.8-24.3,7.6-31.8c6.2-5.5,15.1-6.4,23.4-6.9
				c18.4-1.2,37-2.2,55.2,0.9c18.2,3.1,36.2,10.7,48.6,24.4c15.6,17.2,20.5,41.5,33.4,60.7c9.2,13.7,22.3,24.6,31,38.6
				c8.8,14,12.2,33.7,1.5,46.2c-8.2,9.7-28.6,16.6-41.1,13.4c-12-3.1-15.4-16.2-22-25.1c-9.9-13.4-18.4-24.8-24.5-40.7
				c-5.5-14.4-15.1-28.3-31.1-31.6C-309,4029.4-313.6,4029.1-317.5,4027.6z"/>
		</defs>
		<clipPath id="SVGID_55_">
			<use xlink:href="#SVGID_66_"  style="overflow:visible;"/>
		</clipPath>
		<g id="HappyMenocal_x5F_Website_x5F_Initial_x5F_STATIONERY-01.tif_8_" style="clip-path:url(#SVGID_55_);">
			<g id="HappyMenocal_x5F_Website_x5F_Initial_x5F_STATIONERY-01.tif_9_">
				
					<image style="overflow:visible;" width="5334" height="27630" id="HappyMenocal_x5F_Website_x5F_Initial_x5F_STATIONERY-01_4_" xlink:href="280B03FFF56AFF2B.png"  transform="matrix(0.2387 -2.531935e-02 2.531935e-02 0.2387 -1777.9747 146.0596)">
				</image>
			</g>
		</g>
	</g>
	<path class="st7" d="M978.1,3966.4c-4.5-6.2-7.4-13.9-6.3-21.5c1-6.7,4.9-12.6,8.7-18.2c2.5-3.7,5.2-7.5,9-9.8
		c4.8-2.9,10.7-2.9,16.3-2.9c50.1,0.3,100.9,0.7,149.1,14.3c6.2,1.8,12.6,3.9,17.4,8.2c4.4,4,7,9.6,8.9,15.2c7,21,5.1,43.9,0.1,65.5
		c-0.9,3.8-1.9,7.6-4.3,10.6c-3.9,5-10.7,6.6-16.9,7.5c-17.5,2.6-35.5,2.5-53-0.5c-2.7-0.5-5.5-1-7.9-2.3c-2.9-1.6-5.1-4.2-7.4-6.6
		c-14.8-15.4-35.7-22.9-55.8-29.9C1015.1,3988.9,991.7,3985.2,978.1,3966.4z"/>
	<g>
		<defs>
			<path id="SVGID_70_" d="M1038.5,4027.6c-2.1-0.8-4-2-5.4-3.8c-2.1-2.6-2.9-6.3-5.3-8.6c-1.6-1.5-3.7-2.3-5.8-3
				c-15.6-4.6-40.3,1.9-49.8-16c-2.3-4.3-2.6-9.3-2.9-14.1c-0.7-11.3-0.8-24.3,7.6-31.8c6.2-5.5,15.1-6.4,23.4-6.9
				c18.4-1.2,37-2.2,55.2,0.9c18.2,3.1,36.2,10.7,48.6,24.4c15.6,17.2,20.5,41.5,33.4,60.7c9.2,13.7,22.3,24.6,31,38.6
				c8.8,14,12.2,33.7,1.5,46.2c-8.2,9.7-28.6,16.6-41.1,13.4c-12-3.1-15.4-16.2-22-25.1c-9.9-13.4-18.4-24.8-24.5-40.7
				c-5.5-14.4-15.1-28.3-31.1-31.6C1047,4029.4,1042.4,4029.1,1038.5,4027.6z"/>
		</defs>
		<clipPath id="SVGID_57_">
			<use xlink:href="#SVGID_70_"  style="overflow:visible;"/>
		</clipPath>
		<g id="HappyMenocal_x5F_Website_x5F_Initial_x5F_STATIONERY-01.tif_6_" style="clip-path:url(#SVGID_57_);">
			<g id="HappyMenocal_x5F_Website_x5F_Initial_x5F_STATIONERY-01.tif_7_">
				
					<image style="overflow:visible;" width="5334" height="27630" id="HappyMenocal_x5F_Website_x5F_Initial_x5F_STATIONERY-01_3_" xlink:href="280B03FFF56AFF2C.png"  transform="matrix(0.2387 -2.531935e-02 2.531935e-02 0.2387 -421.9747 146.0596)">
				</image>
			</g>
		</g>
	</g>
</g>
<g id="captions">
</g>
<g id="nav">
	<rect x="17" y="55" class="st7" width="152" height="40"/>
	<rect x="17" y="129" class="st7" width="152" height="56"/>
	<g>
		<defs>
			<rect id="SVGID_72_" x="584" y="38" width="112" height="117"/>
		</defs>
		<clipPath id="SVGID_59_">
			<use xlink:href="#SVGID_72_"  style="overflow:visible;"/>
		</clipPath>
		<g id="HMS_x5F_LOGO_x5F_for_x5F_stitch.psd" style="clip-path:url(#SVGID_59_);">
			
				<image style="overflow:visible;" width="1639" height="1848" id="HMS_x5F_LOGO_x5F_for_x5F_stitch_2_" xlink:href="280B03FFF56AFF2F.png"  transform="matrix(7.075558e-02 0 0 7.075558e-02 580.1649 32.0498)">
			</image>
		</g>
	</g>
	<g>
		<text transform="matrix(1 0 0 1 1174.9829 72.1328)" class="st12 st13 st14">about</text>
	</g>
	<g>
		<text transform="matrix(1 0 0 1 63.0256 72.1328)" class="st12 st13 st14">menu</text>
	</g>
	<g>
		<text transform="matrix(1 0 0 1 63.0256 123.4858)"><tspan x="0" y="0" class="st12 st13 st14">custom emblems</tspan><tspan x="0" y="30" class="st12 st13 st14">stationery</tspan><tspan x="0" y="60" class="st12 st13 st14">special projects</tspan><tspan x="0" y="90" class="st12 st13 st14">maison</tspan></text>
	</g>
	<rect x="45" y="96.5" class="st7" width="181.9" height="38"/>
	<rect x="45" y="165.5" class="st7" width="181.9" height="38"/>
	<rect x="45" y="201.2" class="st7" width="181.9" height="68.5"/>
	<line class="st15" x1="63" y1="160.5" x2="136" y2="160.5"/>
	<g>
		<g>
			<text transform="matrix(0 -1 1 0 70.7183 6568.9814)"><tspan x="0" y="0" class="st12 st13 st14">©</tspan><tspan x="9.7" y="0" class="st12 st13 st14"> HA</tspan><tspan x="31.3" y="0" class="st12 st13 st14">P</tspan><tspan x="39.4" y="0" class="st12 st13 st14">PY </tspan><tspan x="59.8" y="0" class="st12 st13 st14">M</tspan><tspan x="69.7" y="0" class="st12 st13 st14">E</tspan><tspan x="77.8" y="0" class="st12 st13 st14">N</tspan><tspan x="86.6" y="0" class="st12 st13 st14">O</tspan><tspan x="96.3" y="0" class="st12 st13 st14">C</tspan><tspan x="105.2" y="0" class="st12 st13 st14">AL 20</tspan><tspan x="139.9" y="0" class="st12 st13 st16">1</tspan><tspan x="147" y="0" class="st12 st13">7</tspan></text>
		</g>
		<text transform="matrix(1 0 0 1 1144.3281 6568.9795)"><tspan x="0" y="0" class="st12 st13 st14">I</tspan><tspan x="4.7" y="0" class="st12 st13 st14">N</tspan><tspan x="13.5" y="0" class="st12 st13 st14">S</tspan><tspan x="21.6" y="0" class="st12 st13 st16">T</tspan><tspan x="27.8" y="0" class="st12 st13 st14">A</tspan><tspan x="35.6" y="0" class="st12 st13 st14">G</tspan><tspan x="45.6" y="0" class="st12 st13 st14">R</tspan><tspan x="53.8" y="0" class="st12 st13 st14">A</tspan><tspan x="61.9" y="0" class="st12 st13">M</tspan></text>
	</g>
	<text transform="matrix(0 1 -1 0 1208.7686 634.8662)" class="st12 st13 st14">happy menocal studio</text>
</g>
<g id="DEV_NOTES">
	<g>
		<rect x="5" y="254" class="st18" width="1270" height="779"/>
		<path class="st19" d="M1270,259v769H10V259H1270 M1280,249H0v789h1280V249L1280,249z"/>
	</g>
	<g>
		<rect x="5" y="1043" class="st18" width="1270" height="791"/>
		<path class="st19" d="M1270,1048v781H10v-781H1270 M1280,1038H0v801h1280V1038L1280,1038z"/>
	</g>
	<g>
		<rect x="5" y="1844" class="st18" width="1270" height="1112"/>
		<path class="st19" d="M1270,1849v1102H10V1849H1270 M1280,1839H0v1122h1280V1839L1280,1839z"/>
	</g>
	<g>
		<rect x="5" y="2966" class="st18" width="1270" height="1684"/>
		<path class="st19" d="M1270,2971v1674H10V2971H1270 M1280,2961H0v1694h1280V2961L1280,2961z"/>
	</g>
	<g>
		<rect x="5" y="4660" class="st18" width="1270" height="1783"/>
		<path class="st19" d="M1270,4665v1773H10V4665H1270 M1280,4655H0v1793h1280V4655L1280,4655z"/>
	</g>
</g>
<g id="Layer_6">
</g>
</svg>
