<?xml version="1.0" encoding="utf-8"?>
<!-- Generator: Adobe Illustrator 21.1.0, SVG Export Plug-In . SVG Version: 6.00 Build 0)  -->
<svg version="1.1" id="Layer_1" xmlns="http://www.w3.org/2000/svg" xmlns:xlink="http://www.w3.org/1999/xlink" x="0px" y="0px"
	 viewBox="0 0 1280 801" style="enable-background:new 0 0 1280 801;" xml:space="preserve">
<g>
	<g>
		<path d="M135.8,22.3h0.8l-1.7,5.6h-0.7l-1.5-4.7l-1.4,4.7h-0.8l-1.7-5.6h0.8l1.3,4.7l1.4-4.7h0.7l1.5,4.7L135.8,22.3z"/>
		<path d="M139.5,25.4v1.9h3.3V28h-4v-5.6h3.9V23h-3.2v1.7h2.8v0.7H139.5z"/>
		<path d="M145.8,27.3h2.7V28H145v-5.7h0.8V27.3z"/>
		<path d="M155.3,25.9c-0.2,1.1-1.1,2.2-2.8,2.2c-1.9,0-2.8-1.4-2.8-3c0-1.6,0.9-3,2.9-3c2,0,2.4,1.4,2.6,1.7l-0.8,0.2
			c-0.1-0.2-0.1-0.4-0.3-0.6c-0.3-0.3-0.8-0.7-1.5-0.7c-0.6,0-1.2,0.2-1.6,0.7c-0.4,0.4-0.5,1-0.5,1.6c0,1.4,0.7,2.4,2,2.4
			c0.8,0,1.7-0.5,1.9-1.7L155.3,25.9z"/>
		<path d="M160,28.1c-1.7,0-2.8-1.2-2.8-3c0-2.1,1.4-3,2.8-3c1.6,0,2.8,1.1,2.8,2.9C162.8,26.8,161.8,28.1,160,28.1z M160,22.8
			c-1.4,0-2,1.1-2,2.4c0,1.2,0.6,2.4,2,2.4c1.5,0,2-1.3,2-2.4C162,23.7,161.3,22.8,160,22.8z"/>
		<path d="M170.6,22.3V28h-0.7l0.1-4.7l-1.8,4.7h-0.6l-1.8-4.7l0.1,4.7h-0.7v-5.6h1l1.7,4.6l1.7-4.6H170.6z"/>
		<path d="M174,25.4v1.9h3.3V28h-4v-5.6h3.9V23H174v1.7h2.8v0.7H174z"/>
		<path d="M187.1,22.3V28h-0.7l-3.1-4.6l0.1,4.6h-0.7v-5.6h0.7l3.1,4.5l0-4.5H187.1z"/>
		<path d="M192.3,28.1c-1.7,0-2.8-1.2-2.8-3c0-2.1,1.4-3,2.8-3c1.6,0,2.8,1.1,2.8,2.9C195.2,26.8,194.2,28.1,192.3,28.1z
			 M192.3,22.8c-1.4,0-2,1.1-2,2.4c0,1.2,0.6,2.4,2,2.4c1.5,0,2-1.3,2-2.4C194.3,23.7,193.6,22.8,192.3,22.8z"/>
		<path d="M199,23v5h-0.8v-5h-1.7v-0.7h4.1V23H199z"/>
		<path d="M203.3,25.4v1.9h3.3V28h-4v-5.6h3.9V23h-3.2v1.7h2.8v0.7H203.3z"/>
		<path d="M212.7,25.3V28H212v-5.7h3.6V23h-2.9v1.7h2.7v0.7H212.7z"/>
		<path d="M220.1,28.1c-1.7,0-2.8-1.2-2.8-3c0-2.1,1.4-3,2.8-3c1.6,0,2.8,1.1,2.8,2.9C223,26.8,222,28.1,220.1,28.1z M220.2,22.8
			c-1.4,0-2,1.1-2,2.4c0,1.2,0.6,2.4,2,2.4c1.5,0,2-1.3,2-2.4C222.2,23.7,221.5,22.8,220.2,22.8z"/>
		<path d="M226.1,25.6V28h-0.7v-5.6h2.1c0.8,0,1.2,0,1.7,0.3c0.4,0.3,0.6,0.8,0.6,1.3c0,1.3-1.1,1.5-1.3,1.6L230,28h-0.9l-1.5-2.4
			H226.1z M226.1,24.9h1.5c0.2,0,0.5,0,0.7-0.1c0.5-0.1,0.7-0.5,0.7-0.9c0-0.1,0-0.5-0.3-0.8c-0.3-0.2-0.7-0.2-1.1-0.2h-1.5V24.9z"
			/>
		<path d="M238.3,26.2h-2.2l-0.6,1.7h-0.8l2.2-5.6h0.8l2.1,5.6H239L238.3,26.2z M238.1,25.6l-0.8-2.4l-0.9,2.4H238.1z"/>
		<path d="M135.8,36.3h0.8l-1.7,5.6h-0.7l-1.5-4.7l-1.4,4.7h-0.8l-1.7-5.6h0.8l1.3,4.7l1.4-4.7h0.7l1.5,4.7L135.8,36.3z"/>
		<path d="M139.5,39.4v1.9h3.3V42h-4v-5.6h3.9V37h-3.2v1.7h2.8v0.7H139.5z"/>
		<path d="M145.8,39.4v1.9h3.3V42h-4v-5.6h3.9V37h-3.2v1.7h2.8v0.7H145.8z"/>
		<path d="M153,39.2l-0.8,0.8v2h-0.8v-5.6h0.8v2.8l2.7-2.8h0.9l-2.3,2.3l2.4,3.3h-0.9L153,39.2z"/>
		<path d="M158.6,39.4v1.9h3.3V42h-4v-5.6h3.9V37h-3.2v1.7h2.8v0.7H158.6z"/>
		<path d="M168.6,36.3V42H168l-3.1-4.6l0.1,4.6h-0.7v-5.6h0.7l3.1,4.5l0-4.5H168.6z"/>
		<path d="M171.4,36.3h1.8c0.8,0,1.5,0,2.2,0.7c0.7,0.7,0.7,1.7,0.7,2.1c0,0.4,0,1.5-0.8,2.2c-0.7,0.6-1.4,0.6-1.9,0.6h-1.9V36.3z
			 M172.2,37v4.3h1c0.5,0,0.9,0,1.2-0.2c0.4-0.2,0.9-0.7,0.9-1.9c0-0.9-0.3-1.8-1.2-2.1c-0.3-0.1-0.6-0.1-1-0.1H172.2z"/>
		<path d="M184.3,42.1c-1.7,0-2.8-1.2-2.8-3c0-2.1,1.4-3,2.8-3c1.6,0,2.8,1.1,2.8,2.9C187.1,40.8,186.1,42.1,184.3,42.1z
			 M184.3,36.8c-1.4,0-2,1.1-2,2.4c0,1.2,0.6,2.4,2,2.4c1.5,0,2-1.3,2-2.4C186.3,37.7,185.6,36.8,184.3,36.8z"/>
		<path d="M193.9,36.3V42h-0.7l-3.1-4.6l0.1,4.6h-0.7v-5.6h0.7l3.1,4.5l0-4.5H193.9z"/>
		<path d="M201.7,37v5h-0.8v-5h-1.7v-0.7h4.1V37H201.7z"/>
		<path d="M209.1,39.4H206V42h-0.8v-5.7h0.8v2.4h3.1v-2.4h0.8V42h-0.8V39.4z"/>
		<path d="M213.4,39.4v1.9h3.3V42h-4v-5.6h3.9V37h-3.2v1.7h2.8v0.7H213.4z"/>
		<path d="M225.1,40.2h-2.2l-0.6,1.7h-0.8l2.2-5.6h0.8l2.1,5.6h-0.8L225.1,40.2z M224.9,39.6l-0.8-2.4l-0.9,2.4H224.9z"/>
		<path d="M233.8,36.3V42H233l0.1-4.7l-1.8,4.7h-0.6l-1.8-4.7l0.1,4.7h-0.7v-5.6h1l1.7,4.6l1.7-4.6H233.8z"/>
		<path d="M239.2,40.2H237l-0.6,1.7h-0.8l2.2-5.6h0.8l2.1,5.6h-0.8L239.2,40.2z M238.9,39.6l-0.8-2.4l-0.9,2.4H238.9z"/>
		<path d="M243.2,41.3h2.7V42h-3.5v-5.7h0.8V41.3z"/>
		<path d="M248.6,39.3V42h-0.8v-5.7h3.6V37h-2.9v1.7h2.7v0.7H248.6z"/>
		<path d="M254.2,36.3V42h-0.8v-5.6H254.2z"/>
		<path d="M265.3,39.9c-0.2,1.1-1.1,2.2-2.8,2.2c-1.9,0-2.8-1.4-2.8-3c0-1.6,0.9-3,2.9-3c2,0,2.4,1.4,2.6,1.7l-0.8,0.2
			c-0.1-0.2-0.1-0.4-0.3-0.6c-0.3-0.3-0.8-0.7-1.5-0.7c-0.6,0-1.2,0.2-1.6,0.7c-0.4,0.4-0.5,1-0.5,1.6c0,1.4,0.7,2.4,2,2.4
			c0.8,0,1.7-0.5,1.9-1.7L265.3,39.9z"/>
		<path d="M269.9,42.1c-1.7,0-2.8-1.2-2.8-3c0-2.1,1.4-3,2.8-3c1.6,0,2.8,1.1,2.8,2.9C272.8,40.8,271.8,42.1,269.9,42.1z M270,36.8
			c-1.4,0-2,1.1-2,2.4c0,1.2,0.6,2.4,2,2.4c1.5,0,2-1.3,2-2.4C272,37.7,271.3,36.8,270,36.8z"/>
		<path d="M277.9,40.2h-2.2l-0.6,1.7h-0.8l2.2-5.6h0.8l2.1,5.6h-0.8L277.9,40.2z M277.7,39.6l-0.8-2.4l-0.9,2.4H277.7z"/>
		<path d="M283,39.3c-0.8-0.2-2-0.4-2-1.6c0-0.6,0.3-0.9,0.5-1.1c0.5-0.4,1.1-0.5,1.5-0.5c0.4,0,1,0,1.5,0.4c0.6,0.4,0.7,1,0.7,1.3
			l-0.8,0c0-0.2,0-0.6-0.5-0.9c-0.3-0.2-0.6-0.3-1-0.3c-0.7,0-1.3,0.3-1.3,0.9c0,0.6,0.6,0.8,1.1,0.9l0.6,0.2
			c0.4,0.1,0.7,0.2,0.9,0.2c0.8,0.4,1,1,1,1.4c0,0.5-0.2,1-0.7,1.4c-0.5,0.4-1.2,0.4-1.5,0.4c-0.5,0-2.3-0.1-2.4-1.9l0.8-0.1
			c0,0.2,0,0.7,0.5,1.1c0.3,0.3,0.7,0.4,1.2,0.4c0.8,0,1.4-0.4,1.4-1.1c0-0.7-0.5-0.8-1.1-0.9L283,39.3z"/>
		<path d="M289.4,37v5h-0.8v-5h-1.7v-0.7h4.1V37H289.4z"/>
	</g>
</g>
<g>
	<g>
		<path d="M920.2,790.3h1.8c0.8,0,1.5,0,2.2,0.7c0.7,0.7,0.7,1.7,0.7,2.1c0,0.4,0,1.5-0.8,2.2c-0.7,0.6-1.4,0.6-1.9,0.6h-1.9V790.3z
			 M921,791v4.3h1c0.5,0,0.9,0,1.2-0.2c0.4-0.2,0.9-0.7,0.9-1.9c0-0.9-0.3-1.8-1.2-2.1c-0.3-0.1-0.6-0.1-1-0.1H921z"/>
		<path d="M927.9,790.3v5.6h-0.8v-5.6H927.9z"/>
		<path d="M935,790.3v5.6h-0.7l-3.1-4.6l0.1,4.6h-0.7v-5.6h0.7l3.1,4.5l0-4.5H935z"/>
		<path d="M942.2,790.3v5.6h-0.7l-3.1-4.6l0.1,4.6h-0.7v-5.6h0.7l3.1,4.5l0-4.5H942.2z"/>
		<path d="M945.7,793.4v1.9h3.3v0.7h-4v-5.6h3.9v0.7h-3.2v1.7h2.8v0.7H945.7z"/>
		<path d="M952.1,793.6v2.4h-0.7v-5.6h2.1c0.8,0,1.2,0,1.7,0.3c0.4,0.3,0.6,0.8,0.6,1.3c0,1.3-1.1,1.5-1.3,1.6l1.6,2.4h-0.9
			l-1.5-2.4H952.1z M952.1,792.9h1.5c0.2,0,0.5,0,0.7-0.1c0.5-0.1,0.7-0.5,0.7-0.9c0-0.1,0-0.5-0.3-0.8c-0.3-0.2-0.7-0.2-1.1-0.2
			h-1.5V792.9z"/>
		<path d="M964.3,794.2h-2.2l-0.6,1.7h-0.8l2.2-5.6h0.8l2.1,5.6h-0.8L964.3,794.2z M964.1,793.6l-0.8-2.4l-0.9,2.4H964.1z"/>
		<path d="M968.9,791v5h-0.8v-5h-1.7v-0.7h4.1v0.7H968.9z"/>
		<path d="M977.8,791v5h-0.8v-5h-1.7v-0.7h4.1v0.7H977.8z"/>
		<path d="M985.3,793.4h-3.1v2.6h-0.8v-5.7h0.8v2.4h3.1v-2.4h0.8v5.7h-0.8V793.4z"/>
		<path d="M989.5,793.4v1.9h3.3v0.7h-4v-5.6h3.9v0.7h-3.2v1.7h2.8v0.7H989.5z"/>
		<path d="M998.2,790.3h2.3c0.3,0,0.5,0,0.8,0c0.6,0.1,1.2,0.5,1.2,1.4c0,0.7-0.4,1.1-0.9,1.2c0.2,0.1,1,0.3,1,1.4
			c0,0.3,0,0.9-0.6,1.3c-0.4,0.3-0.8,0.3-1.7,0.3h-2.2V790.3z M998.9,791v1.7h1.2c0.9,0,1.3,0,1.5-0.4c0.1-0.2,0.1-0.3,0.1-0.5
			c0-0.8-0.8-0.8-1.1-0.8H998.9z M998.9,793.3v2h1.7c0.4,0,0.5,0,0.7,0c0.5-0.1,0.7-0.5,0.7-0.9c0-0.7-0.5-0.9-0.5-0.9
			c-0.2-0.1-0.4-0.1-1.1-0.1H998.9z"/>
		<path d="M1007.9,796.1c-1.7,0-2.8-1.2-2.8-3c0-2.1,1.4-3,2.8-3c1.6,0,2.8,1.1,2.8,2.9C1010.7,794.8,1009.7,796.1,1007.9,796.1z
			 M1007.9,790.8c-1.4,0-2,1.1-2,2.4c0,1.2,0.6,2.4,2,2.4c1.5,0,2-1.3,2-2.4C1009.9,791.7,1009.2,790.8,1007.9,790.8z"/>
		<path d="M1019.4,790.3h0.8l-1.7,5.6h-0.7l-1.5-4.7l-1.4,4.7h-0.8l-1.7-5.6h0.8l1.3,4.7l1.4-4.7h0.7l1.5,4.7L1019.4,790.3z"/>
		<path d="M1023.1,793.4v1.9h3.3v0.7h-4v-5.6h3.9v0.7h-3.2v1.7h2.8v0.7H1023.1z"/>
		<path d="M1029.4,793.6v2.4h-0.7v-5.6h2.1c0.8,0,1.2,0,1.7,0.3c0.4,0.3,0.6,0.8,0.6,1.3c0,1.3-1.1,1.5-1.3,1.6l1.6,2.4h-0.9
			l-1.5-2.4H1029.4z M1029.4,792.9h1.5c0.2,0,0.5,0,0.7-0.1c0.5-0.1,0.7-0.5,0.7-0.9c0-0.1,0-0.5-0.3-0.8c-0.3-0.2-0.7-0.2-1.1-0.2
			h-1.5V792.9z"/>
		<path d="M1037.1,793.4v2.6h-0.8v-2.6l-2-3.1h0.9l1.5,2.4l1.5-2.4h0.9L1037.1,793.4z"/>
		<path d="M1048.3,793.4h-3.1v2.6h-0.8v-5.7h0.8v2.4h3.1v-2.4h0.8v5.7h-0.8V793.4z"/>
		<path d="M1054.3,796.1c-1.7,0-2.8-1.2-2.8-3c0-2.1,1.4-3,2.8-3c1.6,0,2.8,1.1,2.8,2.9C1057.1,794.8,1056.1,796.1,1054.3,796.1z
			 M1054.3,790.8c-1.4,0-2,1.1-2,2.4c0,1.2,0.6,2.4,2,2.4c1.5,0,2-1.3,2-2.4C1056.3,791.7,1055.6,790.8,1054.3,790.8z"/>
		<path d="M1060.9,791v5h-0.8v-5h-1.7v-0.7h4.1v0.7H1060.9z"/>
		<path d="M1065.3,793.4v1.9h3.3v0.7h-4v-5.6h3.9v0.7h-3.2v1.7h2.8v0.7H1065.3z"/>
		<path d="M1071.6,795.3h2.7v0.7h-3.5v-5.7h0.8V795.3z"/>
	</g>
</g>
<g>
	<g>
		<path d="M480.9,784.4c-0.2,1.1-1.1,2.2-2.8,2.2c-1.9,0-2.8-1.4-2.8-3c0-1.6,0.9-3,2.9-3c2,0,2.4,1.4,2.6,1.7l-0.8,0.2
			c-0.1-0.2-0.1-0.4-0.3-0.6c-0.3-0.3-0.8-0.7-1.5-0.7c-0.6,0-1.2,0.2-1.6,0.7c-0.4,0.4-0.5,1-0.5,1.6c0,1.4,0.7,2.4,2,2.4
			c0.8,0,1.7-0.5,1.9-1.7L480.9,784.4z"/>
		<path d="M483.7,783.9v1.9h3.3v0.7h-4v-5.6h3.9v0.7h-3.2v1.7h2.8v0.7H483.7z"/>
		<path d="M490.1,784.1v2.4h-0.7v-5.6h2.1c0.8,0,1.2,0,1.7,0.3c0.4,0.3,0.6,0.8,0.6,1.3c0,1.3-1.1,1.5-1.3,1.6l1.6,2.4h-0.9
			l-1.5-2.4H490.1z M490.1,783.4h1.5c0.2,0,0.5,0,0.7-0.1c0.5-0.1,0.7-0.5,0.7-0.9c0-0.1,0-0.5-0.3-0.8c-0.3-0.2-0.7-0.2-1.1-0.2
			h-1.5V783.4z"/>
		<path d="M497,783.9v1.9h3.3v0.7h-4v-5.6h3.9v0.7H497v1.7h2.8v0.7H497z"/>
		<path d="M507.9,780.8v5.6h-0.7l0.1-4.7l-1.8,4.7h-0.6l-1.8-4.7l0.1,4.7h-0.7v-5.6h1l1.7,4.6l1.7-4.6H507.9z"/>
		<path d="M513.1,786.6c-1.7,0-2.8-1.2-2.8-3c0-2.1,1.4-3,2.8-3c1.6,0,2.8,1.1,2.8,2.9C515.9,785.3,514.9,786.6,513.1,786.6z
			 M513.1,781.3c-1.4,0-2,1.1-2,2.4c0,1.2,0.6,2.4,2,2.4c1.5,0,2-1.3,2-2.4C515.1,782.2,514.4,781.3,513.1,781.3z"/>
		<path d="M522.7,780.8v5.6h-0.7l-3.1-4.6l0.1,4.6h-0.7v-5.6h0.7l3.1,4.5l0-4.5H522.7z"/>
		<path d="M527.4,783.9v2.6h-0.8v-2.6l-2-3.1h0.9l1.5,2.4l1.5-2.4h0.9L527.4,783.9z"/>
		<path d="M535.5,784.1v2.4h-0.7v-5.6h2.4c0.3,0,0.6,0,0.9,0.1c0.7,0.2,1,0.8,1,1.5c0,0.6-0.3,1.3-1,1.6c-0.3,0.1-0.6,0.1-0.9,0.1
			H535.5z M535.5,783.4h1.6c0.4,0,0.7,0,1-0.3c0.2-0.2,0.3-0.5,0.3-0.8c0-0.2,0-0.5-0.3-0.7c-0.2-0.2-0.5-0.2-0.8-0.2h-1.7V783.4z"
			/>
		<path d="M541.9,784.1v2.4h-0.7v-5.6h2.1c0.8,0,1.2,0,1.7,0.3c0.4,0.3,0.6,0.8,0.6,1.3c0,1.3-1.1,1.5-1.3,1.6l1.6,2.4h-0.9
			l-1.5-2.4H541.9z M541.9,783.4h1.5c0.2,0,0.5,0,0.7-0.1c0.5-0.1,0.7-0.5,0.7-0.9c0-0.1,0-0.5-0.3-0.8c-0.3-0.2-0.7-0.2-1.1-0.2
			h-1.5V783.4z"/>
		<path d="M550.4,786.6c-1.7,0-2.8-1.2-2.8-3c0-2.1,1.4-3,2.8-3c1.6,0,2.8,1.1,2.8,2.9C553.3,785.3,552.3,786.6,550.4,786.6z
			 M550.5,781.3c-1.4,0-2,1.1-2,2.4c0,1.2,0.6,2.4,2,2.4c1.5,0,2-1.3,2-2.4C552.5,782.2,551.8,781.3,550.5,781.3z"/>
		<path d="M561,783.5v3h-0.6v-0.8c-0.5,0.7-1.3,0.9-2.1,0.9c-1.7,0-2.8-1.2-2.8-2.9c0-1.4,0.9-3,2.9-3c0.7,0,1.4,0.2,2,0.7
			c0.4,0.4,0.6,0.7,0.6,0.9l-0.8,0.2c-0.1-0.2-0.2-0.4-0.4-0.7c-0.2-0.2-0.7-0.6-1.4-0.6c-1.6,0-2.1,1.3-2.1,2.3
			c0,1.1,0.6,2.3,2.1,2.3c0.7,0,2-0.3,2-1.8h-2v-0.6H561z"/>
		<path d="M564.5,784.1v2.4h-0.7v-5.6h2.1c0.8,0,1.2,0,1.7,0.3c0.4,0.3,0.6,0.8,0.6,1.3c0,1.3-1.1,1.5-1.3,1.6l1.6,2.4h-0.9
			l-1.5-2.4H564.5z M564.5,783.4h1.5c0.2,0,0.5,0,0.7-0.1c0.5-0.1,0.7-0.5,0.7-0.9c0-0.1,0-0.5-0.3-0.8c-0.3-0.2-0.7-0.2-1.1-0.2
			h-1.5V783.4z"/>
		<path d="M573.3,784.7h-2.2l-0.6,1.7h-0.8l2.2-5.6h0.8l2.1,5.6h-0.8L573.3,784.7z M573.1,784.1l-0.8-2.3l-0.9,2.3H573.1z"/>
		<path d="M582,780.8v5.6h-0.7l0.1-4.7l-1.8,4.7H579l-1.8-4.7l0.1,4.7h-0.7v-5.6h1l1.7,4.6l1.7-4.6H582z"/>
		<path d="M481,794.8v5.6h-0.7l0.1-4.7l-1.8,4.7H478l-1.8-4.7l0.1,4.7h-0.7v-5.6h1l1.7,4.6l1.7-4.6H481z"/>
		<path d="M486.1,800.6c-1.7,0-2.8-1.2-2.8-3c0-2.1,1.4-3,2.8-3c1.6,0,2.8,1.1,2.8,2.9C489,799.3,488,800.6,486.1,800.6z
			 M486.1,795.3c-1.4,0-2,1.1-2,2.4c0,1.2,0.6,2.4,2,2.4c1.5,0,2-1.3,2-2.4C488.1,796.2,487.4,795.3,486.1,795.3z"/>
		<path d="M496.7,798.4c-0.2,1.1-1.1,2.2-2.8,2.2c-1.9,0-2.8-1.4-2.8-3c0-1.6,0.9-3,2.9-3c2,0,2.4,1.4,2.6,1.7l-0.8,0.2
			c-0.1-0.2-0.1-0.4-0.3-0.6c-0.3-0.3-0.8-0.7-1.5-0.7c-0.6,0-1.2,0.2-1.6,0.7c-0.4,0.4-0.5,1-0.5,1.6c0,1.4,0.7,2.4,2,2.4
			c0.8,0,1.7-0.5,1.9-1.7L496.7,798.4z"/>
		<path d="M500.2,797.7l-0.8,0.8v2h-0.8v-5.6h0.8v2.8l2.7-2.8h0.9l-2.3,2.3l2.4,3.3h-0.9L500.2,797.7z"/>
		<path d="M509.4,794.8v3.6c0,0.2,0,0.5-0.1,0.7c-0.2,0.7-0.8,1.4-2.1,1.4c-0.4,0-1.2-0.1-1.7-0.8c-0.4-0.5-0.4-0.9-0.4-1.5v-3.5
			h0.8v3.4c0,0.5,0,1,0.3,1.3c0.3,0.4,0.8,0.4,1.1,0.4c0.7,0,1.2-0.3,1.4-0.9c0.1-0.2,0.1-0.5,0.1-0.8v-3.4H509.4z"/>
		<path d="M512.8,798.1v2.4h-0.7v-5.6h2.4c0.3,0,0.6,0,0.9,0.1c0.7,0.2,1,0.8,1,1.5c0,0.6-0.3,1.3-1,1.6c-0.3,0.1-0.6,0.1-0.9,0.1
			H512.8z M512.8,797.4h1.6c0.4,0,0.7,0,1-0.3c0.2-0.2,0.3-0.5,0.3-0.8c0-0.2,0-0.5-0.3-0.7c-0.2-0.2-0.5-0.2-0.8-0.2h-1.7V797.4z"
			/>
		<path d="M523.6,794.8l-1.8,5.6h-0.6l1.9-5.6H523.6z"/>
		<path d="M530.9,797.9c-0.8-0.2-2-0.4-2-1.6c0-0.6,0.3-0.9,0.5-1.1c0.5-0.4,1.1-0.5,1.5-0.5c0.4,0,1,0,1.5,0.4
			c0.6,0.4,0.7,1,0.7,1.3l-0.8,0c0-0.2,0-0.6-0.5-0.9c-0.3-0.2-0.6-0.3-1-0.3c-0.7,0-1.3,0.3-1.3,0.9c0,0.6,0.6,0.8,1.1,0.9l0.6,0.2
			c0.4,0.1,0.7,0.2,0.9,0.2c0.8,0.4,1,1,1,1.4c0,0.5-0.2,1-0.7,1.4c-0.5,0.4-1.2,0.4-1.5,0.4c-0.5,0-2.3-0.1-2.4-1.9l0.8-0.1
			c0,0.2,0,0.7,0.5,1.1c0.3,0.3,0.7,0.4,1.2,0.4c0.8,0,1.4-0.4,1.4-1.1c0-0.7-0.5-0.8-1.1-0.9L530.9,797.9z"/>
		<path d="M537.2,795.5v5h-0.8v-5h-1.7v-0.7h4.1v0.7H537.2z"/>
		<path d="M545.1,794.8v3.6c0,0.2,0,0.5-0.1,0.7c-0.2,0.7-0.8,1.4-2.1,1.4c-0.4,0-1.2-0.1-1.7-0.8c-0.4-0.5-0.4-0.9-0.4-1.5v-3.5
			h0.8v3.4c0,0.5,0,1,0.3,1.3c0.3,0.4,0.8,0.4,1.1,0.4c0.7,0,1.2-0.3,1.4-0.9c0.1-0.2,0.1-0.5,0.1-0.8v-3.4H545.1z"/>
		<path d="M547.9,794.8h1.8c0.8,0,1.5,0,2.2,0.7c0.7,0.7,0.7,1.7,0.7,2.1c0,0.4,0,1.5-0.8,2.2c-0.7,0.6-1.4,0.6-1.9,0.6h-1.9V794.8z
			 M548.7,795.5v4.3h1c0.5,0,0.9,0,1.2-0.2c0.4-0.2,0.9-0.7,0.9-1.9c0-0.9-0.3-1.8-1.2-2.1c-0.3-0.1-0.6-0.1-1-0.1H548.7z"/>
		<path d="M555.6,794.8v5.6h-0.8v-5.6H555.6z"/>
		<path d="M560.7,800.6c-1.7,0-2.8-1.2-2.8-3c0-2.1,1.4-3,2.8-3c1.6,0,2.8,1.1,2.8,2.9C563.6,799.3,562.6,800.6,560.7,800.6z
			 M560.8,795.3c-1.4,0-2,1.1-2,2.4c0,1.2,0.6,2.4,2,2.4c1.5,0,2-1.3,2-2.4C562.8,796.2,562.1,795.3,560.8,795.3z"/>
		<path d="M569.9,799.8h2.7v0.7h-3.5v-5.7h0.8V799.8z"/>
		<path d="M578.8,794.8v3.6c0,0.2,0,0.5-0.1,0.7c-0.2,0.7-0.8,1.4-2.1,1.4c-0.4,0-1.2-0.1-1.7-0.8c-0.4-0.5-0.4-0.9-0.4-1.5v-3.5
			h0.8v3.4c0,0.5,0,1,0.3,1.3c0.3,0.4,0.8,0.4,1.1,0.4c0.7,0,1.2-0.3,1.4-0.9c0.1-0.2,0.1-0.5,0.1-0.8v-3.4H578.8z"/>
		<path d="M586,794.8v5.6h-0.7l-3.1-4.6l0.1,4.6h-0.7v-5.6h0.7l3.1,4.5l0-4.5H586z"/>
		<path d="M593.9,798.4c-0.2,1.1-1.1,2.2-2.8,2.2c-1.9,0-2.8-1.4-2.8-3c0-1.6,0.9-3,2.9-3c2,0,2.4,1.4,2.6,1.7l-0.8,0.2
			c-0.1-0.2-0.1-0.4-0.3-0.6c-0.3-0.3-0.8-0.7-1.5-0.7c-0.6,0-1.2,0.2-1.6,0.7c-0.4,0.4-0.5,1-0.5,1.6c0,1.4,0.7,2.4,2,2.4
			c0.8,0,1.7-0.5,1.9-1.7L593.9,798.4z"/>
		<path d="M599.8,797.9h-3.1v2.6H596v-5.7h0.8v2.4h3.1v-2.4h0.8v5.7h-0.8V797.9z"/>
		<path d="M609,800.6c-1.7,0-2.8-1.2-2.8-3c0-2.1,1.4-3,2.8-3c1.6,0,2.8,1.1,2.8,2.9C611.9,799.3,610.9,800.6,609,800.6z M609,795.3
			c-1.4,0-2,1.1-2,2.4c0,1.2,0.6,2.4,2,2.4c1.5,0,2-1.3,2-2.4C611,796.2,610.3,795.3,609,795.3z"/>
		<path d="M615,798.1v2.4h-0.7v-5.6h2.1c0.8,0,1.2,0,1.7,0.3c0.4,0.3,0.6,0.8,0.6,1.3c0,1.3-1.1,1.5-1.3,1.6l1.6,2.4H618l-1.5-2.4
			H615z M615,797.4h1.5c0.2,0,0.5,0,0.7-0.1c0.5-0.1,0.7-0.5,0.7-0.9c0-0.1,0-0.5-0.3-0.8c-0.3-0.2-0.7-0.2-1.1-0.2H615V797.4z"/>
		<path d="M621.1,794.8h1.8c0.8,0,1.5,0,2.2,0.7c0.7,0.7,0.7,1.7,0.7,2.1c0,0.4,0,1.5-0.8,2.2c-0.7,0.6-1.4,0.6-1.9,0.6h-1.9V794.8z
			 M621.9,795.5v4.3h1c0.5,0,0.9,0,1.2-0.2c0.4-0.2,0.9-0.7,0.9-1.9c0-0.9-0.3-1.8-1.2-2.1c-0.3-0.1-0.6-0.1-1-0.1H621.9z"/>
		<path d="M628.9,797.9v1.9h3.3v0.7h-4v-5.6h3.9v0.7h-3.2v1.7h2.8v0.7H628.9z"/>
		<path d="M635.3,798.1v2.4h-0.7v-5.6h2.1c0.8,0,1.2,0,1.7,0.3c0.4,0.3,0.6,0.8,0.6,1.3c0,1.3-1.1,1.5-1.3,1.6l1.6,2.4h-0.9
			l-1.5-2.4H635.3z M635.3,797.4h1.5c0.2,0,0.5,0,0.7-0.1c0.5-0.1,0.7-0.5,0.7-0.9c0-0.1,0-0.5-0.3-0.8c-0.3-0.2-0.7-0.2-1.1-0.2
			h-1.5V797.4z"/>
	</g>
</g>
</svg>
