<?xml version="1.0" encoding="utf-8"?>
<!-- Generator: Adobe Illustrator 21.1.0, SVG Export Plug-In . SVG Version: 6.00 Build 0)  -->
<svg version="1.1" id="Layer_1" xmlns="http://www.w3.org/2000/svg" xmlns:xlink="http://www.w3.org/1999/xlink" x="0px" y="0px"
	 viewBox="0 0 1280 1122" style="enable-background:new 0 0 1280 1122;" xml:space="preserve">
<g>
	<g>
		<path d="M722.1,304.9v5h-0.8v-5h-1.7v-0.7h4.1v0.7H722.1z"/>
		<path d="M726.4,304.3v5.6h-0.8v-5.6H726.4z"/>
		<path d="M733.5,304.3v5.6h-0.7l-3.1-4.6l0.1,4.6h-0.7v-5.6h0.7l3.1,4.5l0-4.5H733.5z"/>
		<path d="M738.2,307.3v2.6h-0.8v-2.6l-2-3.1h0.9l1.5,2.4l1.5-2.4h0.9L738.2,307.3z"/>
		<path d="M742.2,309.1v0.4c0,0.8-0.1,1.1-0.3,1.7h-0.4c0.1-0.2,0.2-0.6,0.3-1.2h-0.3v-0.9H742.2z"/>
		<path d="M751.7,307.3h-3.1v2.6h-0.8v-5.7h0.8v2.4h3.1v-2.4h0.8v5.7h-0.8V307.3z"/>
		<path d="M758,308.2h-2.2l-0.6,1.7h-0.8l2.2-5.6h0.8l2.1,5.6h-0.8L758,308.2z M757.7,307.6l-0.8-2.4l-0.9,2.4H757.7z"/>
		<path d="M765.7,304.3v5.6H765l-3.1-4.6l0.1,4.6h-0.7v-5.6h0.7l3.1,4.5l0-4.5H765.7z"/>
		<path d="M768.5,304.3h1.8c0.8,0,1.5,0,2.2,0.7c0.7,0.7,0.7,1.7,0.7,2.1c0,0.4,0,1.5-0.8,2.2c-0.7,0.6-1.4,0.6-1.9,0.6h-1.9V304.3z
			 M769.3,305v4.3h1c0.5,0,0.9,0,1.2-0.2c0.4-0.2,0.9-0.7,0.9-1.9c0-0.9-0.3-1.8-1.2-2.1c-0.3-0.1-0.6-0.1-1-0.1H769.3z"/>
		<path d="M784,307.9c-0.2,1.1-1.1,2.2-2.8,2.2c-1.9,0-2.8-1.4-2.8-3c0-1.6,0.9-3,2.9-3c2,0,2.4,1.4,2.6,1.7l-0.8,0.2
			c-0.1-0.2-0.1-0.4-0.3-0.6c-0.3-0.3-0.8-0.7-1.5-0.7c-0.6,0-1.2,0.2-1.6,0.7c-0.4,0.4-0.5,1-0.5,1.6c0,1.4,0.7,2.4,2,2.4
			c0.8,0,1.7-0.5,1.9-1.7L784,307.9z"/>
		<path d="M790.3,304.3v3.6c0,0.2,0,0.5-0.1,0.7c-0.2,0.7-0.8,1.4-2.1,1.4c-0.4,0-1.2-0.1-1.7-0.8c-0.4-0.5-0.4-0.9-0.4-1.5v-3.5
			h0.8v3.4c0,0.5,0,1,0.3,1.3c0.3,0.4,0.8,0.4,1.1,0.4c0.7,0,1.2-0.3,1.4-0.9c0.1-0.2,0.1-0.5,0.1-0.8v-3.4H790.3z"/>
		<path d="M794.7,304.9v5h-0.8v-5h-1.7v-0.7h4.1v0.7H794.7z"/>
		<path d="M802.4,307.5v2.4h-0.7v-5.6h2.4c0.3,0,0.6,0,0.9,0.1c0.7,0.2,1,0.8,1,1.5c0,0.6-0.3,1.3-1,1.6c-0.3,0.1-0.6,0.1-0.9,0.1
			H802.4z M802.4,306.9h1.6c0.4,0,0.7,0,1-0.3c0.2-0.2,0.3-0.5,0.3-0.8c0-0.2,0-0.5-0.3-0.7c-0.2-0.2-0.5-0.2-0.8-0.2h-1.7V306.9z"
			/>
		<path d="M810.4,308.2h-2.2l-0.6,1.7h-0.8l2.2-5.6h0.8l2.1,5.6h-0.8L810.4,308.2z M810.2,307.6l-0.8-2.4l-0.9,2.4H810.2z"/>
		<path d="M814.5,307.5v2.4h-0.7v-5.6h2.4c0.3,0,0.6,0,0.9,0.1c0.7,0.2,1,0.8,1,1.5c0,0.6-0.3,1.3-1,1.6c-0.3,0.1-0.6,0.1-0.9,0.1
			H814.5z M814.5,306.9h1.6c0.4,0,0.7,0,1-0.3c0.2-0.2,0.3-0.5,0.3-0.8c0-0.2,0-0.5-0.3-0.7c-0.2-0.2-0.5-0.2-0.8-0.2h-1.7V306.9z"
			/>
		<path d="M820.9,307.4v1.9h3.3v0.7h-4v-5.6h3.9v0.7h-3.2v1.7h2.8v0.7H820.9z"/>
		<path d="M827.2,307.5v2.4h-0.7v-5.6h2.1c0.8,0,1.2,0,1.7,0.3c0.4,0.3,0.6,0.8,0.6,1.3c0,1.3-1.1,1.5-1.3,1.6l1.6,2.4h-0.9
			l-1.5-2.4H827.2z M827.2,306.9h1.5c0.2,0,0.5,0,0.7-0.1c0.5-0.1,0.7-0.5,0.7-0.9c0-0.1,0-0.5-0.3-0.8c-0.3-0.2-0.7-0.2-1.1-0.2
			h-1.5V306.9z"/>
		<path d="M725.5,321.9c-0.2,1.1-1.1,2.2-2.8,2.2c-1.9,0-2.8-1.4-2.8-3c0-1.6,0.9-3,2.9-3c2,0,2.4,1.4,2.6,1.7l-0.8,0.2
			c-0.1-0.2-0.1-0.4-0.3-0.6c-0.3-0.3-0.8-0.7-1.5-0.7c-0.6,0-1.2,0.2-1.6,0.7c-0.4,0.4-0.5,1-0.5,1.6c0,1.4,0.7,2.4,2,2.4
			c0.8,0,1.7-0.5,1.9-1.7L725.5,321.9z"/>
		<path d="M728.3,321.5v2.4h-0.7v-5.6h2.1c0.8,0,1.2,0,1.7,0.3c0.4,0.3,0.6,0.8,0.6,1.3c0,1.3-1.1,1.5-1.3,1.6l1.6,2.4h-0.9
			l-1.5-2.4H728.3z M728.3,320.9h1.5c0.2,0,0.5,0,0.7-0.1c0.5-0.1,0.7-0.5,0.7-0.9c0-0.1,0-0.5-0.3-0.8c-0.3-0.2-0.7-0.2-1.1-0.2
			h-1.5V320.9z"/>
		<path d="M736.9,324.1c-1.7,0-2.8-1.2-2.8-3c0-2.1,1.4-3,2.8-3c1.6,0,2.8,1.1,2.8,2.9C739.7,322.7,738.7,324.1,736.9,324.1z
			 M736.9,318.8c-1.4,0-2,1.1-2,2.4c0,1.2,0.6,2.4,2,2.4c1.5,0,2-1.3,2-2.4C738.9,319.7,738.2,318.8,736.9,318.8z"/>
		<path d="M748.4,318.3h0.8l-1.7,5.6h-0.7l-1.5-4.7l-1.4,4.7H743l-1.7-5.6h0.8l1.3,4.7l1.4-4.7h0.7l1.5,4.7L748.4,318.3z"/>
		<path d="M755.6,318.3v5.6h-0.7l-3.1-4.6l0.1,4.6h-0.7v-5.6h0.7l3.1,4.5l0-4.5H755.6z"/>
		<path d="M763.3,321.3c-0.8-0.2-2-0.4-2-1.6c0-0.6,0.3-0.9,0.5-1.1c0.5-0.4,1.1-0.5,1.5-0.5c0.4,0,1,0,1.5,0.4
			c0.6,0.4,0.7,1,0.7,1.3l-0.8,0c0-0.2,0-0.6-0.5-0.9c-0.3-0.2-0.6-0.3-1-0.3c-0.7,0-1.3,0.3-1.3,0.9c0,0.6,0.6,0.8,1.1,0.9l0.6,0.2
			c0.4,0.1,0.7,0.2,0.9,0.2c0.8,0.4,1,1,1,1.4c0,0.5-0.2,1-0.7,1.4c-0.5,0.4-1.2,0.4-1.5,0.4c-0.5,0-2.3-0.1-2.4-1.9l0.8-0.1
			c0,0.2,0,0.7,0.5,1.1c0.3,0.3,0.7,0.4,1.2,0.4c0.8,0,1.4-0.4,1.4-1.1c0-0.7-0.5-0.8-1.1-0.9L763.3,321.3z"/>
		<path d="M769.7,318.9v5h-0.8v-5h-1.7v-0.7h4.1v0.7H769.7z"/>
		<path d="M777.6,318.3v3.6c0,0.2,0,0.5-0.1,0.7c-0.2,0.7-0.8,1.4-2.1,1.4c-0.4,0-1.2-0.1-1.7-0.8c-0.4-0.5-0.4-0.9-0.4-1.5v-3.5
			h0.8v3.4c0,0.5,0,1,0.3,1.3c0.3,0.4,0.8,0.4,1.1,0.4c0.7,0,1.2-0.3,1.4-0.9c0.1-0.2,0.1-0.5,0.1-0.8v-3.4H777.6z"/>
		<path d="M780.3,318.3h1.8c0.8,0,1.5,0,2.2,0.7c0.7,0.7,0.7,1.7,0.7,2.1c0,0.4,0,1.5-0.8,2.2c-0.7,0.6-1.4,0.6-1.9,0.6h-1.9V318.3z
			 M781.1,319v4.3h1c0.5,0,0.9,0,1.2-0.2c0.4-0.2,0.9-0.7,0.9-1.9c0-0.9-0.3-1.8-1.2-2.1c-0.3-0.1-0.6-0.1-1-0.1H781.1z"/>
		<path d="M788,318.3v5.6h-0.8v-5.6H788z"/>
		<path d="M791.5,321.4v1.9h3.3v0.7h-4v-5.6h3.9v0.7h-3.2v1.7h2.8v0.7H791.5z"/>
		<path d="M798.9,321.3c-0.8-0.2-2-0.4-2-1.6c0-0.6,0.3-0.9,0.5-1.1c0.5-0.4,1.1-0.5,1.5-0.5c0.4,0,1,0,1.5,0.4
			c0.6,0.4,0.7,1,0.7,1.3l-0.8,0c0-0.2,0-0.6-0.5-0.9c-0.3-0.2-0.6-0.3-1-0.3c-0.7,0-1.3,0.3-1.3,0.9c0,0.6,0.6,0.8,1.1,0.9l0.6,0.2
			c0.4,0.1,0.7,0.2,0.9,0.2c0.8,0.4,1,1,1,1.4c0,0.5-0.2,1-0.7,1.4c-0.5,0.4-1.2,0.4-1.5,0.4c-0.5,0-2.3-0.1-2.4-1.9l0.8-0.1
			c0,0.2,0,0.7,0.5,1.1c0.3,0.3,0.7,0.4,1.2,0.4c0.8,0,1.4-0.4,1.4-1.1c0-0.7-0.5-0.8-1.1-0.9L798.9,321.3z"/>
	</g>
</g>
<g>
	<g>
		<path d="M624,1092.7h2.7v0.7h-3.5v-5.7h0.8V1092.7z"/>
		<path d="M629.4,1090.8v1.9h3.3v0.7h-4v-5.6h3.9v0.7h-3.2v1.7h2.8v0.7H629.4z"/>
		<path d="M636.7,1088.4v5h-0.8v-5h-1.7v-0.7h4.1v0.7H636.7z"/>
		<path d="M642.2,1088.4v5h-0.8v-5h-1.7v-0.7h4.1v0.7H642.2z"/>
		<path d="M646.5,1090.8v1.9h3.3v0.7h-4v-5.6h3.9v0.7h-3.2v1.7h2.8v0.7H646.5z"/>
		<path d="M652.9,1091v2.4h-0.7v-5.6h2.1c0.8,0,1.2,0,1.7,0.3c0.4,0.3,0.6,0.8,0.6,1.3c0,1.3-1.1,1.5-1.3,1.6l1.6,2.4h-0.9l-1.5-2.4
			H652.9z M652.9,1090.4h1.5c0.2,0,0.5,0,0.7-0.1c0.5-0.1,0.7-0.5,0.7-0.9c0-0.1,0-0.5-0.3-0.8c-0.3-0.2-0.7-0.2-1.1-0.2h-1.5
			V1090.4z"/>
		<path d="M659.7,1087.8v5.6H659v-5.6H659.7z"/>
		<path d="M666.8,1087.8v5.6h-0.7l-3.1-4.6l0.1,4.6h-0.7v-5.6h0.7l3.1,4.5l0-4.5H666.8z"/>
		<path d="M674.8,1090.4v3h-0.6v-0.8c-0.5,0.7-1.3,0.9-2.1,0.9c-1.7,0-2.8-1.2-2.8-2.9c0-1.4,0.9-3,2.9-3c0.7,0,1.4,0.2,2,0.7
			c0.4,0.4,0.6,0.7,0.6,0.9l-0.8,0.2c-0.1-0.2-0.2-0.4-0.4-0.7c-0.2-0.2-0.7-0.6-1.4-0.6c-1.6,0-2.1,1.3-2.1,2.3
			c0,1.1,0.6,2.3,2.1,2.3c0.7,0,2-0.3,2-1.8h-2v-0.6H674.8z"/>
		<path d="M682.5,1090.8c-0.8-0.2-2-0.4-2-1.6c0-0.6,0.3-0.9,0.5-1.1c0.5-0.4,1.1-0.5,1.5-0.5c0.4,0,1,0,1.5,0.4
			c0.6,0.4,0.7,1,0.7,1.3l-0.8,0c0-0.2,0-0.6-0.5-0.9c-0.3-0.2-0.6-0.3-1-0.3c-0.7,0-1.3,0.3-1.3,0.9c0,0.6,0.6,0.8,1.1,0.9l0.6,0.2
			c0.4,0.1,0.7,0.2,0.9,0.2c0.8,0.4,1,1,1,1.4c0,0.5-0.2,1-0.7,1.4c-0.5,0.4-1.2,0.4-1.5,0.4c-0.5,0-2.3-0.1-2.4-1.9l0.8-0.1
			c0,0.2,0,0.7,0.5,1.1c0.3,0.3,0.7,0.4,1.2,0.4c0.8,0,1.4-0.4,1.4-1.1c0-0.7-0.5-0.8-1.1-0.9L682.5,1090.8z"/>
		<path d="M688.8,1088.4v5h-0.8v-5h-1.7v-0.7h4.1v0.7H688.8z"/>
		<path d="M696.7,1087.7v3.6c0,0.2,0,0.5-0.1,0.7c-0.2,0.7-0.8,1.4-2.1,1.4c-0.4,0-1.2-0.1-1.7-0.8c-0.4-0.5-0.4-0.9-0.4-1.5v-3.5
			h0.8v3.4c0,0.5,0,1,0.3,1.3c0.3,0.4,0.8,0.4,1.1,0.4c0.7,0,1.2-0.3,1.4-0.9c0.1-0.2,0.1-0.5,0.1-0.8v-3.4H696.7z"/>
		<path d="M699.5,1087.8h1.8c0.8,0,1.5,0,2.2,0.7c0.7,0.7,0.7,1.7,0.7,2.1c0,0.4,0,1.5-0.8,2.2c-0.7,0.6-1.4,0.6-1.9,0.6h-1.9
			V1087.8z M700.2,1088.4v4.3h1c0.5,0,0.9,0,1.2-0.2c0.4-0.2,0.9-0.7,0.9-1.9c0-0.9-0.3-1.8-1.2-2.1c-0.3-0.1-0.6-0.1-1-0.1H700.2z"
			/>
		<path d="M707.2,1087.8v5.6h-0.8v-5.6H707.2z"/>
		<path d="M710.6,1090.8v1.9h3.3v0.7h-4v-5.6h3.9v0.7h-3.2v1.7h2.8v0.7H710.6z"/>
		<path d="M718,1090.8c-0.8-0.2-2-0.4-2-1.6c0-0.6,0.3-0.9,0.5-1.1c0.5-0.4,1.1-0.5,1.5-0.5c0.4,0,1,0,1.5,0.4
			c0.6,0.4,0.7,1,0.7,1.3l-0.8,0c0-0.2,0-0.6-0.5-0.9c-0.3-0.2-0.6-0.3-1-0.3c-0.7,0-1.3,0.3-1.3,0.9c0,0.6,0.6,0.8,1.1,0.9l0.6,0.2
			c0.4,0.1,0.7,0.2,0.9,0.2c0.8,0.4,1,1,1,1.4c0,0.5-0.2,1-0.7,1.4c-0.5,0.4-1.2,0.4-1.5,0.4c-0.5,0-2.3-0.1-2.4-1.9l0.8-0.1
			c0,0.2,0,0.7,0.5,1.1c0.3,0.3,0.7,0.4,1.2,0.4c0.8,0,1.4-0.4,1.4-1.1c0-0.7-0.5-0.8-1.1-0.9L718,1090.8z"/>
		<path d="M624.1,1104.7v2.7h-0.8v-5.7h3.6v0.7h-2.9v1.7h2.7v0.7H624.1z"/>
		<path d="M631.5,1107.5c-1.7,0-2.8-1.2-2.8-3c0-2.1,1.4-3,2.8-3c1.6,0,2.8,1.1,2.8,2.9C634.4,1106.2,633.4,1107.5,631.5,1107.5z
			 M631.5,1102.2c-1.4,0-2,1.1-2,2.4c0,1.2,0.6,2.4,2,2.4c1.5,0,2-1.3,2-2.4C633.5,1103.2,632.8,1102.2,631.5,1102.2z"/>
		<path d="M637.5,1105v2.4h-0.7v-5.6h2.1c0.8,0,1.2,0,1.7,0.3c0.4,0.3,0.6,0.8,0.6,1.3c0,1.3-1.1,1.5-1.3,1.6l1.6,2.4h-0.9l-1.5-2.4
			H637.5z M637.5,1104.4h1.5c0.2,0,0.5,0,0.7-0.1c0.5-0.1,0.7-0.5,0.7-0.9c0-0.1,0-0.5-0.3-0.8c-0.3-0.2-0.7-0.2-1.1-0.2h-1.5
			V1104.4z"/>
		<path d="M649.7,1105.7h-2.2l-0.6,1.7h-0.8l2.2-5.6h0.8l2.1,5.6h-0.8L649.7,1105.7z M649.5,1105l-0.8-2.4l-0.9,2.4H649.5z"/>
		<path d="M660.8,1101.8v5.6h-0.7l-3.1-4.6l0.1,4.6h-0.7v-5.6h0.7l3.1,4.5l0-4.5H660.8z"/>
		<path d="M664.3,1104.8v1.9h3.3v0.7h-4v-5.6h3.9v0.7h-3.2v1.7h2.8v0.7H664.3z"/>
		<path d="M676.2,1101.8h0.8l-1.7,5.6h-0.7l-1.5-4.7l-1.4,4.7h-0.8l-1.7-5.6h0.8l1.3,4.7l1.4-4.7h0.7l1.5,4.7L676.2,1101.8z"/>
		<path d="M684.6,1104.8v2.6h-0.8v-2.6l-2-3.1h0.9l1.5,2.4l1.5-2.4h0.9L684.6,1104.8z"/>
		<path d="M690.8,1107.5c-1.7,0-2.8-1.2-2.8-3c0-2.1,1.4-3,2.8-3c1.6,0,2.8,1.1,2.8,2.9C693.7,1106.2,692.7,1107.5,690.8,1107.5z
			 M690.9,1102.2c-1.4,0-2,1.1-2,2.4c0,1.2,0.6,2.4,2,2.4c1.5,0,2-1.3,2-2.4C692.9,1103.2,692.2,1102.2,690.9,1102.2z"/>
		<path d="M696.8,1105v2.4h-0.7v-5.6h2.1c0.8,0,1.2,0,1.7,0.3c0.4,0.3,0.6,0.8,0.6,1.3c0,1.3-1.1,1.5-1.3,1.6l1.6,2.4h-0.9l-1.5-2.4
			H696.8z M696.8,1104.4h1.5c0.2,0,0.5,0,0.7-0.1c0.5-0.1,0.7-0.5,0.7-0.9c0-0.1,0-0.5-0.3-0.8c-0.3-0.2-0.7-0.2-1.1-0.2h-1.5
			V1104.4z"/>
		<path d="M704.4,1104.6l-0.8,0.8v2h-0.8v-5.6h0.8v2.8l2.7-2.8h0.9l-2.3,2.3l2.4,3.3h-0.9L704.4,1104.6z"/>
		<path d="M712.5,1101.8h1.8c0.8,0,1.5,0,2.2,0.7c0.7,0.7,0.7,1.7,0.7,2.1c0,0.4,0,1.5-0.8,2.2c-0.7,0.6-1.4,0.6-1.9,0.6h-1.9
			V1101.8z M713.3,1102.4v4.3h1c0.5,0,0.9,0,1.2-0.2c0.4-0.2,0.9-0.7,0.9-1.9c0-0.9-0.3-1.8-1.2-2.1c-0.3-0.1-0.6-0.1-1-0.1H713.3z"
			/>
		<path d="M720.2,1101.8v5.6h-0.8v-5.6H720.2z"/>
		<path d="M727.3,1101.8v5.6h-0.7l-3.1-4.6l0.1,4.6h-0.7v-5.6h0.7l3.1,4.5l0-4.5H727.3z"/>
		<path d="M734.5,1101.8v5.6h-0.7l-3.1-4.6l0.1,4.6h-0.7v-5.6h0.7l3.1,4.5l0-4.5H734.5z"/>
		<path d="M738.1,1104.8v1.9h3.3v0.7h-4v-5.6h3.9v0.7h-3.2v1.7h2.8v0.7H738.1z"/>
		<path d="M744.4,1105v2.4h-0.7v-5.6h2.1c0.8,0,1.2,0,1.7,0.3c0.4,0.3,0.6,0.8,0.6,1.3c0,1.3-1.1,1.5-1.3,1.6l1.6,2.4h-0.9l-1.5-2.4
			H744.4z M744.4,1104.4h1.5c0.2,0,0.5,0,0.7-0.1c0.5-0.1,0.7-0.5,0.7-0.9c0-0.1,0-0.5-0.3-0.8c-0.3-0.2-0.7-0.2-1.1-0.2h-1.5
			V1104.4z"/>
	</g>
</g>
<g>
	<g>
		<path d="M176.2,667h-2.2l-0.6,1.7h-0.8l2.2-5.6h0.8l2.1,5.6h-0.8L176.2,667z M176,666.3l-0.8-2.4l-0.9,2.4H176z"/>
		<path d="M184,663.1v5.6h-0.7l-3.1-4.6l0.1,4.6h-0.7v-5.6h0.7l3.1,4.5l0-4.5H184z"/>
		<path d="M190.5,666.1v1.9h3.3v0.7h-4v-5.6h3.9v0.7h-3.2v1.7h2.8v0.7H190.5z"/>
		<path d="M200.6,663.1v5.6h-0.7l-3.1-4.6l0.1,4.6h-0.7v-5.6h0.7l3.1,4.5l0-4.5H200.6z"/>
		<path d="M208.5,665.7v3h-0.6v-0.8c-0.5,0.7-1.3,0.9-2.1,0.9c-1.7,0-2.8-1.2-2.8-2.9c0-1.4,0.9-3,2.9-3c0.7,0,1.4,0.2,2,0.7
			c0.4,0.4,0.6,0.7,0.6,0.9l-0.8,0.2c-0.1-0.2-0.2-0.4-0.4-0.7c-0.2-0.2-0.7-0.6-1.4-0.6c-1.6,0-2.1,1.3-2.1,2.3
			c0,1.1,0.6,2.3,2.1,2.3c0.7,0,2-0.3,2-1.8h-2v-0.6H208.5z"/>
		<path d="M212,666.3v2.4h-0.7v-5.6h2.1c0.8,0,1.2,0,1.7,0.3c0.4,0.3,0.6,0.8,0.6,1.3c0,1.3-1.1,1.5-1.3,1.6l1.6,2.4H215l-1.5-2.4
			H212z M212,665.7h1.5c0.2,0,0.5,0,0.7-0.1c0.5-0.1,0.7-0.5,0.7-0.9c0-0.1,0-0.5-0.3-0.8c-0.3-0.2-0.7-0.2-1.1-0.2H212V665.7z"/>
		<path d="M220.8,667h-2.2l-0.6,1.7h-0.8l2.2-5.6h0.8l2.1,5.6h-0.8L220.8,667z M220.6,666.3l-0.8-2.4l-0.9,2.4H220.6z"/>
		<path d="M227.1,663.1h0.8l-2,5.6h-0.8l-1.9-5.6h0.8l1.5,4.7L227.1,663.1z"/>
		<path d="M230.6,666.1v1.9h3.3v0.7h-4v-5.6h3.9v0.7h-3.2v1.7h2.8v0.7H230.6z"/>
		<path d="M236.2,663.1h1.8c0.8,0,1.5,0,2.2,0.7c0.7,0.7,0.7,1.7,0.7,2.1c0,0.4,0,1.5-0.8,2.2c-0.7,0.6-1.4,0.6-1.9,0.6h-1.9V663.1z
			 M237,663.7v4.3h1c0.5,0,0.9,0,1.2-0.2c0.4-0.2,0.9-0.7,0.9-1.9c0-0.9-0.3-1.8-1.2-2.1c-0.3-0.1-0.6-0.1-1-0.1H237z"/>
		<path d="M247.2,666.1v1.9h3.3v0.7h-4v-5.6h3.9v0.7h-3.2v1.7h2.8v0.7H247.2z"/>
		<path d="M258.1,663.1v5.6h-0.7l0.1-4.7l-1.8,4.7h-0.6l-1.8-4.7l0.1,4.7h-0.7v-5.6h1l1.7,4.6l1.7-4.6H258.1z"/>
		<path d="M260.8,663.1h2.3c0.3,0,0.5,0,0.8,0c0.6,0.1,1.2,0.5,1.2,1.4c0,0.7-0.4,1.1-0.9,1.2c0.2,0.1,1,0.3,1,1.4
			c0,0.3,0,0.9-0.6,1.3c-0.4,0.3-0.8,0.3-1.7,0.3h-2.2V663.1z M261.5,663.7v1.7h1.2c0.9,0,1.3,0,1.5-0.4c0.1-0.2,0.1-0.3,0.1-0.5
			c0-0.8-0.8-0.8-1.1-0.8H261.5z M261.5,666.1v2h1.7c0.4,0,0.5,0,0.7,0c0.5-0.1,0.7-0.5,0.7-0.9c0-0.7-0.5-0.9-0.5-0.9
			c-0.2-0.1-0.4-0.1-1.1-0.1H261.5z"/>
		<path d="M268.6,668h2.7v0.7h-3.5V663h0.8V668z"/>
		<path d="M274,666.1v1.9h3.3v0.7h-4v-5.6h3.9v0.7H274v1.7h2.8v0.7H274z"/>
		<path d="M285,663.1v5.6h-0.7l0.1-4.7l-1.8,4.7h-0.6l-1.8-4.7l0.1,4.7h-0.7v-5.6h1l1.7,4.6l1.7-4.6H285z"/>
	</g>
</g>
<g>
	<g>
		<path d="M1030.7,660.7h-2.2l-0.6,1.7h-0.8l2.2-5.6h0.8l2.1,5.6h-0.8L1030.7,660.7z M1030.5,660.1l-0.8-2.4l-0.9,2.4H1030.5z"/>
		<path d="M1038.4,656.8v5.6h-0.7l-3.1-4.6l0.1,4.6h-0.7v-5.6h0.7l3.1,4.5l0-4.5H1038.4z"/>
		<path d="M1045,659.8v1.9h3.3v0.7h-4v-5.6h3.9v0.7h-3.2v1.7h2.8v0.7H1045z"/>
		<path d="M1053.3,660.7h-2.2l-0.6,1.7h-0.8l2.2-5.6h0.8l2.1,5.6h-0.8L1053.3,660.7z M1053.1,660.1l-0.8-2.4l-0.9,2.4H1053.1z"/>
		<path d="M1057.4,660v2.4h-0.7v-5.6h2.1c0.8,0,1.2,0,1.7,0.3c0.4,0.3,0.6,0.8,0.6,1.3c0,1.3-1.1,1.5-1.3,1.6l1.6,2.4h-0.9l-1.5-2.4
			H1057.4z M1057.4,659.4h1.5c0.2,0,0.5,0,0.7-0.1c0.5-0.1,0.7-0.5,0.7-0.9c0-0.1,0-0.5-0.3-0.8c-0.3-0.2-0.7-0.2-1.1-0.2h-1.5
			V659.4z"/>
		<path d="M1064.2,661.7h2.7v0.7h-3.5v-5.7h0.8V661.7z"/>
		<path d="M1070,659.8v2.6h-0.8v-2.6l-2-3.1h0.9l1.5,2.4l1.5-2.4h0.9L1070,659.8z"/>
		<path d="M1028.4,673.8v1.9h3.3v0.7h-4v-5.6h3.9v0.7h-3.2v1.7h2.8v0.7H1028.4z"/>
		<path d="M1039.4,670.8v5.6h-0.7l0.1-4.7l-1.8,4.7h-0.6l-1.8-4.7l0.1,4.7h-0.7v-5.6h1l1.7,4.6l1.7-4.6H1039.4z"/>
		<path d="M1042,670.8h2.3c0.3,0,0.5,0,0.8,0c0.6,0.1,1.2,0.5,1.2,1.4c0,0.7-0.4,1.1-0.9,1.2c0.2,0.1,1,0.3,1,1.4
			c0,0.3,0,0.9-0.6,1.3c-0.4,0.3-0.8,0.3-1.7,0.3h-2.2V670.8z M1042.8,671.4v1.7h1.2c0.9,0,1.3,0,1.5-0.4c0.1-0.2,0.1-0.3,0.1-0.5
			c0-0.8-0.8-0.8-1.1-0.8H1042.8z M1042.8,673.8v2h1.7c0.4,0,0.5,0,0.7,0c0.5-0.1,0.7-0.5,0.7-0.9c0-0.7-0.5-0.9-0.5-0.9
			c-0.2-0.1-0.4-0.1-1.1-0.1H1042.8z"/>
		<path d="M1049.8,675.7h2.7v0.7h-3.5v-5.7h0.8V675.7z"/>
		<path d="M1055.2,673.8v1.9h3.3v0.7h-4v-5.6h3.9v0.7h-3.2v1.7h2.8v0.7H1055.2z"/>
		<path d="M1066.2,670.8v5.6h-0.7l0.1-4.7l-1.8,4.7h-0.6l-1.8-4.7l0.1,4.7h-0.7v-5.6h1l1.7,4.6l1.7-4.6H1066.2z"/>
		<path d="M1029.6,687.8c-0.8-0.2-2-0.4-2-1.6c0-0.6,0.3-0.9,0.5-1.1c0.5-0.4,1.1-0.5,1.5-0.5c0.4,0,1,0,1.5,0.4
			c0.6,0.4,0.7,1,0.7,1.3l-0.8,0c0-0.2,0-0.6-0.5-0.9c-0.3-0.2-0.6-0.3-1-0.3c-0.7,0-1.3,0.3-1.3,0.9c0,0.6,0.6,0.8,1.1,0.9l0.6,0.2
			c0.4,0.1,0.7,0.2,0.9,0.2c0.8,0.4,1,1,1,1.4c0,0.5-0.2,1-0.7,1.4c-0.5,0.4-1.2,0.4-1.5,0.4c-0.5,0-2.3-0.1-2.4-1.9l0.8-0.1
			c0,0.2,0,0.7,0.5,1.1c0.3,0.3,0.7,0.4,1.2,0.4c0.8,0,1.4-0.4,1.4-1.1c0-0.7-0.5-0.8-1.1-0.9L1029.6,687.8z"/>
		<path d="M1035.8,687.6l-0.8,0.8v2h-0.8v-5.6h0.8v2.8l2.7-2.8h0.9l-2.3,2.3l2.4,3.3h-0.9L1035.8,687.6z"/>
		<path d="M1041.5,687.8v1.9h3.3v0.7h-4v-5.6h3.9v0.7h-3.2v1.7h2.8v0.7H1041.5z"/>
		<path d="M1048.7,685.4v5h-0.8v-5h-1.7v-0.7h4.1v0.7H1048.7z"/>
		<path d="M1057.3,688.4c-0.2,1.1-1.1,2.2-2.8,2.2c-1.9,0-2.8-1.4-2.8-3c0-1.6,0.9-3,2.9-3c2,0,2.4,1.4,2.6,1.7l-0.8,0.2
			c-0.1-0.2-0.1-0.4-0.3-0.6c-0.3-0.3-0.8-0.7-1.5-0.7c-0.6,0-1.2,0.2-1.6,0.7c-0.4,0.4-0.5,1-0.5,1.6c0,1.4,0.7,2.4,2,2.4
			c0.8,0,1.7-0.5,1.9-1.7L1057.3,688.4z"/>
		<path d="M1063.2,687.8h-3.1v2.6h-0.8v-5.7h0.8v2.4h3.1v-2.4h0.8v5.7h-0.8V687.8z"/>
	</g>
</g>
</svg>
