<?xml version="1.0" encoding="utf-8"?>
<!-- Generator: Adobe Illustrator 21.1.0, SVG Export Plug-In . SVG Version: 6.00 Build 0)  -->
<svg version="1.1" id="Layer_1" xmlns="http://www.w3.org/2000/svg" xmlns:xlink="http://www.w3.org/1999/xlink" x="0px" y="0px"
	 viewBox="0 0 1280 1694" style="enable-background:new 0 0 1280 1694;" xml:space="preserve">
<g>
	<g>
		<path d="M153.3,375.8h2.7v0.7h-3.5v-5.7h0.8V375.8z"/>
		<path d="M160.1,376.6c-1.7,0-2.8-1.2-2.8-3c0-2.1,1.4-3,2.8-3c1.6,0,2.8,1.1,2.8,2.9C163,375.3,162,376.6,160.1,376.6z
			 M160.1,371.3c-1.4,0-2,1.1-2,2.4c0,1.2,0.6,2.4,2,2.4c1.5,0,2-1.3,2-2.4C162.1,372.3,161.4,371.3,160.1,371.3z"/>
		<path d="M170.7,373.5v3H170v-0.8c-0.5,0.7-1.3,0.9-2.1,0.9c-1.7,0-2.8-1.2-2.8-2.9c0-1.4,0.9-3,2.9-3c0.7,0,1.4,0.2,2,0.7
			c0.4,0.4,0.6,0.7,0.6,0.9l-0.8,0.2c-0.1-0.2-0.2-0.4-0.4-0.7c-0.2-0.2-0.7-0.6-1.4-0.6c-1.6,0-2.1,1.3-2.1,2.3
			c0,1.1,0.6,2.3,2.1,2.3c0.7,0,2-0.3,2-1.8h-2v-0.6H170.7z"/>
		<path d="M176,376.6c-1.7,0-2.8-1.2-2.8-3c0-2.1,1.4-3,2.8-3c1.6,0,2.8,1.1,2.8,2.9C178.9,375.3,177.9,376.6,176,376.6z M176,371.3
			c-1.4,0-2,1.1-2,2.4c0,1.2,0.6,2.4,2,2.4c1.5,0,2-1.3,2-2.4C178,372.3,177.3,371.3,176,371.3z"/>
		<path d="M185.2,373.8v2.7h-0.8v-5.7h3.6v0.7h-2.9v1.7h2.7v0.7H185.2z"/>
		<path d="M192.6,376.6c-1.7,0-2.8-1.2-2.8-3c0-2.1,1.4-3,2.8-3c1.6,0,2.8,1.1,2.8,2.9C195.5,375.3,194.5,376.6,192.6,376.6z
			 M192.6,371.3c-1.4,0-2,1.1-2,2.4c0,1.2,0.6,2.4,2,2.4c1.5,0,2-1.3,2-2.4C194.6,372.3,193.9,371.3,192.6,371.3z"/>
		<path d="M198.6,374.1v2.4h-0.7v-5.6h2.1c0.8,0,1.2,0,1.7,0.3c0.4,0.3,0.6,0.8,0.6,1.3c0,1.3-1.1,1.5-1.3,1.6l1.6,2.4h-0.9
			l-1.5-2.4H198.6z M198.6,373.5h1.5c0.2,0,0.5,0,0.7-0.1c0.5-0.1,0.7-0.5,0.7-0.9c0-0.1,0-0.5-0.3-0.8c-0.3-0.2-0.7-0.2-1.1-0.2
			h-1.5V373.5z"/>
		<path d="M210.4,376.6c-1.7,0-2.8-1.2-2.8-3c0-2.1,1.4-3,2.8-3c1.6,0,2.8,1.1,2.8,2.9C213.2,375.3,212.2,376.6,210.4,376.6z
			 M210.4,371.3c-1.4,0-2,1.1-2,2.4c0,1.2,0.6,2.4,2,2.4c1.5,0,2-1.3,2-2.4C212.4,372.3,211.7,371.3,210.4,371.3z"/>
		<path d="M219.9,370.9v3.6c0,0.2,0,0.5-0.1,0.7c-0.2,0.7-0.8,1.4-2.1,1.4c-0.4,0-1.2-0.1-1.7-0.8c-0.4-0.5-0.4-0.9-0.4-1.5v-3.5
			h0.8v3.4c0,0.5,0,1,0.3,1.3c0.3,0.4,0.8,0.4,1.1,0.4c0.7,0,1.2-0.3,1.4-0.9c0.1-0.2,0.1-0.5,0.1-0.8v-3.4H219.9z"/>
		<path d="M223.4,374.1v2.4h-0.7v-5.6h2.1c0.8,0,1.2,0,1.7,0.3c0.4,0.3,0.6,0.8,0.6,1.3c0,1.3-1.1,1.5-1.3,1.6l1.6,2.4h-0.9
			l-1.5-2.4H223.4z M223.4,373.5h1.5c0.2,0,0.5,0,0.7-0.1c0.5-0.1,0.7-0.5,0.7-0.9c0-0.1,0-0.5-0.3-0.8c-0.3-0.2-0.7-0.2-1.1-0.2
			h-1.5V373.5z"/>
		<path d="M153.4,387.8v2.7h-0.8v-5.7h3.6v0.7h-2.9v1.7h2.7v0.7H153.4z"/>
		<path d="M160.7,388.8h-2.2l-0.6,1.7h-0.8l2.2-5.6h0.8l2.1,5.6h-0.8L160.7,388.8z M160.5,388.1l-0.8-2.4l-0.9,2.4H160.5z"/>
		<path d="M167,384.9h0.8l-2,5.6h-0.8l-1.9-5.6h0.8l1.5,4.7L167,384.9z"/>
		<path d="M172.2,390.6c-1.7,0-2.8-1.2-2.8-3c0-2.1,1.4-3,2.8-3c1.6,0,2.8,1.1,2.8,2.9C175.1,389.3,174.1,390.6,172.2,390.6z
			 M172.2,385.3c-1.4,0-2,1.1-2,2.4c0,1.2,0.6,2.4,2,2.4c1.5,0,2-1.3,2-2.4C174.2,386.3,173.5,385.3,172.2,385.3z"/>
		<path d="M178.2,388.1v2.4h-0.7v-5.6h2.1c0.8,0,1.2,0,1.7,0.3c0.4,0.3,0.6,0.8,0.6,1.3c0,1.3-1.1,1.5-1.3,1.6l1.6,2.4h-0.9
			l-1.5-2.4H178.2z M178.2,387.5h1.5c0.2,0,0.5,0,0.7-0.1c0.5-0.1,0.7-0.5,0.7-0.9c0-0.1,0-0.5-0.3-0.8c-0.3-0.2-0.7-0.2-1.1-0.2
			h-1.5V387.5z"/>
		<path d="M185,384.9v5.6h-0.8v-5.6H185z"/>
		<path d="M189.3,385.5v5h-0.8v-5h-1.7v-0.7h4.1v0.7H189.3z"/>
		<path d="M193.6,387.9v1.9h3.3v0.7h-4v-5.6h3.9v0.7h-3.2v1.7h2.8v0.7H193.6z"/>
		<path d="M202.3,384.9h2.3c0.3,0,0.5,0,0.8,0c0.6,0.1,1.2,0.5,1.2,1.4c0,0.7-0.4,1.1-0.9,1.2c0.2,0.1,1,0.3,1,1.4
			c0,0.3,0,0.9-0.6,1.3c-0.4,0.3-0.8,0.3-1.7,0.3h-2.2V384.9z M203,385.5v1.7h1.2c0.9,0,1.3,0,1.5-0.4c0.1-0.2,0.1-0.3,0.1-0.5
			c0-0.8-0.8-0.8-1.1-0.8H203z M203,387.9v2h1.7c0.4,0,0.5,0,0.7,0c0.5-0.1,0.7-0.5,0.7-0.9c0-0.7-0.5-0.9-0.5-0.9
			c-0.2-0.1-0.4-0.1-1.1-0.1H203z"/>
		<path d="M212,388.8h-2.2l-0.6,1.7h-0.8l2.2-5.6h0.8l2.1,5.6h-0.8L212,388.8z M211.8,388.1l-0.8-2.4l-0.9,2.4H211.8z"/>
		<path d="M216.8,387.7l-0.8,0.8v2h-0.8v-5.6h0.8v2.8l2.7-2.8h0.9l-2.3,2.3l2.4,3.3h-0.9L216.8,387.7z"/>
		<path d="M222.5,387.9v1.9h3.3v0.7h-4v-5.6h3.9v0.7h-3.2v1.7h2.8v0.7H222.5z"/>
		<path d="M228.8,388.1v2.4h-0.7v-5.6h2.1c0.8,0,1.2,0,1.7,0.3c0.4,0.3,0.6,0.8,0.6,1.3c0,1.3-1.1,1.5-1.3,1.6l1.6,2.4h-0.9
			l-1.5-2.4H228.8z M228.8,387.5h1.5c0.2,0,0.5,0,0.7-0.1c0.5-0.1,0.7-0.5,0.7-0.9c0-0.1,0-0.5-0.3-0.8c-0.3-0.2-0.7-0.2-1.1-0.2
			h-1.5V387.5z"/>
		<path d="M235.3,389.6v0.4c0,0.8-0.1,1.1-0.3,1.7h-0.4c0.1-0.2,0.2-0.6,0.3-1.2h-0.3v-0.9H235.3z"/>
		<path d="M154.5,399.5v5h-0.8v-5h-1.7v-0.7h4.1v0.7H154.5z"/>
		<path d="M164.8,398.9h0.8l-1.7,5.6h-0.7l-1.5-4.7l-1.4,4.7h-0.8l-1.7-5.6h0.8l1.3,4.7l1.4-4.7h0.7l1.5,4.7L164.8,398.9z"/>
		<path d="M168.4,398.9v5.6h-0.8v-5.6H168.4z"/>
		<path d="M172.9,401.9c-0.8-0.2-2-0.4-2-1.6c0-0.6,0.3-0.9,0.5-1.1c0.5-0.4,1.1-0.5,1.5-0.5c0.4,0,1,0,1.5,0.4
			c0.6,0.4,0.7,1,0.7,1.3l-0.8,0c0-0.2,0-0.6-0.5-0.9c-0.3-0.2-0.6-0.3-1-0.3c-0.7,0-1.3,0.3-1.3,0.9c0,0.6,0.6,0.8,1.1,0.9l0.6,0.2
			c0.4,0.1,0.7,0.2,0.9,0.2c0.8,0.4,1,1,1,1.4c0,0.5-0.2,1-0.7,1.4c-0.5,0.4-1.2,0.4-1.5,0.4c-0.5,0-2.3-0.1-2.4-1.9l0.8-0.1
			c0,0.2,0,0.7,0.5,1.1c0.3,0.3,0.7,0.4,1.2,0.4c0.8,0,1.4-0.4,1.4-1.1c0-0.7-0.5-0.8-1.1-0.9L172.9,401.9z"/>
		<path d="M179.6,401.9c-0.8-0.2-2-0.4-2-1.6c0-0.6,0.3-0.9,0.5-1.1c0.5-0.4,1.1-0.5,1.5-0.5c0.4,0,1,0,1.5,0.4
			c0.6,0.4,0.7,1,0.7,1.3l-0.8,0c0-0.2,0-0.6-0.5-0.9c-0.3-0.2-0.6-0.3-1-0.3c-0.7,0-1.3,0.3-1.3,0.9c0,0.6,0.6,0.8,1.1,0.9l0.6,0.2
			c0.4,0.1,0.7,0.2,0.9,0.2c0.8,0.4,1,1,1,1.4c0,0.5-0.2,1-0.7,1.4c-0.5,0.4-1.2,0.4-1.5,0.4c-0.5,0-2.3-0.1-2.4-1.9l0.8-0.1
			c0,0.2,0,0.7,0.5,1.1c0.3,0.3,0.7,0.4,1.2,0.4c0.8,0,1.4-0.4,1.4-1.1c0-0.7-0.5-0.8-1.1-0.9L179.6,401.9z"/>
		<path d="M192.8,398.9v5.6h-0.7l0.1-4.7l-1.8,4.7h-0.6l-1.8-4.7l0.1,4.7h-0.7v-5.6h1l1.7,4.6l1.7-4.6H192.8z"/>
		<path d="M198.2,402.8h-2.2l-0.6,1.7h-0.8l2.2-5.6h0.8l2.1,5.6h-0.8L198.2,402.8z M198,402.1l-0.8-2.4l-0.9,2.4H198z"/>
		<path d="M206,398.9v5.6h-0.7l-3.1-4.6l0.1,4.6h-0.7v-5.6h0.7l3.1,4.5l0-4.5H206z"/>
		<path d="M211.2,404.6c-1.7,0-2.8-1.2-2.8-3c0-2.1,1.4-3,2.8-3c1.6,0,2.8,1.1,2.8,2.9C214.1,403.3,213.1,404.6,211.2,404.6z
			 M211.2,399.3c-1.4,0-2,1.1-2,2.4c0,1.2,0.6,2.4,2,2.4c1.5,0,2-1.3,2-2.4C213.2,400.3,212.5,399.3,211.2,399.3z"/>
		<path d="M217.2,402.1v2.4h-0.7v-5.6h2.1c0.8,0,1.2,0,1.7,0.3c0.4,0.3,0.6,0.8,0.6,1.3c0,1.3-1.1,1.5-1.3,1.6l1.6,2.4h-0.9
			l-1.5-2.4H217.2z M217.2,401.5h1.5c0.2,0,0.5,0,0.7-0.1c0.5-0.1,0.7-0.5,0.7-0.9c0-0.1,0-0.5-0.3-0.8c-0.3-0.2-0.7-0.2-1.1-0.2
			h-1.5V401.5z"/>
	</g>
</g>
<g>
	<g>
		<path d="M1098.2,403.3h0.8l-1.7,5.6h-0.7l-1.5-4.7l-1.4,4.7h-0.8l-1.7-5.6h0.8l1.3,4.7l1.4-4.7h0.7l1.5,4.7L1098.2,403.3z"/>
		<path d="M1101.8,406.4v1.9h3.3v0.7h-4v-5.6h3.9v0.7h-3.2v1.7h2.8v0.7H1101.8z"/>
		<path d="M1108.2,408.3h2.7v0.7h-3.5v-5.7h0.8V408.3z"/>
		<path d="M1117.7,406.9c-0.2,1.1-1.1,2.2-2.8,2.2c-1.9,0-2.8-1.4-2.8-3c0-1.6,0.9-3,2.9-3c2,0,2.4,1.4,2.6,1.7l-0.8,0.2
			c-0.1-0.2-0.1-0.4-0.3-0.6c-0.3-0.3-0.8-0.7-1.5-0.7c-0.6,0-1.2,0.2-1.6,0.7c-0.4,0.4-0.5,1-0.5,1.6c0,1.4,0.7,2.4,2,2.4
			c0.8,0,1.7-0.5,1.9-1.7L1117.7,406.9z"/>
		<path d="M1122.3,409.1c-1.7,0-2.8-1.2-2.8-3c0-2.1,1.4-3,2.8-3c1.6,0,2.8,1.1,2.8,2.9C1125.2,407.8,1124.2,409.1,1122.3,409.1z
			 M1122.4,403.8c-1.4,0-2,1.1-2,2.4c0,1.2,0.6,2.4,2,2.4c1.5,0,2-1.3,2-2.4C1124.4,404.8,1123.7,403.8,1122.4,403.8z"/>
		<path d="M1132.9,403.3v5.6h-0.7l0.1-4.7l-1.8,4.7h-0.6l-1.8-4.7l0.1,4.7h-0.7v-5.6h1l1.7,4.6l1.7-4.6H1132.9z"/>
		<path d="M1136.3,406.4v1.9h3.3v0.7h-4v-5.6h3.9v0.7h-3.2v1.7h2.8v0.7H1136.3z"/>
		<path d="M1145.7,406.6v2.4h-0.7v-5.6h2.4c0.3,0,0.6,0,0.9,0.1c0.7,0.2,1,0.8,1,1.5c0,0.6-0.3,1.3-1,1.6c-0.3,0.1-0.6,0.1-0.9,0.1
			H1145.7z M1145.7,405.9h1.6c0.4,0,0.7,0,1-0.3c0.2-0.2,0.3-0.5,0.3-0.8c0-0.2,0-0.5-0.3-0.7c-0.2-0.2-0.5-0.2-0.8-0.2h-1.7V405.9z
			"/>
		<path d="M1153.8,407.3h-2.2l-0.6,1.7h-0.8l2.2-5.6h0.8l2.1,5.6h-0.8L1153.8,407.3z M1153.5,406.6l-0.8-2.4l-0.9,2.4H1153.5z"/>
		<path d="M1162.2,406.9c-0.2,1.1-1.1,2.2-2.8,2.2c-1.9,0-2.8-1.4-2.8-3c0-1.6,0.9-3,2.9-3c2,0,2.4,1.4,2.6,1.7l-0.8,0.2
			c-0.1-0.2-0.1-0.4-0.3-0.6c-0.3-0.3-0.8-0.7-1.5-0.7c-0.6,0-1.2,0.2-1.6,0.7c-0.4,0.4-0.5,1-0.5,1.6c0,1.4,0.7,2.4,2,2.4
			c0.8,0,1.7-0.5,1.9-1.7L1162.2,406.9z"/>
		<path d="M1165.8,406.2l-0.8,0.8v2h-0.8v-5.6h0.8v2.8l2.7-2.8h0.9l-2.3,2.3l2.4,3.3h-0.9L1165.8,406.2z"/>
		<path d="M1173.5,407.3h-2.2l-0.6,1.7h-0.8l2.2-5.6h0.8l2.1,5.6h-0.8L1173.5,407.3z M1173.3,406.6l-0.8-2.4l-0.9,2.4H1173.3z"/>
		<path d="M1182,406v3h-0.6v-0.8c-0.5,0.7-1.3,0.9-2.1,0.9c-1.7,0-2.8-1.2-2.8-2.9c0-1.4,0.9-3,2.9-3c0.7,0,1.4,0.2,2,0.7
			c0.4,0.4,0.6,0.7,0.6,0.9l-0.8,0.2c-0.1-0.2-0.2-0.4-0.4-0.7c-0.2-0.2-0.7-0.6-1.4-0.6c-1.6,0-2.1,1.3-2.1,2.3
			c0,1.1,0.6,2.3,2.1,2.3c0.7,0,2-0.3,2-1.8h-2V406H1182z"/>
		<path d="M1185.5,406.4v1.9h3.3v0.7h-4v-5.6h3.9v0.7h-3.2v1.7h2.8v0.7H1185.5z"/>
		<path d="M1092.3,420.3v2.7h-0.8v-5.7h3.6v0.7h-2.9v1.7h2.7v0.7H1092.3z"/>
		<path d="M1099.7,423.1c-1.7,0-2.8-1.2-2.8-3c0-2.1,1.4-3,2.8-3c1.6,0,2.8,1.1,2.8,2.9C1102.6,421.8,1101.6,423.1,1099.7,423.1z
			 M1099.7,417.8c-1.4,0-2,1.1-2,2.4c0,1.2,0.6,2.4,2,2.4c1.5,0,2-1.3,2-2.4C1101.8,418.8,1101,417.8,1099.7,417.8z"/>
		<path d="M1105.7,420.6v2.4h-0.7v-5.6h2.1c0.8,0,1.2,0,1.7,0.3c0.4,0.3,0.6,0.8,0.6,1.3c0,1.3-1.1,1.5-1.3,1.6l1.6,2.4h-0.9
			l-1.5-2.4H1105.7z M1105.7,420h1.5c0.2,0,0.5,0,0.7-0.1c0.5-0.1,0.7-0.5,0.7-0.9c0-0.1,0-0.5-0.3-0.8c-0.3-0.2-0.7-0.2-1.1-0.2
			h-1.5V420z"/>
		<path d="M1116.8,420.4c-0.8-0.2-2-0.4-2-1.6c0-0.6,0.3-0.9,0.5-1.1c0.5-0.4,1.1-0.5,1.5-0.5c0.4,0,1,0,1.5,0.4
			c0.6,0.4,0.7,1,0.7,1.3l-0.8,0c0-0.2,0-0.6-0.5-0.9c-0.3-0.2-0.6-0.3-1-0.3c-0.7,0-1.3,0.3-1.3,0.9c0,0.6,0.6,0.8,1.1,0.9l0.6,0.2
			c0.4,0.1,0.7,0.2,0.9,0.2c0.8,0.4,1,1,1,1.4c0,0.5-0.2,1-0.7,1.4c-0.5,0.4-1.2,0.4-1.5,0.4c-0.5,0-2.3-0.1-2.4-1.9l0.8-0.1
			c0,0.2,0,0.7,0.5,1.1c0.3,0.3,0.7,0.4,1.2,0.4c0.8,0,1.4-0.4,1.4-1.1c0-0.7-0.5-0.8-1.1-0.9L1116.8,420.4z"/>
		<path d="M1123.2,418v5h-0.8v-5h-1.7v-0.7h4.1v0.7H1123.2z"/>
		<path d="M1126.8,422.1v0.9h-0.8v-0.9H1126.8z"/>
		<path d="M1132.5,417.3h2.3c0.3,0,0.5,0,0.8,0c0.6,0.1,1.2,0.5,1.2,1.4c0,0.7-0.4,1.1-0.9,1.2c0.2,0.1,1,0.3,1,1.4
			c0,0.3,0,0.9-0.6,1.3c-0.4,0.3-0.8,0.3-1.7,0.3h-2.2V417.3z M1133.2,418v1.7h1.2c0.9,0,1.3,0,1.5-0.4c0.1-0.2,0.1-0.3,0.1-0.5
			c0-0.8-0.8-0.8-1.1-0.8H1133.2z M1133.2,420.4v2h1.7c0.4,0,0.5,0,0.7,0c0.5-0.1,0.7-0.5,0.7-0.9c0-0.7-0.5-0.9-0.5-0.9
			c-0.2-0.1-0.4-0.1-1.1-0.1H1133.2z"/>
		<path d="M1142.3,421.3h-2.2l-0.6,1.7h-0.8l2.2-5.6h0.8l2.1,5.6h-0.8L1142.3,421.3z M1142.1,420.6l-0.8-2.4l-0.9,2.4H1142.1z"/>
		<path d="M1146.3,420.6v2.4h-0.7v-5.6h2.1c0.8,0,1.2,0,1.7,0.3c0.4,0.3,0.6,0.8,0.6,1.3c0,1.3-1.1,1.5-1.3,1.6l1.6,2.4h-0.9
			l-1.5-2.4H1146.3z M1146.3,420h1.5c0.2,0,0.5,0,0.7-0.1c0.5-0.1,0.7-0.5,0.7-0.9c0-0.1,0-0.5-0.3-0.8c-0.3-0.2-0.7-0.2-1.1-0.2
			h-1.5V420z"/>
		<path d="M1154.1,418v5h-0.8v-5h-1.7v-0.7h4.1v0.7H1154.1z"/>
		<path d="M1158.4,417.3v0.4c0,0.8-0.1,1.1-0.3,1.7h-0.4c0.1-0.1,0.2-0.6,0.3-1.2h-0.4v-0.9H1158.4z"/>
		<path d="M1162.7,420.4c-0.8-0.2-2-0.4-2-1.6c0-0.6,0.3-0.9,0.5-1.1c0.5-0.4,1.1-0.5,1.5-0.5c0.4,0,1,0,1.5,0.4
			c0.6,0.4,0.7,1,0.7,1.3l-0.8,0c0-0.2,0-0.6-0.5-0.9c-0.3-0.2-0.6-0.3-1-0.3c-0.7,0-1.3,0.3-1.3,0.9c0,0.6,0.6,0.8,1.1,0.9l0.6,0.2
			c0.4,0.1,0.7,0.2,0.9,0.2c0.8,0.4,1,1,1,1.4c0,0.5-0.2,1-0.7,1.4c-0.5,0.4-1.2,0.4-1.5,0.4c-0.5,0-2.3-0.1-2.4-1.9l0.8-0.1
			c0,0.2,0,0.7,0.5,1.1c0.3,0.3,0.7,0.4,1.2,0.4c0.8,0,1.4-0.4,1.4-1.1c0-0.7-0.5-0.8-1.1-0.9L1162.7,420.4z"/>
		<path d="M1098.2,431.3h0.8l-1.7,5.6h-0.7l-1.5-4.7l-1.4,4.7h-0.8l-1.7-5.6h0.8l1.3,4.7l1.4-4.7h0.7l1.5,4.7L1098.2,431.3z"/>
		<path d="M1101.8,434.4v1.9h3.3v0.7h-4v-5.6h3.9v0.7h-3.2v1.7h2.8v0.7H1101.8z"/>
		<path d="M1107.5,431.3h1.8c0.8,0,1.5,0,2.2,0.7c0.7,0.7,0.7,1.7,0.7,2.1c0,0.4,0,1.5-0.8,2.2c-0.7,0.6-1.4,0.6-1.9,0.6h-1.9V431.3
			z M1108.2,432v4.3h1c0.5,0,0.9,0,1.2-0.2c0.4-0.2,0.9-0.7,0.9-1.9c0-0.9-0.3-1.8-1.2-2.1c-0.3-0.1-0.6-0.1-1-0.1H1108.2z"/>
		<path d="M1114.5,431.3h1.8c0.8,0,1.5,0,2.2,0.7c0.7,0.7,0.7,1.7,0.7,2.1c0,0.4,0,1.5-0.8,2.2c-0.7,0.6-1.4,0.6-1.9,0.6h-1.9V431.3
			z M1115.3,432v4.3h1c0.5,0,0.9,0,1.2-0.2c0.4-0.2,0.9-0.7,0.9-1.9c0-0.9-0.3-1.8-1.2-2.1c-0.3-0.1-0.6-0.1-1-0.1H1115.3z"/>
		<path d="M1122.2,431.3v5.6h-0.8v-5.6H1122.2z"/>
		<path d="M1129.3,431.3v5.6h-0.7l-3.1-4.6l0.1,4.6h-0.7v-5.6h0.7l3.1,4.5l0-4.5H1129.3z"/>
		<path d="M1137.2,434v3h-0.6v-0.8c-0.5,0.7-1.3,0.9-2.1,0.9c-1.7,0-2.8-1.2-2.8-2.9c0-1.4,0.9-3,2.9-3c0.7,0,1.4,0.2,2,0.7
			c0.4,0.4,0.6,0.7,0.6,0.9l-0.8,0.2c-0.1-0.2-0.2-0.4-0.4-0.7c-0.2-0.2-0.7-0.6-1.4-0.6c-1.6,0-2.1,1.3-2.1,2.3
			c0,1.1,0.6,2.3,2.1,2.3c0.7,0,2-0.3,2-1.8h-2V434H1137.2z"/>
		<path d="M1148.3,434v3h-0.6v-0.8c-0.5,0.7-1.3,0.9-2.1,0.9c-1.7,0-2.8-1.2-2.8-2.9c0-1.4,0.9-3,2.9-3c0.7,0,1.4,0.2,2,0.7
			c0.4,0.4,0.6,0.7,0.6,0.9l-0.8,0.2c-0.1-0.2-0.2-0.4-0.4-0.7c-0.2-0.2-0.7-0.6-1.4-0.6c-1.6,0-2.1,1.3-2.1,2.3
			c0,1.1,0.6,2.3,2.1,2.3c0.7,0,2-0.3,2-1.8h-2V434H1148.3z"/>
		<path d="M1155.3,431.3v3.6c0,0.2,0,0.5-0.1,0.7c-0.2,0.7-0.8,1.4-2.1,1.4c-0.4,0-1.2-0.1-1.7-0.8c-0.4-0.5-0.4-0.9-0.4-1.5v-3.5
			h0.8v3.4c0,0.5,0,1,0.3,1.3c0.3,0.4,0.8,0.4,1.1,0.4c0.7,0,1.2-0.3,1.4-0.9c0.1-0.2,0.1-0.5,0.1-0.8v-3.4H1155.3z"/>
		<path d="M1158.8,434.4v1.9h3.3v0.7h-4v-5.6h3.9v0.7h-3.2v1.7h2.8v0.7H1158.8z"/>
		<path d="M1166.2,434.4c-0.8-0.2-2-0.4-2-1.6c0-0.6,0.3-0.9,0.5-1.1c0.5-0.4,1.1-0.5,1.5-0.5c0.4,0,1,0,1.5,0.4
			c0.6,0.4,0.7,1,0.7,1.3l-0.8,0c0-0.2,0-0.6-0.5-0.9c-0.3-0.2-0.6-0.3-1-0.3c-0.7,0-1.3,0.3-1.3,0.9c0,0.6,0.6,0.8,1.1,0.9l0.6,0.2
			c0.4,0.1,0.7,0.2,0.9,0.2c0.8,0.4,1,1,1,1.4c0,0.5-0.2,1-0.7,1.4c-0.5,0.4-1.2,0.4-1.5,0.4c-0.5,0-2.3-0.1-2.4-1.9l0.8-0.1
			c0,0.2,0,0.7,0.5,1.1c0.3,0.3,0.7,0.4,1.2,0.4c0.8,0,1.4-0.4,1.4-1.1c0-0.7-0.5-0.8-1.1-0.9L1166.2,434.4z"/>
		<path d="M1172.6,432v5h-0.8v-5h-1.7v-0.7h4.1v0.7H1172.6z"/>
		<path d="M1178,434.4c-0.8-0.2-2-0.4-2-1.6c0-0.6,0.3-0.9,0.5-1.1c0.5-0.4,1.1-0.5,1.5-0.5c0.4,0,1,0,1.5,0.4
			c0.6,0.4,0.7,1,0.7,1.3l-0.8,0c0-0.2,0-0.6-0.5-0.9c-0.3-0.2-0.6-0.3-1-0.3c-0.7,0-1.3,0.3-1.3,0.9c0,0.6,0.6,0.8,1.1,0.9l0.6,0.2
			c0.4,0.1,0.7,0.2,0.9,0.2c0.8,0.4,1,1,1,1.4c0,0.5-0.2,1-0.7,1.4c-0.5,0.4-1.2,0.4-1.5,0.4c-0.5,0-2.3-0.1-2.4-1.9l0.8-0.1
			c0,0.2,0,0.7,0.5,1.1c0.3,0.3,0.7,0.4,1.2,0.4c0.8,0,1.4-0.4,1.4-1.1c0-0.7-0.5-0.8-1.1-0.9L1178,434.4z"/>
	</g>
</g>
<g>
	<g>
		<path d="M319.5,281.5v5.6h-0.7l0.1-4.7l-1.8,4.7h-0.6l-1.8-4.7l0.1,4.7h-0.7v-5.6h1l1.7,4.6l1.7-4.6H319.5z"/>
		<path d="M324.9,285.4h-2.2l-0.6,1.7h-0.8l2.2-5.6h0.8l2.1,5.6h-0.8L324.9,285.4z M324.7,284.8l-0.8-2.4l-0.9,2.4H324.7z"/>
		<path d="M329,284.8v2.4h-0.7v-5.6h2.4c0.3,0,0.6,0,0.9,0.1c0.7,0.2,1,0.8,1,1.5c0,0.6-0.3,1.3-1,1.6c-0.3,0.1-0.6,0.1-0.9,0.1H329
			z M329,284.1h1.6c0.4,0,0.7,0,1-0.3c0.2-0.2,0.3-0.5,0.3-0.8c0-0.2,0-0.5-0.3-0.7c-0.2-0.2-0.5-0.2-0.8-0.2H329V284.1z"/>
		<path d="M338.6,284.5v2.7h-0.8v-5.7h3.6v0.7h-2.9v1.7h2.7v0.7H338.6z"/>
		<path d="M346,287.3c-1.7,0-2.8-1.2-2.8-3c0-2.1,1.4-3,2.8-3c1.6,0,2.8,1.1,2.8,2.9C348.8,286,347.8,287.3,346,287.3z M346,282
			c-1.4,0-2,1.1-2,2.4c0,1.2,0.6,2.4,2,2.4c1.5,0,2-1.3,2-2.4C348,282.9,347.3,282,346,282z"/>
		<path d="M352,284.8v2.4h-0.7v-5.6h2.1c0.8,0,1.2,0,1.7,0.3c0.4,0.3,0.6,0.8,0.6,1.3c0,1.3-1.1,1.5-1.3,1.6l1.6,2.4H355l-1.5-2.4
			H352z M352,284.1h1.5c0.2,0,0.5,0,0.7-0.1c0.5-0.1,0.7-0.5,0.7-0.9c0-0.1,0-0.5-0.3-0.8c-0.3-0.2-0.7-0.2-1.1-0.2H352V284.1z"/>
		<path d="M364.2,285.4H362l-0.6,1.7h-0.8l2.2-5.6h0.8l2.1,5.6h-0.8L364.2,285.4z M363.9,284.8l-0.8-2.4l-0.9,2.4H363.9z"/>
		<path d="M377.5,281.5h0.8l-1.7,5.6h-0.7l-1.5-4.7l-1.4,4.7h-0.8l-1.7-5.6h0.8l1.3,4.7l1.4-4.7h0.7l1.5,4.7L377.5,281.5z"/>
		<path d="M381.1,284.6v1.9h3.3v0.7h-4v-5.6h3.9v0.7h-3.2v1.7h2.8v0.7H381.1z"/>
		<path d="M386.8,281.5h1.8c0.8,0,1.5,0,2.2,0.7c0.7,0.7,0.7,1.7,0.7,2.1c0,0.4,0,1.5-0.8,2.2c-0.7,0.6-1.4,0.6-1.9,0.6h-1.9V281.5z
			 M387.5,282.2v4.3h1c0.5,0,0.9,0,1.2-0.2c0.4-0.2,0.9-0.7,0.9-1.9c0-0.9-0.3-1.8-1.2-2.1c-0.3-0.1-0.6-0.1-1-0.1H387.5z"/>
		<path d="M393.8,281.5h1.8c0.8,0,1.5,0,2.2,0.7c0.7,0.7,0.7,1.7,0.7,2.1c0,0.4,0,1.5-0.8,2.2c-0.7,0.6-1.4,0.6-1.9,0.6h-1.9V281.5z
			 M394.6,282.2v4.3h1c0.5,0,0.9,0,1.2-0.2c0.4-0.2,0.9-0.7,0.9-1.9c0-0.9-0.3-1.8-1.2-2.1c-0.3-0.1-0.6-0.1-1-0.1H394.6z"/>
		<path d="M401.5,281.5v5.6h-0.8v-5.6H401.5z"/>
		<path d="M408.6,281.5v5.6h-0.7l-3.1-4.6l0.1,4.6h-0.7v-5.6h0.7l3.1,4.5l0-4.5H408.6z"/>
		<path d="M416.5,284.2v3h-0.6v-0.8c-0.5,0.7-1.3,0.9-2.1,0.9c-1.7,0-2.8-1.2-2.8-2.9c0-1.4,0.9-3,2.9-3c0.7,0,1.4,0.2,2,0.7
			c0.4,0.4,0.6,0.7,0.6,0.9l-0.8,0.2c-0.1-0.2-0.2-0.4-0.4-0.7c-0.2-0.2-0.7-0.6-1.4-0.6c-1.6,0-2.1,1.3-2.1,2.3
			c0,1.1,0.6,2.3,2.1,2.3c0.7,0,2-0.3,2-1.8h-2v-0.6H416.5z"/>
		<path d="M423,281.5v5.6h-0.8v-5.6H423z"/>
		<path d="M430.1,281.5v5.6h-0.7l-3.1-4.6l0.1,4.6h-0.7v-5.6h0.7l3.1,4.5l0-4.5H430.1z"/>
		<path d="M441.2,285.1c-0.2,1.1-1.1,2.2-2.8,2.2c-1.9,0-2.8-1.4-2.8-3c0-1.6,0.9-3,2.9-3c2,0,2.4,1.4,2.6,1.7l-0.8,0.2
			c-0.1-0.2-0.1-0.4-0.3-0.6c-0.3-0.3-0.8-0.7-1.5-0.7c-0.6,0-1.2,0.2-1.6,0.7c-0.4,0.4-0.5,1-0.5,1.6c0,1.4,0.7,2.4,2,2.4
			c0.8,0,1.7-0.5,1.9-1.7L441.2,285.1z"/>
		<path d="M444,284.8v2.4h-0.7v-5.6h2.1c0.8,0,1.2,0,1.7,0.3c0.4,0.3,0.6,0.8,0.6,1.3c0,1.3-1.1,1.5-1.3,1.6l1.6,2.4H447l-1.5-2.4
			H444z M444,284.1h1.5c0.2,0,0.5,0,0.7-0.1c0.5-0.1,0.7-0.5,0.7-0.9c0-0.1,0-0.5-0.3-0.8c-0.3-0.2-0.7-0.2-1.1-0.2H444V284.1z"/>
		<path d="M452.6,287.3c-1.7,0-2.8-1.2-2.8-3c0-2.1,1.4-3,2.8-3c1.6,0,2.8,1.1,2.8,2.9C455.4,286,454.4,287.3,452.6,287.3z
			 M452.6,282c-1.4,0-2,1.1-2,2.4c0,1.2,0.6,2.4,2,2.4c1.5,0,2-1.3,2-2.4C454.6,282.9,453.9,282,452.6,282z"/>
		<path d="M460.5,285.4h-2.2l-0.6,1.7H457l2.2-5.6h0.8l2.1,5.6h-0.8L460.5,285.4z M460.3,284.8l-0.8-2.4l-0.9,2.4H460.3z"/>
		<path d="M465.1,282.2v5h-0.8v-5h-1.7v-0.7h4.1v0.7H465.1z"/>
		<path d="M469.4,281.5v5.6h-0.8v-5.6H469.4z"/>
		<path d="M474.8,285.4h-2.2l-0.6,1.7h-0.8l2.2-5.6h0.8l2.1,5.6h-0.8L474.8,285.4z M474.6,284.8l-0.8-2.4l-0.9,2.4H474.6z"/>
	</g>
</g>
<g>
	<g>
		<path d="M1023.1,957.3h2.3c0.3,0,0.5,0,0.8,0c0.6,0.1,1.2,0.5,1.2,1.4c0,0.7-0.4,1.1-0.9,1.2c0.2,0.1,1,0.3,1,1.4
			c0,0.3,0,0.9-0.6,1.3c-0.4,0.3-0.8,0.3-1.7,0.3h-2.2V957.3z M1023.8,957.9v1.7h1.2c0.9,0,1.3,0,1.5-0.4c0.1-0.2,0.1-0.3,0.1-0.5
			c0-0.8-0.8-0.8-1.1-0.8H1023.8z M1023.8,960.3v2h1.7c0.4,0,0.5,0,0.7,0c0.5-0.1,0.7-0.5,0.7-0.9c0-0.7-0.5-0.9-0.5-0.9
			c-0.2-0.1-0.4-0.1-1.1-0.1H1023.8z"/>
		<path d="M1030.8,962.3h2.7v0.7h-3.5v-5.7h0.8V962.3z"/>
		<path d="M1036.2,957.3v5.6h-0.8v-5.6H1036.2z"/>
		<path d="M1043.3,957.3v5.6h-0.7l-3.1-4.6l0.1,4.6h-0.7v-5.6h0.7l3.1,4.5l0-4.5H1043.3z"/>
		<path d="M1046.1,957.3h1.8c0.8,0,1.5,0,2.2,0.7c0.7,0.7,0.7,1.7,0.7,2.1c0,0.4,0,1.5-0.8,2.2c-0.7,0.6-1.4,0.6-1.9,0.6h-1.9V957.3
			z M1046.9,957.9v4.3h1c0.5,0,0.9,0,1.2-0.2c0.4-0.2,0.9-0.7,0.9-1.9c0-0.9-0.3-1.8-1.2-2.1c-0.3-0.1-0.6-0.1-1-0.1H1046.9z"/>
		<path d="M1057,962.3h2.7v0.7h-3.5v-5.7h0.8V962.3z"/>
		<path d="M1062.4,960.4v1.9h3.3v0.7h-4v-5.6h3.9v0.7h-3.2v1.7h2.8v0.7H1062.4z"/>
		<path d="M1069.6,957.9v5h-0.8v-5h-1.7v-0.7h4.1v0.7H1069.6z"/>
		<path d="M1075.2,957.9v5h-0.8v-5h-1.7v-0.7h4.1v0.7H1075.2z"/>
		<path d="M1079.5,960.4v1.9h3.3v0.7h-4v-5.6h3.9v0.7h-3.2v1.7h2.8v0.7H1079.5z"/>
		<path d="M1085.9,960.5v2.4h-0.7v-5.6h2.1c0.8,0,1.2,0,1.7,0.3c0.4,0.3,0.6,0.8,0.6,1.3c0,1.3-1.1,1.5-1.3,1.6l1.6,2.4h-0.9
			l-1.5-2.4H1085.9z M1085.9,959.9h1.5c0.2,0,0.5,0,0.7-0.1c0.5-0.1,0.7-0.5,0.7-0.9c0-0.1,0-0.5-0.3-0.8c-0.3-0.2-0.7-0.2-1.1-0.2
			h-1.5V959.9z"/>
		<path d="M1092.7,960.5v2.4h-0.7v-5.6h2.4c0.3,0,0.6,0,0.9,0.1c0.7,0.2,1,0.8,1,1.5c0,0.6-0.3,1.3-1,1.6c-0.3,0.1-0.6,0.1-0.9,0.1
			H1092.7z M1092.7,959.9h1.6c0.4,0,0.7,0,1-0.3c0.2-0.2,0.3-0.5,0.3-0.8c0-0.2,0-0.5-0.3-0.7c-0.2-0.2-0.5-0.2-0.8-0.2h-1.7V959.9z
			"/>
		<path d="M1099.1,960.5v2.4h-0.7v-5.6h2.1c0.8,0,1.2,0,1.7,0.3c0.4,0.3,0.6,0.8,0.6,1.3c0,1.3-1.1,1.5-1.3,1.6l1.6,2.4h-0.9
			l-1.5-2.4H1099.1z M1099.1,959.9h1.5c0.2,0,0.5,0,0.7-0.1c0.5-0.1,0.7-0.5,0.7-0.9c0-0.1,0-0.5-0.3-0.8c-0.3-0.2-0.7-0.2-1.1-0.2
			h-1.5V959.9z"/>
		<path d="M1106,960.4v1.9h3.3v0.7h-4v-5.6h3.9v0.7h-3.2v1.7h2.8v0.7H1106z"/>
		<path d="M1113.4,960.3c-0.8-0.2-2-0.4-2-1.6c0-0.6,0.3-0.9,0.5-1.1c0.5-0.4,1.1-0.5,1.5-0.5c0.4,0,1,0,1.5,0.4
			c0.6,0.4,0.7,1,0.7,1.3l-0.8,0c0-0.2,0-0.6-0.5-0.9c-0.3-0.2-0.6-0.3-1-0.3c-0.7,0-1.3,0.3-1.3,0.9c0,0.6,0.6,0.8,1.1,0.9l0.6,0.2
			c0.4,0.1,0.7,0.2,0.9,0.2c0.8,0.4,1,1,1,1.4c0,0.5-0.2,1-0.7,1.4c-0.5,0.4-1.2,0.4-1.5,0.4c-0.5,0-2.3-0.1-2.4-1.9l0.8-0.1
			c0,0.2,0,0.7,0.5,1.1c0.3,0.3,0.7,0.4,1.2,0.4c0.8,0,1.4-0.4,1.4-1.1c0-0.7-0.5-0.8-1.1-0.9L1113.4,960.3z"/>
		<path d="M1120.1,960.3c-0.8-0.2-2-0.4-2-1.6c0-0.6,0.3-0.9,0.5-1.1c0.5-0.4,1.1-0.5,1.5-0.5c0.4,0,1,0,1.5,0.4
			c0.6,0.4,0.7,1,0.7,1.3l-0.8,0c0-0.2,0-0.6-0.5-0.9c-0.3-0.2-0.6-0.3-1-0.3c-0.7,0-1.3,0.3-1.3,0.9c0,0.6,0.6,0.8,1.1,0.9l0.6,0.2
			c0.4,0.1,0.7,0.2,0.9,0.2c0.8,0.4,1,1,1,1.4c0,0.5-0.2,1-0.7,1.4c-0.5,0.4-1.2,0.4-1.5,0.4c-0.5,0-2.3-0.1-2.4-1.9l0.8-0.1
			c0,0.2,0,0.7,0.5,1.1c0.3,0.3,0.7,0.4,1.2,0.4c0.8,0,1.4-0.4,1.4-1.1c0-0.7-0.5-0.8-1.1-0.9L1120.1,960.3z"/>
		<path d="M1125.6,960.4v1.9h3.3v0.7h-4v-5.6h3.9v0.7h-3.2v1.7h2.8v0.7H1125.6z"/>
		<path d="M1131.2,957.3h1.8c0.8,0,1.5,0,2.2,0.7c0.7,0.7,0.7,1.7,0.7,2.1c0,0.4,0,1.5-0.8,2.2c-0.7,0.6-1.4,0.6-1.9,0.6h-1.9V957.3
			z M1132,957.9v4.3h1c0.5,0,0.9,0,1.2-0.2c0.4-0.2,0.9-0.7,0.9-1.9c0-0.9-0.3-1.8-1.2-2.1c-0.3-0.1-0.6-0.1-1-0.1H1132z"/>
		<path d="M1028.4,974.9c-0.2,1.1-1.1,2.2-2.8,2.2c-1.9,0-2.8-1.4-2.8-3c0-1.6,0.9-3,2.9-3c2,0,2.4,1.4,2.6,1.7l-0.8,0.2
			c-0.1-0.2-0.1-0.4-0.3-0.6c-0.3-0.3-0.8-0.7-1.5-0.7c-0.6,0-1.2,0.2-1.6,0.7c-0.4,0.4-0.5,1-0.5,1.6c0,1.4,0.7,2.4,2,2.4
			c0.8,0,1.7-0.5,1.9-1.7L1028.4,974.9z"/>
		<path d="M1031.2,974.4v1.9h3.3v0.7h-4v-5.6h3.9v0.7h-3.2v1.7h2.8v0.7H1031.2z"/>
		<path d="M1037.6,974.5v2.4h-0.7v-5.6h2.1c0.8,0,1.2,0,1.7,0.3c0.4,0.3,0.6,0.8,0.6,1.3c0,1.3-1.1,1.5-1.3,1.6l1.6,2.4h-0.9
			l-1.5-2.4H1037.6z M1037.6,973.9h1.5c0.2,0,0.5,0,0.7-0.1c0.5-0.1,0.7-0.5,0.7-0.9c0-0.1,0-0.5-0.3-0.8c-0.3-0.2-0.7-0.2-1.1-0.2
			h-1.5V973.9z"/>
		<path d="M1044.4,974.4v1.9h3.3v0.7h-4v-5.6h3.9v0.7h-3.2v1.7h2.8v0.7H1044.4z"/>
		<path d="M1055.4,971.3v5.6h-0.7l0.1-4.7l-1.8,4.7h-0.6l-1.8-4.7l0.1,4.7h-0.7v-5.6h1l1.7,4.6l1.7-4.6H1055.4z"/>
		<path d="M1060.6,977.1c-1.7,0-2.8-1.2-2.8-3c0-2.1,1.4-3,2.8-3c1.6,0,2.8,1.1,2.8,2.9C1063.4,975.7,1062.4,977.1,1060.6,977.1z
			 M1060.6,971.7c-1.4,0-2,1.1-2,2.4c0,1.2,0.6,2.4,2,2.4c1.5,0,2-1.3,2-2.4C1062.6,972.7,1061.9,971.7,1060.6,971.7z"/>
		<path d="M1070.2,971.3v5.6h-0.7l-3.1-4.6l0.1,4.6h-0.7v-5.6h0.7l3.1,4.5l0-4.5H1070.2z"/>
		<path d="M1074.9,974.3v2.6h-0.8v-2.6l-2-3.1h0.9l1.5,2.4l1.5-2.4h0.9L1074.9,974.3z"/>
		<path d="M1083,974.5v2.4h-0.7v-5.6h2.4c0.3,0,0.6,0,0.9,0.1c0.7,0.2,1,0.8,1,1.5c0,0.6-0.3,1.3-1,1.6c-0.3,0.1-0.6,0.1-0.9,0.1
			H1083z M1083,973.9h1.6c0.4,0,0.7,0,1-0.3c0.2-0.2,0.3-0.5,0.3-0.8c0-0.2,0-0.5-0.3-0.7c-0.2-0.2-0.5-0.2-0.8-0.2h-1.7V973.9z"/>
		<path d="M1089.4,974.5v2.4h-0.7v-5.6h2.1c0.8,0,1.2,0,1.7,0.3c0.4,0.3,0.6,0.8,0.6,1.3c0,1.3-1.1,1.5-1.3,1.6l1.6,2.4h-0.9
			l-1.5-2.4H1089.4z M1089.4,973.9h1.5c0.2,0,0.5,0,0.7-0.1c0.5-0.1,0.7-0.5,0.7-0.9c0-0.1,0-0.5-0.3-0.8c-0.3-0.2-0.7-0.2-1.1-0.2
			h-1.5V973.9z"/>
		<path d="M1097.9,977.1c-1.7,0-2.8-1.2-2.8-3c0-2.1,1.4-3,2.8-3c1.6,0,2.8,1.1,2.8,2.9C1100.8,975.7,1099.8,977.1,1097.9,977.1z
			 M1098,971.7c-1.4,0-2,1.1-2,2.4c0,1.2,0.6,2.4,2,2.4c1.5,0,2-1.3,2-2.4C1100,972.7,1099.3,971.7,1098,971.7z"/>
		<path d="M1108.5,973.9v3h-0.6v-0.8c-0.5,0.7-1.3,0.9-2.1,0.9c-1.7,0-2.8-1.2-2.8-2.9c0-1.4,0.9-3,2.9-3c0.7,0,1.4,0.2,2,0.7
			c0.4,0.4,0.6,0.7,0.6,0.9l-0.8,0.2c-0.1-0.2-0.2-0.4-0.4-0.7c-0.2-0.2-0.7-0.6-1.4-0.6c-1.6,0-2.1,1.3-2.1,2.3
			c0,1.1,0.6,2.3,2.1,2.3c0.7,0,2-0.3,2-1.8h-2v-0.6H1108.5z"/>
		<path d="M1112,974.5v2.4h-0.7v-5.6h2.1c0.8,0,1.2,0,1.7,0.3c0.4,0.3,0.6,0.8,0.6,1.3c0,1.3-1.1,1.5-1.3,1.6l1.6,2.4h-0.9l-1.5-2.4
			H1112z M1112,973.9h1.5c0.2,0,0.5,0,0.7-0.1c0.5-0.1,0.7-0.5,0.7-0.9c0-0.1,0-0.5-0.3-0.8c-0.3-0.2-0.7-0.2-1.1-0.2h-1.5V973.9z"
			/>
		<path d="M1120.8,975.2h-2.2l-0.6,1.7h-0.8l2.2-5.6h0.8l2.1,5.6h-0.8L1120.8,975.2z M1120.6,974.6l-0.8-2.4l-0.9,2.4H1120.6z"/>
		<path d="M1129.5,971.3v5.6h-0.7l0.1-4.7l-1.8,4.7h-0.6l-1.8-4.7l0.1,4.7h-0.7v-5.6h1l1.7,4.6l1.7-4.6H1129.5z"/>
		<path d="M1137.1,971.9v5h-0.8v-5h-1.7v-0.7h4.1v0.7H1137.1z"/>
		<path d="M1141.4,971.3v5.6h-0.8v-5.6H1141.4z"/>
		<path d="M1144.8,974.4v1.9h3.3v0.7h-4v-5.6h3.9v0.7h-3.2v1.7h2.8v0.7H1144.8z"/>
		<path d="M1150.5,971.3h1.8c0.8,0,1.5,0,2.2,0.7c0.7,0.7,0.7,1.7,0.7,2.1c0,0.4,0,1.5-0.8,2.2c-0.7,0.6-1.4,0.6-1.9,0.6h-1.9V971.3
			z M1151.2,971.9v4.3h1c0.5,0,0.9,0,1.2-0.2c0.4-0.2,0.9-0.7,0.9-1.9c0-0.9-0.3-1.8-1.2-2.1c-0.3-0.1-0.6-0.1-1-0.1H1151.2z"/>
		<path d="M1029.7,985.3h0.8l-1.7,5.6h-0.7l-1.5-4.7l-1.4,4.7h-0.8l-1.7-5.6h0.8l1.3,4.7l1.4-4.7h0.7l1.5,4.7L1029.7,985.3z"/>
		<path d="M1033.3,985.3v5.6h-0.8v-5.6H1033.3z"/>
		<path d="M1037.6,985.9v5h-0.8v-5h-1.7v-0.7h4.1v0.7H1037.6z"/>
		<path d="M1045,988.3h-3.1v2.6h-0.8v-5.7h0.8v2.4h3.1v-2.4h0.8v5.7h-0.8V988.3z"/>
		<path d="M1053.6,988.3c-0.8-0.2-2-0.4-2-1.6c0-0.6,0.3-0.9,0.5-1.1c0.5-0.4,1.1-0.5,1.5-0.5c0.4,0,1,0,1.5,0.4
			c0.6,0.4,0.7,1,0.7,1.3l-0.8,0c0-0.2,0-0.6-0.5-0.9c-0.3-0.2-0.6-0.3-1-0.3c-0.7,0-1.3,0.3-1.3,0.9c0,0.6,0.6,0.8,1.1,0.9l0.6,0.2
			c0.4,0.1,0.7,0.2,0.9,0.2c0.8,0.4,1,1,1,1.4c0,0.5-0.2,1-0.7,1.4c-0.5,0.4-1.2,0.4-1.5,0.4c-0.5,0-2.3-0.1-2.4-1.9l0.8-0.1
			c0,0.2,0,0.7,0.5,1.1c0.3,0.3,0.7,0.4,1.2,0.4c0.8,0,1.4-0.4,1.4-1.1c0-0.7-0.5-0.8-1.1-0.9L1053.6,988.3z"/>
		<path d="M1059,985.3v5.6h-0.8v-5.6H1059z"/>
		<path d="M1062.4,990.3h2.7v0.7h-3.5v-5.7h0.8V990.3z"/>
		<path d="M1068.5,988.2l-0.8,0.8v2h-0.8v-5.6h0.8v2.8l2.7-2.8h0.9l-2.3,2.3l2.4,3.3h-0.9L1068.5,988.2z"/>
		<path d="M1077.4,988.5v2.4h-0.7v-5.6h2.1c0.8,0,1.2,0,1.7,0.3c0.4,0.3,0.6,0.8,0.6,1.3c0,1.3-1.1,1.5-1.3,1.6l1.6,2.4h-0.9
			l-1.5-2.4H1077.4z M1077.4,987.9h1.5c0.2,0,0.5,0,0.7-0.1c0.5-0.1,0.7-0.5,0.7-0.9c0-0.1,0-0.5-0.3-0.8c-0.3-0.2-0.7-0.2-1.1-0.2
			h-1.5V987.9z"/>
		<path d="M1084.2,985.3v5.6h-0.8v-5.6H1084.2z"/>
		<path d="M1086.9,985.3h2.3c0.3,0,0.5,0,0.8,0c0.6,0.1,1.2,0.5,1.2,1.4c0,0.7-0.4,1.1-0.9,1.2c0.2,0.1,1,0.3,1,1.4
			c0,0.3,0,0.9-0.6,1.3c-0.4,0.3-0.8,0.3-1.7,0.3h-2.2V985.3z M1087.6,985.9v1.7h1.2c0.9,0,1.3,0,1.5-0.4c0.1-0.2,0.1-0.3,0.1-0.5
			c0-0.8-0.8-0.8-1.1-0.8H1087.6z M1087.6,988.3v2h1.7c0.4,0,0.5,0,0.7,0c0.5-0.1,0.7-0.5,0.7-0.9c0-0.7-0.5-0.9-0.5-0.9
			c-0.2-0.1-0.4-0.1-1.1-0.1H1087.6z"/>
		<path d="M1093.9,985.3h2.3c0.3,0,0.5,0,0.8,0c0.6,0.1,1.2,0.5,1.2,1.4c0,0.7-0.4,1.1-0.9,1.2c0.2,0.1,1,0.3,1,1.4
			c0,0.3,0,0.9-0.6,1.3c-0.4,0.3-0.8,0.3-1.7,0.3h-2.2V985.3z M1094.6,985.9v1.7h1.2c0.9,0,1.3,0,1.5-0.4c0.1-0.2,0.1-0.3,0.1-0.5
			c0-0.8-0.8-0.8-1.1-0.8H1094.6z M1094.6,988.3v2h1.7c0.4,0,0.5,0,0.7,0c0.5-0.1,0.7-0.5,0.7-0.9c0-0.7-0.5-0.9-0.5-0.9
			c-0.2-0.1-0.4-0.1-1.1-0.1H1094.6z"/>
		<path d="M1103.6,991.1c-1.7,0-2.8-1.2-2.8-3c0-2.1,1.4-3,2.8-3c1.6,0,2.8,1.1,2.8,2.9C1106.4,989.7,1105.4,991.1,1103.6,991.1z
			 M1103.6,985.7c-1.4,0-2,1.1-2,2.4c0,1.2,0.6,2.4,2,2.4c1.5,0,2-1.3,2-2.4C1105.6,986.7,1104.9,985.7,1103.6,985.7z"/>
		<path d="M1113.2,985.3v5.6h-0.7l-3.1-4.6l0.1,4.6h-0.7v-5.6h0.7l3.1,4.5l0-4.5H1113.2z"/>
	</g>
</g>
<g>
	<g>
		<path d="M134.1,1449.8v1.9h3.3v0.7h-4v-5.6h3.9v0.7h-3.2v1.7h2.8v0.7H134.1z"/>
		<path d="M144.2,1446.7v5.6h-0.7l-3.1-4.6l0.1,4.6h-0.7v-5.6h0.7l3.1,4.5l0-4.5H144.2z"/>
		<path d="M152.1,1449.4v3h-0.6v-0.8c-0.5,0.7-1.3,0.9-2.1,0.9c-1.7,0-2.8-1.2-2.8-2.9c0-1.4,0.9-3,2.9-3c0.7,0,1.4,0.2,2,0.7
			c0.4,0.4,0.6,0.7,0.6,0.9l-0.8,0.2c-0.1-0.2-0.2-0.4-0.4-0.7c-0.2-0.2-0.7-0.6-1.4-0.6c-1.6,0-2.1,1.3-2.1,2.3
			c0,1.1,0.6,2.3,2.1,2.3c0.7,0,2-0.3,2-1.8h-2v-0.6H152.1z"/>
		<path d="M155.6,1450v2.4h-0.7v-5.6h2.1c0.8,0,1.2,0,1.7,0.3c0.4,0.3,0.6,0.8,0.6,1.3c0,1.3-1.1,1.5-1.3,1.6l1.6,2.4h-0.9l-1.5-2.4
			H155.6z M155.6,1449.4h1.5c0.2,0,0.5,0,0.7-0.1c0.5-0.1,0.7-0.5,0.7-0.9c0-0.1,0-0.5-0.3-0.8c-0.3-0.2-0.7-0.2-1.1-0.2h-1.5
			V1449.4z"/>
		<path d="M164.4,1450.7h-2.2l-0.6,1.7h-0.8l2.2-5.6h0.8l2.1,5.6H165L164.4,1450.7z M164.2,1450l-0.8-2.4l-0.9,2.4H164.2z"/>
		<path d="M170.7,1446.7h0.8l-2,5.6h-0.8l-1.9-5.6h0.8l1.5,4.7L170.7,1446.7z"/>
		<path d="M174.2,1449.8v1.9h3.3v0.7h-4v-5.6h3.9v0.7h-3.2v1.7h2.8v0.7H174.2z"/>
		<path d="M179.8,1446.7h1.8c0.8,0,1.5,0,2.2,0.7c0.7,0.7,0.7,1.7,0.7,2.1c0,0.4,0,1.5-0.8,2.2c-0.7,0.6-1.4,0.6-1.9,0.6h-1.9
			V1446.7z M180.6,1447.4v4.3h1c0.5,0,0.9,0,1.2-0.2c0.4-0.2,0.9-0.7,0.9-1.9c0-0.9-0.3-1.8-1.2-2.1c-0.3-0.1-0.6-0.1-1-0.1H180.6z"
			/>
		<path d="M134.1,1464v2.4h-0.7v-5.6h2.4c0.3,0,0.6,0,0.9,0.1c0.7,0.2,1,0.8,1,1.5c0,0.6-0.3,1.3-1,1.6c-0.3,0.1-0.6,0.1-0.9,0.1
			H134.1z M134.1,1463.3h1.6c0.4,0,0.7,0,1-0.3c0.2-0.2,0.3-0.5,0.3-0.8c0-0.2,0-0.5-0.3-0.7c-0.2-0.2-0.5-0.2-0.8-0.2h-1.7V1463.3z
			"/>
		<path d="M140.5,1463.8v1.9h3.3v0.7h-4v-5.6h3.9v0.7h-3.2v1.7h2.8v0.7H140.5z"/>
		<path d="M146.9,1464v2.4h-0.7v-5.6h2.1c0.8,0,1.2,0,1.7,0.3c0.4,0.3,0.6,0.8,0.6,1.3c0,1.3-1.1,1.5-1.3,1.6l1.6,2.4h-0.9l-1.5-2.4
			H146.9z M146.9,1463.4h1.5c0.2,0,0.5,0,0.7-0.1c0.5-0.1,0.7-0.5,0.7-0.9c0-0.1,0-0.5-0.3-0.8c-0.3-0.2-0.7-0.2-1.1-0.2h-1.5
			V1463.4z"/>
		<path d="M155,1463.8c-0.8-0.2-2-0.4-2-1.6c0-0.6,0.3-0.9,0.5-1.1c0.5-0.4,1.1-0.5,1.5-0.5c0.4,0,1,0,1.5,0.4
			c0.6,0.4,0.7,1,0.7,1.3l-0.8,0c0-0.2,0-0.6-0.5-0.9c-0.3-0.2-0.6-0.3-1-0.3c-0.7,0-1.3,0.3-1.3,0.9c0,0.6,0.6,0.8,1.1,0.9l0.6,0.2
			c0.4,0.1,0.7,0.2,0.9,0.2c0.8,0.4,1,1,1,1.4c0,0.5-0.2,1-0.7,1.4c-0.5,0.4-1.2,0.4-1.5,0.4c-0.5,0-2.3-0.1-2.4-1.9l0.8-0.1
			c0,0.2,0,0.7,0.5,1.1c0.3,0.3,0.7,0.4,1.2,0.4c0.8,0,1.4-0.4,1.4-1.1c0-0.7-0.5-0.8-1.1-0.9L155,1463.8z"/>
		<path d="M162.3,1466.5c-1.7,0-2.8-1.2-2.8-3c0-2.1,1.4-3,2.8-3c1.6,0,2.8,1.1,2.8,2.9C165.2,1465.2,164.2,1466.5,162.3,1466.5z
			 M162.3,1461.2c-1.4,0-2,1.1-2,2.4c0,1.2,0.6,2.4,2,2.4c1.5,0,2-1.3,2-2.4C164.4,1462.1,163.6,1461.2,162.3,1461.2z"/>
		<path d="M172,1460.7v5.6h-0.7l-3.1-4.6l0.1,4.6h-0.7v-5.6h0.7l3.1,4.5l0-4.5H172z"/>
		<path d="M177.5,1464.7h-2.2l-0.6,1.7h-0.8l2.2-5.6h0.8l2.1,5.6h-0.8L177.5,1464.7z M177.3,1464l-0.8-2.4l-0.9,2.4H177.3z"/>
		<path d="M181.5,1465.7h2.7v0.7h-3.5v-5.7h0.8V1465.7z"/>
		<path d="M191.5,1463.8c-0.8-0.2-2-0.4-2-1.6c0-0.6,0.3-0.9,0.5-1.1c0.5-0.4,1.1-0.5,1.5-0.5c0.4,0,1,0,1.5,0.4
			c0.6,0.4,0.7,1,0.7,1.3l-0.8,0c0-0.2,0-0.6-0.5-0.9c-0.3-0.2-0.6-0.3-1-0.3c-0.7,0-1.3,0.3-1.3,0.9c0,0.6,0.6,0.8,1.1,0.9l0.6,0.2
			c0.4,0.1,0.7,0.2,0.9,0.2c0.8,0.4,1,1,1,1.4c0,0.5-0.2,1-0.7,1.4c-0.5,0.4-1.2,0.4-1.5,0.4c-0.5,0-2.3-0.1-2.4-1.9l0.8-0.1
			c0,0.2,0,0.7,0.5,1.1c0.3,0.3,0.7,0.4,1.2,0.4c0.8,0,1.4-0.4,1.4-1.1c0-0.7-0.5-0.8-1.1-0.9L191.5,1463.8z"/>
		<path d="M197.8,1461.4v5h-0.8v-5h-1.7v-0.7h4.1v0.7H197.8z"/>
		<path d="M203.7,1464.7h-2.2l-0.6,1.7h-0.8l2.2-5.6h0.8l2.1,5.6h-0.8L203.7,1464.7z M203.4,1464l-0.8-2.4l-0.9,2.4H203.4z"/>
		<path d="M208.3,1461.4v5h-0.8v-5h-1.7v-0.7h4.1v0.7H208.3z"/>
		<path d="M212.6,1460.7v5.6h-0.8v-5.6H212.6z"/>
		<path d="M217.7,1466.5c-1.7,0-2.8-1.2-2.8-3c0-2.1,1.4-3,2.8-3c1.6,0,2.8,1.1,2.8,2.9C220.6,1465.2,219.6,1466.5,217.7,1466.5z
			 M217.7,1461.2c-1.4,0-2,1.1-2,2.4c0,1.2,0.6,2.4,2,2.4c1.5,0,2-1.3,2-2.4C219.7,1462.1,219,1461.2,217.7,1461.2z"/>
		<path d="M227.4,1460.7v5.6h-0.7l-3.1-4.6l0.1,4.6h-0.7v-5.6h0.7l3.1,4.5l0-4.5H227.4z"/>
		<path d="M230.9,1463.8v1.9h3.3v0.7h-4v-5.6h3.9v0.7h-3.2v1.7h2.8v0.7H230.9z"/>
		<path d="M237.3,1464v2.4h-0.7v-5.6h2.1c0.8,0,1.2,0,1.7,0.3c0.4,0.3,0.6,0.8,0.6,1.3c0,1.3-1.1,1.5-1.3,1.6l1.6,2.4h-0.9l-1.5-2.4
			H237.3z M237.3,1463.4h1.5c0.2,0,0.5,0,0.7-0.1c0.5-0.1,0.7-0.5,0.7-0.9c0-0.1,0-0.5-0.3-0.8c-0.3-0.2-0.7-0.2-1.1-0.2h-1.5
			V1463.4z"/>
		<path d="M245,1463.8v2.6h-0.8v-2.6l-2-3.1h0.9l1.5,2.4l1.5-2.4h0.9L245,1463.8z"/>
		<path d="M134.2,1477.7v2.7h-0.8v-5.7h3.6v0.7h-2.9v1.7h2.7v0.7H134.2z"/>
		<path d="M141.5,1480.5c-1.7,0-2.8-1.2-2.8-3c0-2.1,1.4-3,2.8-3c1.6,0,2.8,1.1,2.8,2.9C144.4,1479.2,143.4,1480.5,141.5,1480.5z
			 M141.6,1475.2c-1.4,0-2,1.1-2,2.4c0,1.2,0.6,2.4,2,2.4c1.5,0,2-1.3,2-2.4C143.6,1476.1,142.9,1475.2,141.6,1475.2z"/>
		<path d="M147.5,1478v2.4h-0.7v-5.6h2.1c0.8,0,1.2,0,1.7,0.3c0.4,0.3,0.6,0.8,0.6,1.3c0,1.3-1.1,1.5-1.3,1.6l1.6,2.4h-0.9l-1.5-2.4
			H147.5z M147.5,1477.4h1.5c0.2,0,0.5,0,0.7-0.1c0.5-0.1,0.7-0.5,0.7-0.9c0-0.1,0-0.5-0.3-0.8c-0.3-0.2-0.7-0.2-1.1-0.2h-1.5
			V1477.4z"/>
		<path d="M159.7,1478.7h-2.2l-0.6,1.7h-0.8l2.2-5.6h0.8l2.1,5.6h-0.8L159.7,1478.7z M159.5,1478l-0.8-2.4l-0.9,2.4H159.5z"/>
		<path d="M166.4,1474.7h2.3c0.3,0,0.5,0,0.8,0c0.6,0.1,1.2,0.5,1.2,1.4c0,0.7-0.4,1.1-0.9,1.2c0.2,0.1,1,0.3,1,1.4
			c0,0.3,0,0.9-0.6,1.3c-0.4,0.3-0.8,0.3-1.7,0.3h-2.2V1474.7z M167.1,1475.4v1.7h1.2c0.9,0,1.3,0,1.5-0.4c0.1-0.2,0.1-0.3,0.1-0.5
			c0-0.8-0.8-0.8-1.1-0.8H167.1z M167.1,1477.8v2h1.7c0.4,0,0.5,0,0.7,0c0.5-0.1,0.7-0.5,0.7-0.9c0-0.7-0.5-0.9-0.5-0.9
			c-0.2-0.1-0.4-0.1-1.1-0.1H167.1z"/>
		<path d="M176.2,1478.7H174l-0.6,1.7h-0.8l2.2-5.6h0.8l2.1,5.6h-0.8L176.2,1478.7z M176,1478l-0.8-2.4l-0.9,2.4H176z"/>
		<path d="M179.5,1474.7h2.3c0.3,0,0.5,0,0.8,0c0.6,0.1,1.2,0.5,1.2,1.4c0,0.7-0.4,1.1-0.9,1.2c0.2,0.1,1,0.3,1,1.4
			c0,0.3,0,0.9-0.6,1.3c-0.4,0.3-0.8,0.3-1.7,0.3h-2.2V1474.7z M180.2,1475.4v1.7h1.2c0.9,0,1.3,0,1.5-0.4c0.1-0.2,0.1-0.3,0.1-0.5
			c0-0.8-0.8-0.8-1.1-0.8H180.2z M180.2,1477.8v2h1.7c0.4,0,0.5,0,0.7,0c0.5-0.1,0.7-0.5,0.7-0.9c0-0.7-0.5-0.9-0.5-0.9
			c-0.2-0.1-0.4-0.1-1.1-0.1H180.2z"/>
		<path d="M188.1,1477.8v2.6h-0.8v-2.6l-2-3.1h0.9l1.5,2.4l1.5-2.4h0.9L188.1,1477.8z"/>
		<path d="M195.4,1474.7h2.3c0.3,0,0.5,0,0.8,0c0.6,0.1,1.2,0.5,1.2,1.4c0,0.7-0.4,1.1-0.9,1.2c0.2,0.1,1,0.3,1,1.4
			c0,0.3,0,0.9-0.6,1.3c-0.4,0.3-0.8,0.3-1.7,0.3h-2.2V1474.7z M196.2,1475.4v1.7h1.2c0.9,0,1.3,0,1.5-0.4c0.1-0.2,0.1-0.3,0.1-0.5
			c0-0.8-0.8-0.8-1.1-0.8H196.2z M196.2,1477.8v2h1.7c0.4,0,0.5,0,0.7,0c0.5-0.1,0.7-0.5,0.7-0.9c0-0.7-0.5-0.9-0.5-0.9
			c-0.2-0.1-0.4-0.1-1.1-0.1H196.2z"/>
		<path d="M205.1,1480.5c-1.7,0-2.8-1.2-2.8-3c0-2.1,1.4-3,2.8-3c1.6,0,2.8,1.1,2.8,2.9C208,1479.2,207,1480.5,205.1,1480.5z
			 M205.1,1475.2c-1.4,0-2,1.1-2,2.4c0,1.2,0.6,2.4,2,2.4c1.5,0,2-1.3,2-2.4C207.1,1476.1,206.4,1475.2,205.1,1475.2z"/>
		<path d="M211.9,1477.8v2.6h-0.8v-2.6l-2-3.1h0.9l1.5,2.4l1.5-2.4h0.9L211.9,1477.8z"/>
	</g>
</g>
<g>
	<g>
		<path d="M408.7,1544.4v5.6H408l0.1-4.7l-1.8,4.7h-0.6l-1.8-4.7l0.1,4.7h-0.7v-5.6h1l1.7,4.6l1.7-4.6H408.7z"/>
		<path d="M412.1,1544.4v5.6h-0.8v-5.6H412.1z"/>
		<path d="M419.2,1544.4v5.6h-0.7l-3.1-4.6l0.1,4.6h-0.7v-5.6h0.7l3.1,4.5l0-4.5H419.2z"/>
		<path d="M422.7,1544.4v5.6h-0.8v-5.6H422.7z"/>
		<path d="M428.1,1548.4h-2.2l-0.6,1.7h-0.8l2.2-5.6h0.8l2.1,5.6h-0.8L428.1,1548.4z M427.8,1547.7l-0.8-2.4l-0.9,2.4H427.8z"/>
		<path d="M432.6,1545.1v5h-0.8v-5h-1.7v-0.7h4.1v0.7H432.6z"/>
		<path d="M440.5,1544.4v3.6c0,0.2,0,0.5-0.1,0.7c-0.2,0.7-0.8,1.4-2.1,1.4c-0.4,0-1.2-0.1-1.7-0.8c-0.4-0.5-0.4-0.9-0.4-1.5v-3.5
			h0.8v3.4c0,0.5,0,1,0.3,1.3c0.3,0.4,0.8,0.4,1.1,0.4c0.7,0,1.2-0.3,1.4-0.9c0.1-0.2,0.1-0.5,0.1-0.8v-3.4H440.5z"/>
		<path d="M444,1547.7v2.4h-0.7v-5.6h2.1c0.8,0,1.2,0,1.7,0.3c0.4,0.3,0.6,0.8,0.6,1.3c0,1.3-1.1,1.5-1.3,1.6l1.6,2.4H447l-1.5-2.4
			H444z M444,1547.1h1.5c0.2,0,0.5,0,0.7-0.1c0.5-0.1,0.7-0.5,0.7-0.9c0-0.1,0-0.5-0.3-0.8c-0.3-0.2-0.7-0.2-1.1-0.2H444V1547.1z"/>
		<path d="M450.9,1547.5v1.9h3.3v0.7h-4v-5.6h3.9v0.7h-3.2v1.7h2.8v0.7H450.9z"/>
		<path d="M464.9,1544.4v5.6h-0.7l0.1-4.7l-1.8,4.7h-0.6l-1.8-4.7l0.1,4.7h-0.7v-5.6h1l1.7,4.6l1.7-4.6H464.9z"/>
		<path d="M470,1550.2c-1.7,0-2.8-1.2-2.8-3c0-2.1,1.4-3,2.8-3c1.6,0,2.8,1.1,2.8,2.9C472.9,1548.9,471.9,1550.2,470,1550.2z
			 M470.1,1544.9c-1.4,0-2,1.1-2,2.4c0,1.2,0.6,2.4,2,2.4c1.5,0,2-1.3,2-2.4C472.1,1545.8,471.4,1544.9,470.1,1544.9z"/>
		<path d="M480.6,1548c-0.2,1.1-1.1,2.2-2.8,2.2c-1.9,0-2.8-1.4-2.8-3c0-1.6,0.9-3,2.9-3c2,0,2.4,1.4,2.6,1.7l-0.8,0.2
			c-0.1-0.2-0.1-0.4-0.3-0.6c-0.3-0.3-0.8-0.7-1.5-0.7c-0.6,0-1.2,0.2-1.6,0.7c-0.4,0.4-0.5,1-0.5,1.6c0,1.4,0.7,2.4,2,2.4
			c0.8,0,1.7-0.5,1.9-1.7L480.6,1548z"/>
		<path d="M484.1,1547.3l-0.8,0.8v2h-0.8v-5.6h0.8v2.8l2.7-2.8h0.9l-2.3,2.3l2.4,3.3h-0.9L484.1,1547.3z"/>
		<path d="M493.3,1544.4v3.6c0,0.2,0,0.5-0.1,0.7c-0.2,0.7-0.8,1.4-2.1,1.4c-0.4,0-1.2-0.1-1.7-0.8c-0.4-0.5-0.4-0.9-0.4-1.5v-3.5
			h0.8v3.4c0,0.5,0,1,0.3,1.3c0.3,0.4,0.8,0.4,1.1,0.4c0.7,0,1.2-0.3,1.4-0.9c0.1-0.2,0.1-0.5,0.1-0.8v-3.4H493.3z"/>
		<path d="M496.8,1547.7v2.4h-0.7v-5.6h2.4c0.3,0,0.6,0,0.9,0.1c0.7,0.2,1,0.8,1,1.5c0,0.6-0.3,1.3-1,1.6c-0.3,0.1-0.6,0.1-0.9,0.1
			H496.8z M496.8,1547h1.6c0.4,0,0.7,0,1-0.3c0.2-0.2,0.3-0.5,0.3-0.8c0-0.2,0-0.5-0.3-0.7c-0.2-0.2-0.5-0.2-0.8-0.2h-1.7V1547z"/>
		<path d="M404.1,1561.4v2.7h-0.8v-5.7h3.6v0.7h-2.9v1.7h2.7v0.7H404.1z"/>
		<path d="M411.5,1564.2c-1.7,0-2.8-1.2-2.8-3c0-2.1,1.4-3,2.8-3c1.6,0,2.8,1.1,2.8,2.9C414.4,1562.9,413.4,1564.2,411.5,1564.2z
			 M411.6,1558.9c-1.4,0-2,1.1-2,2.4c0,1.2,0.6,2.4,2,2.4c1.5,0,2-1.3,2-2.4C413.6,1559.8,412.9,1558.9,411.6,1558.9z"/>
		<path d="M417.5,1561.7v2.4h-0.7v-5.6h2.1c0.8,0,1.2,0,1.7,0.3c0.4,0.3,0.6,0.8,0.6,1.3c0,1.3-1.1,1.5-1.3,1.6l1.6,2.4h-0.9
			l-1.5-2.4H417.5z M417.5,1561.1h1.5c0.2,0,0.5,0,0.7-0.1c0.5-0.1,0.7-0.5,0.7-0.9c0-0.1,0-0.5-0.3-0.8c-0.3-0.2-0.7-0.2-1.1-0.2
			h-1.5V1561.1z"/>
		<path d="M427.4,1561.4v2.7h-0.8v-5.7h3.6v0.7h-2.9v1.7h2.7v0.7H427.4z"/>
		<path d="M433.1,1561.7v2.4h-0.7v-5.6h2.1c0.8,0,1.2,0,1.7,0.3c0.4,0.3,0.6,0.8,0.6,1.3c0,1.3-1.1,1.5-1.3,1.6l1.6,2.4h-0.9
			l-1.5-2.4H433.1z M433.1,1561.1h1.5c0.2,0,0.5,0,0.7-0.1c0.5-0.1,0.7-0.5,0.7-0.9c0-0.1,0-0.5-0.3-0.8c-0.3-0.2-0.7-0.2-1.1-0.2
			h-1.5V1561.1z"/>
		<path d="M440,1561.5v1.9h3.3v0.7h-4v-5.6h3.9v0.7H440v1.7h2.8v0.7H440z"/>
		<path d="M450,1558.4v5.6h-0.7l-3.1-4.6l0.1,4.6h-0.7v-5.6h0.7l3.1,4.5l0-4.5H450z"/>
		<path d="M458,1562c-0.2,1.1-1.1,2.2-2.8,2.2c-1.9,0-2.8-1.4-2.8-3c0-1.6,0.9-3,2.9-3c2,0,2.4,1.4,2.6,1.7l-0.8,0.2
			c-0.1-0.2-0.1-0.4-0.3-0.6c-0.3-0.3-0.8-0.7-1.5-0.7c-0.6,0-1.2,0.2-1.6,0.7c-0.4,0.4-0.5,1-0.5,1.6c0,1.4,0.7,2.4,2,2.4
			c0.8,0,1.7-0.5,1.9-1.7L458,1562z"/>
		<path d="M463.9,1561.5h-3.1v2.6H460v-5.7h0.8v2.4h3.1v-2.4h0.8v5.7h-0.8V1561.5z"/>
		<path d="M470.4,1558.4h2.3c0.3,0,0.5,0,0.8,0c0.6,0.1,1.2,0.5,1.2,1.4c0,0.7-0.4,1.1-0.9,1.2c0.2,0.1,1,0.3,1,1.4
			c0,0.3,0,0.9-0.6,1.3c-0.4,0.3-0.8,0.3-1.7,0.3h-2.2V1558.4z M471.1,1559.1v1.7h1.2c0.9,0,1.3,0,1.5-0.4c0.1-0.2,0.1-0.3,0.1-0.5
			c0-0.8-0.8-0.8-1.1-0.8H471.1z M471.1,1561.5v2h1.7c0.4,0,0.5,0,0.7,0c0.5-0.1,0.7-0.5,0.7-0.9c0-0.7-0.5-0.9-0.5-0.9
			c-0.2-0.1-0.4-0.1-1.1-0.1H471.1z"/>
		<path d="M478.1,1558.4v5.6h-0.8v-5.6H478.1z"/>
		<path d="M482.6,1561.5c-0.8-0.2-2-0.4-2-1.6c0-0.6,0.3-0.9,0.5-1.1c0.5-0.4,1.1-0.5,1.5-0.5c0.4,0,1,0,1.5,0.4
			c0.6,0.4,0.7,1,0.7,1.3l-0.8,0c0-0.2,0-0.6-0.5-0.9c-0.3-0.2-0.6-0.3-1-0.3c-0.7,0-1.3,0.3-1.3,0.9c0,0.6,0.6,0.8,1.1,0.9l0.6,0.2
			c0.4,0.1,0.7,0.2,0.9,0.2c0.8,0.4,1,1,1,1.4c0,0.5-0.2,1-0.7,1.4c-0.5,0.4-1.2,0.4-1.5,0.4c-0.5,0-2.3-0.1-2.4-1.9l0.8-0.1
			c0,0.2,0,0.7,0.5,1.1c0.3,0.3,0.7,0.4,1.2,0.4c0.8,0,1.4-0.4,1.4-1.1c0-0.7-0.5-0.8-1.1-0.9L482.6,1561.5z"/>
		<path d="M489,1559.1v5h-0.8v-5h-1.7v-0.7h4.1v0.7H489z"/>
		<path d="M493.3,1561.7v2.4h-0.7v-5.6h2.1c0.8,0,1.2,0,1.7,0.3c0.4,0.3,0.6,0.8,0.6,1.3c0,1.3-1.1,1.5-1.3,1.6l1.6,2.4h-0.9
			l-1.5-2.4H493.3z M493.3,1561.1h1.5c0.2,0,0.5,0,0.7-0.1c0.5-0.1,0.7-0.5,0.7-0.9c0-0.1,0-0.5-0.3-0.8c-0.3-0.2-0.7-0.2-1.1-0.2
			h-1.5V1561.1z"/>
		<path d="M501.9,1564.2c-1.7,0-2.8-1.2-2.8-3c0-2.1,1.4-3,2.8-3c1.6,0,2.8,1.1,2.8,2.9C504.8,1562.9,503.8,1564.2,501.9,1564.2z
			 M501.9,1558.9c-1.4,0-2,1.1-2,2.4c0,1.2,0.6,2.4,2,2.4c1.5,0,2-1.3,2-2.4C503.9,1559.8,503.2,1558.9,501.9,1558.9z"/>
		<path d="M515.7,1558.4v5.6h-0.7l0.1-4.7l-1.8,4.7h-0.6l-1.8-4.7l0.1,4.7h-0.7v-5.6h1l1.7,4.6l1.7-4.6H515.7z"/>
		<path d="M519.1,1561.5v1.9h3.3v0.7h-4v-5.6h3.9v0.7h-3.2v1.7h2.8v0.7H519.1z"/>
		<path d="M529.2,1558.4v5.6h-0.7l-3.1-4.6l0.1,4.6h-0.7v-5.6h0.7l3.1,4.5l0-4.5H529.2z"/>
		<path d="M536.2,1558.4v3.6c0,0.2,0,0.5-0.1,0.7c-0.2,0.7-0.8,1.4-2.1,1.4c-0.4,0-1.2-0.1-1.7-0.8c-0.4-0.5-0.4-0.9-0.4-1.5v-3.5
			h0.8v3.4c0,0.5,0,1,0.3,1.3c0.3,0.4,0.8,0.4,1.1,0.4c0.7,0,1.2-0.3,1.4-0.9c0.1-0.2,0.1-0.5,0.1-0.8v-3.4H536.2z"/>
	</g>
</g>
<g>
	<g>
		<path d="M141.4,1661c-0.8-0.2-2-0.4-2-1.6c0-0.6,0.3-0.9,0.5-1.1c0.5-0.4,1.1-0.5,1.5-0.5c0.4,0,1,0,1.5,0.4
			c0.6,0.4,0.7,1,0.7,1.3l-0.8,0c0-0.2,0-0.6-0.5-0.9c-0.3-0.2-0.6-0.3-1-0.3c-0.7,0-1.3,0.3-1.3,0.9c0,0.6,0.6,0.8,1.1,0.9l0.6,0.2
			c0.4,0.1,0.7,0.2,0.9,0.2c0.8,0.4,1,1,1,1.4c0,0.5-0.2,1-0.7,1.4c-0.5,0.4-1.2,0.4-1.5,0.4c-0.5,0-2.3-0.1-2.4-1.9l0.8-0.1
			c0,0.2,0,0.7,0.5,1.1c0.3,0.3,0.7,0.4,1.2,0.4c0.8,0,1.4-0.4,1.4-1.1c0-0.7-0.5-0.8-1.1-0.9L141.4,1661z"/>
		<path d="M149,1661.9h-2.2l-0.6,1.7h-0.8l2.2-5.6h0.8l2.1,5.6h-0.8L149,1661.9z M148.8,1661.2l-0.8-2.4l-0.9,2.4H148.8z"/>
		<path d="M155.3,1657.9h0.8l-2,5.6h-0.8l-1.9-5.6h0.8l1.5,4.7L155.3,1657.9z"/>
		<path d="M158.8,1661v1.9h3.3v0.7h-4v-5.6h3.9v0.7h-3.2v1.7h2.8v0.7H158.8z"/>
		<path d="M169.3,1658.6v5h-0.8v-5h-1.7v-0.7h4.1v0.7H169.3z"/>
		<path d="M176.8,1661h-3.1v2.6H173v-5.7h0.8v2.4h3.1v-2.4h0.8v5.7h-0.8V1661z"/>
		<path d="M181.1,1661v1.9h3.3v0.7h-4v-5.6h3.9v0.7h-3.2v1.7h2.8v0.7H181.1z"/>
		<path d="M189.7,1657.9h1.8c0.8,0,1.5,0,2.2,0.7c0.7,0.7,0.7,1.7,0.7,2.1c0,0.4,0,1.5-0.8,2.2c-0.7,0.6-1.4,0.6-1.9,0.6h-1.9
			V1657.9z M190.5,1658.6v4.3h1c0.5,0,0.9,0,1.2-0.2c0.4-0.2,0.9-0.7,0.9-1.9c0-0.9-0.3-1.8-1.2-2.1c-0.3-0.1-0.6-0.1-1-0.1H190.5z"
			/>
		<path d="M199.5,1661.9h-2.2l-0.6,1.7h-0.8l2.2-5.6h0.8l2.1,5.6h-0.8L199.5,1661.9z M199.3,1661.2l-0.8-2.4l-0.9,2.4H199.3z"/>
		<path d="M204.1,1658.6v5h-0.8v-5h-1.7v-0.7h4.1v0.7H204.1z"/>
		<path d="M208.4,1661v1.9h3.3v0.7h-4v-5.6h3.9v0.7h-3.2v1.7h2.8v0.7H208.4z"/>
		<path d="M217.8,1660.9v2.7h-0.8v-5.7h3.6v0.7h-2.9v1.7h2.7v0.7H217.8z"/>
		<path d="M225.2,1663.7c-1.7,0-2.8-1.2-2.8-3c0-2.1,1.4-3,2.8-3c1.6,0,2.8,1.1,2.8,2.9C228.1,1662.4,227.1,1663.7,225.2,1663.7z
			 M225.3,1658.4c-1.4,0-2,1.1-2,2.4c0,1.2,0.6,2.4,2,2.4c1.5,0,2-1.3,2-2.4C227.3,1659.4,226.6,1658.4,225.3,1658.4z"/>
		<path d="M231.2,1661.2v2.4h-0.7v-5.6h2.1c0.8,0,1.2,0,1.7,0.3c0.4,0.3,0.6,0.8,0.6,1.3c0,1.3-1.1,1.5-1.3,1.6l1.6,2.4h-0.9
			l-1.5-2.4H231.2z M231.2,1660.6h1.5c0.2,0,0.5,0,0.7-0.1c0.5-0.1,0.7-0.5,0.7-0.9c0-0.1,0-0.5-0.3-0.8c-0.3-0.2-0.7-0.2-1.1-0.2
			h-1.5V1660.6z"/>
		<path d="M142.5,1675.9h-2.2l-0.6,1.7h-0.8l2.2-5.6h0.8l2.1,5.6h-0.8L142.5,1675.9z M142.2,1675.2l-0.8-2.4l-0.9,2.4H142.2z"/>
		<path d="M154.5,1674.6v3h-0.6v-0.8c-0.5,0.7-1.3,0.9-2.1,0.9c-1.7,0-2.8-1.2-2.8-2.9c0-1.4,0.9-3,2.9-3c0.7,0,1.4,0.2,2,0.7
			c0.4,0.4,0.6,0.7,0.6,0.9l-0.8,0.2c-0.1-0.2-0.2-0.4-0.4-0.7c-0.2-0.2-0.7-0.6-1.4-0.6c-1.6,0-2.1,1.3-2.1,2.3
			c0,1.1,0.6,2.3,2.1,2.3c0.7,0,2-0.3,2-1.8h-2v-0.6H154.5z"/>
		<path d="M159.9,1675.9h-2.2l-0.6,1.7h-0.8l2.2-5.6h0.8l2.1,5.6h-0.8L159.9,1675.9z M159.7,1675.2l-0.8-2.4l-0.9,2.4H159.7z"/>
		<path d="M164,1675.2v2.4h-0.7v-5.6h2.1c0.8,0,1.2,0,1.7,0.3c0.4,0.3,0.6,0.8,0.6,1.3c0,1.3-1.1,1.5-1.3,1.6l1.6,2.4H167l-1.5-2.4
			H164z M164,1674.6h1.5c0.2,0,0.5,0,0.7-0.1c0.5-0.1,0.7-0.5,0.7-0.9c0-0.1,0-0.5-0.3-0.8c-0.3-0.2-0.7-0.2-1.1-0.2H164V1674.6z"/>
		<path d="M170.1,1671.9h1.8c0.8,0,1.5,0,2.2,0.7c0.7,0.7,0.7,1.7,0.7,2.1c0,0.4,0,1.5-0.8,2.2c-0.7,0.6-1.4,0.6-1.9,0.6h-1.9
			V1671.9z M170.9,1672.6v4.3h1c0.5,0,0.9,0,1.2-0.2c0.4-0.2,0.9-0.7,0.9-1.9c0-0.9-0.3-1.8-1.2-2.1c-0.3-0.1-0.6-0.1-1-0.1H170.9z"
			/>
		<path d="M177.9,1675v1.9h3.3v0.7h-4v-5.6h3.9v0.7h-3.2v1.7h2.8v0.7H177.9z"/>
		<path d="M187.9,1671.9v5.6h-0.7l-3.1-4.6l0.1,4.6h-0.7v-5.6h0.7l3.1,4.5l0-4.5H187.9z"/>
		<path d="M200.3,1671.9h0.8l-1.7,5.6h-0.7l-1.5-4.7l-1.4,4.7H195l-1.7-5.6h0.8l1.3,4.7l1.4-4.7h0.7l1.5,4.7L200.3,1671.9z"/>
		<path d="M204,1675v1.9h3.3v0.7h-4v-5.6h3.9v0.7H204v1.7h2.8v0.7H204z"/>
		<path d="M209.6,1671.9h1.8c0.8,0,1.5,0,2.2,0.7c0.7,0.7,0.7,1.7,0.7,2.1c0,0.4,0,1.5-0.8,2.2c-0.7,0.6-1.4,0.6-1.9,0.6h-1.9
			V1671.9z M210.4,1672.6v4.3h1c0.5,0,0.9,0,1.2-0.2c0.4-0.2,0.9-0.7,0.9-1.9c0-0.9-0.3-1.8-1.2-2.1c-0.3-0.1-0.6-0.1-1-0.1H210.4z"
			/>
		<path d="M216.7,1671.9h1.8c0.8,0,1.5,0,2.2,0.7c0.7,0.7,0.7,1.7,0.7,2.1c0,0.4,0,1.5-0.8,2.2c-0.7,0.6-1.4,0.6-1.9,0.6h-1.9
			V1671.9z M217.4,1672.6v4.3h1c0.5,0,0.9,0,1.2-0.2c0.4-0.2,0.9-0.7,0.9-1.9c0-0.9-0.3-1.8-1.2-2.1c-0.3-0.1-0.6-0.1-1-0.1H217.4z"
			/>
		<path d="M224.4,1671.9v5.6h-0.8v-5.6H224.4z"/>
		<path d="M231.5,1671.9v5.6h-0.7l-3.1-4.6l0.1,4.6h-0.7v-5.6h0.7l3.1,4.5l0-4.5H231.5z"/>
		<path d="M239.4,1674.6v3h-0.6v-0.8c-0.5,0.7-1.3,0.9-2.1,0.9c-1.7,0-2.8-1.2-2.8-2.9c0-1.4,0.9-3,2.9-3c0.7,0,1.4,0.2,2,0.7
			c0.4,0.4,0.6,0.7,0.6,0.9l-0.8,0.2c-0.1-0.2-0.2-0.4-0.4-0.7c-0.2-0.2-0.7-0.6-1.4-0.6c-1.6,0-2.1,1.3-2.1,2.3
			c0,1.1,0.6,2.3,2.1,2.3c0.7,0,2-0.3,2-1.8h-2v-0.6H239.4z"/>
		<path d="M247.8,1677.7c-1.7,0-2.8-1.2-2.8-3c0-2.1,1.4-3,2.8-3c1.6,0,2.8,1.1,2.8,2.9C250.6,1676.4,249.6,1677.7,247.8,1677.7z
			 M247.8,1672.4c-1.4,0-2,1.1-2,2.4c0,1.2,0.6,2.4,2,2.4c1.5,0,2-1.3,2-2.4C249.8,1673.4,249.1,1672.4,247.8,1672.4z"/>
		<path d="M257.4,1671.9v5.6h-0.7l-3.1-4.6l0.1,4.6H253v-5.6h0.7l3.1,4.5l0-4.5H257.4z"/>
		<path d="M140.1,1690.9h2.7v0.7h-3.5v-5.7h0.8V1690.9z"/>
		<path d="M146.9,1691.7c-1.7,0-2.8-1.2-2.8-3c0-2.1,1.4-3,2.8-3c1.6,0,2.8,1.1,2.8,2.9C149.8,1690.4,148.8,1691.7,146.9,1691.7z
			 M146.9,1686.4c-1.4,0-2,1.1-2,2.4c0,1.2,0.6,2.4,2,2.4c1.5,0,2-1.3,2-2.4C148.9,1687.4,148.2,1686.4,146.9,1686.4z"/>
		<path d="M156.6,1685.9v5.6h-0.7l-3.1-4.6l0.1,4.6h-0.7v-5.6h0.7l3.1,4.5l0-4.5H156.6z"/>
		<path d="M164.5,1688.6v3h-0.6v-0.8c-0.5,0.7-1.3,0.9-2.1,0.9c-1.7,0-2.8-1.2-2.8-2.9c0-1.4,0.9-3,2.9-3c0.7,0,1.4,0.2,2,0.7
			c0.4,0.4,0.6,0.7,0.6,0.9l-0.8,0.2c-0.1-0.2-0.2-0.4-0.4-0.7c-0.2-0.2-0.7-0.6-1.4-0.6c-1.6,0-2.1,1.3-2.1,2.3
			c0,1.1,0.6,2.3,2.1,2.3c0.7,0,2-0.3,2-1.8h-2v-0.6H164.5z"/>
		<path d="M170.9,1685.9v5.6h-0.8v-5.6H170.9z"/>
		<path d="M175.4,1689c-0.8-0.2-2-0.4-2-1.6c0-0.6,0.3-0.9,0.5-1.1c0.5-0.4,1.1-0.5,1.5-0.5c0.4,0,1,0,1.5,0.4
			c0.6,0.4,0.7,1,0.7,1.3l-0.8,0c0-0.2,0-0.6-0.5-0.9c-0.3-0.2-0.6-0.3-1-0.3c-0.7,0-1.3,0.3-1.3,0.9c0,0.6,0.6,0.8,1.1,0.9l0.6,0.2
			c0.4,0.1,0.7,0.2,0.9,0.2c0.8,0.4,1,1,1,1.4c0,0.5-0.2,1-0.7,1.4c-0.5,0.4-1.2,0.4-1.5,0.4c-0.5,0-2.3-0.1-2.4-1.9l0.8-0.1
			c0,0.2,0,0.7,0.5,1.1c0.3,0.3,0.7,0.4,1.2,0.4c0.8,0,1.4-0.4,1.4-1.1c0-0.7-0.5-0.8-1.1-0.9L175.4,1689z"/>
		<path d="M180.8,1690.9h2.7v0.7h-3.5v-5.7h0.8V1690.9z"/>
		<path d="M188.6,1689.9h-2.2l-0.6,1.7H185l2.2-5.6h0.8l2.1,5.6h-0.8L188.6,1689.9z M188.3,1689.2l-0.8-2.4l-0.9,2.4H188.3z"/>
		<path d="M196.3,1685.9v5.6h-0.7l-3.1-4.6l0.1,4.6h-0.7v-5.6h0.7l3.1,4.5l0-4.5H196.3z"/>
		<path d="M199.1,1685.9h1.8c0.8,0,1.5,0,2.2,0.7c0.7,0.7,0.7,1.7,0.7,2.1c0,0.4,0,1.5-0.8,2.2c-0.7,0.6-1.4,0.6-1.9,0.6h-1.9
			V1685.9z M199.9,1686.6v4.3h1c0.5,0,0.9,0,1.2-0.2c0.4-0.2,0.9-0.7,0.9-1.9c0-0.9-0.3-1.8-1.2-2.1c-0.3-0.1-0.6-0.1-1-0.1H199.9z"
			/>
	</g>
</g>
<g>
	<g>
		<path d="M635.9,1236.9c-0.2,1.1-1.1,2.2-2.8,2.2c-1.9,0-2.8-1.4-2.8-3c0-1.6,0.9-3,2.9-3c2,0,2.4,1.4,2.6,1.7l-0.8,0.2
			c-0.1-0.2-0.1-0.4-0.3-0.6c-0.3-0.3-0.8-0.7-1.5-0.7c-0.6,0-1.2,0.2-1.6,0.7c-0.4,0.4-0.5,1-0.5,1.6c0,1.4,0.7,2.4,2,2.4
			c0.8,0,1.7-0.5,1.9-1.7L635.9,1236.9z"/>
		<path d="M640.6,1239c-1.7,0-2.8-1.2-2.8-3c0-2.1,1.4-3,2.8-3c1.6,0,2.8,1.1,2.8,2.9C643.5,1237.7,642.5,1239,640.6,1239z
			 M640.6,1233.7c-1.4,0-2,1.1-2,2.4c0,1.2,0.6,2.4,2,2.4c1.5,0,2-1.3,2-2.4C642.6,1234.7,641.9,1233.7,640.6,1233.7z"/>
		<path d="M646.6,1236.5v2.4h-0.7v-5.6h2.4c0.3,0,0.6,0,0.9,0.1c0.7,0.2,1,0.8,1,1.5c0,0.6-0.3,1.3-1,1.6c-0.3,0.1-0.6,0.1-0.9,0.1
			H646.6z M646.6,1235.8h1.6c0.4,0,0.7,0,1-0.3c0.2-0.2,0.3-0.5,0.3-0.8c0-0.2,0-0.5-0.3-0.7c-0.2-0.2-0.5-0.2-0.8-0.2h-1.7V1235.8z
			"/>
		<path d="M652.9,1236.5v2.4h-0.7v-5.6h2.4c0.3,0,0.6,0,0.9,0.1c0.7,0.2,1,0.8,1,1.5c0,0.6-0.3,1.3-1,1.6c-0.3,0.1-0.6,0.1-0.9,0.1
			H652.9z M652.9,1235.8h1.6c0.4,0,0.7,0,1-0.3c0.2-0.2,0.3-0.5,0.3-0.8c0-0.2,0-0.5-0.3-0.7c-0.2-0.2-0.5-0.2-0.8-0.2h-1.7V1235.8z
			"/>
		<path d="M659.3,1236.3v1.9h3.3v0.7h-4v-5.6h3.9v0.7h-3.2v1.7h2.8v0.7H659.3z"/>
		<path d="M665.7,1236.5v2.4H665v-5.6h2.1c0.8,0,1.2,0,1.7,0.3c0.4,0.3,0.6,0.8,0.6,1.3c0,1.3-1.1,1.5-1.3,1.6l1.6,2.4h-0.9
			l-1.5-2.4H665.7z M665.7,1235.9h1.5c0.2,0,0.5,0,0.7-0.1c0.5-0.1,0.7-0.5,0.7-0.9c0-0.1,0-0.5-0.3-0.8c-0.3-0.2-0.7-0.2-1.1-0.2
			h-1.5V1235.9z"/>
		<path d="M675.6,1236.3v1.9h3.3v0.7h-4v-5.6h3.9v0.7h-3.2v1.7h2.8v0.7H675.6z"/>
		<path d="M685.6,1233.3v5.6H685l-3.1-4.6l0.1,4.6h-0.7v-5.6h0.7l3.1,4.5l0-4.5H685.6z"/>
		<path d="M693.6,1235.9v3h-0.6v-0.8c-0.5,0.7-1.3,0.9-2.1,0.9c-1.7,0-2.8-1.2-2.8-2.9c0-1.4,0.9-3,2.9-3c0.7,0,1.4,0.2,2,0.7
			c0.4,0.4,0.6,0.7,0.6,0.9l-0.8,0.2c-0.1-0.2-0.2-0.4-0.4-0.7c-0.2-0.2-0.7-0.6-1.4-0.6c-1.6,0-2.1,1.3-2.1,2.3
			c0,1.1,0.6,2.3,2.1,2.3c0.7,0,2-0.3,2-1.8h-2v-0.6H693.6z"/>
		<path d="M697,1236.5v2.4h-0.7v-5.6h2.1c0.8,0,1.2,0,1.7,0.3c0.4,0.3,0.6,0.8,0.6,1.3c0,1.3-1.1,1.5-1.3,1.6l1.6,2.4H700l-1.5-2.4
			H697z M697,1235.9h1.5c0.2,0,0.5,0,0.7-0.1c0.5-0.1,0.7-0.5,0.7-0.9c0-0.1,0-0.5-0.3-0.8c-0.3-0.2-0.7-0.2-1.1-0.2H697V1235.9z"/>
		<path d="M705.9,1237.2h-2.2l-0.6,1.7h-0.8l2.2-5.6h0.8l2.1,5.6h-0.8L705.9,1237.2z M705.7,1236.5l-0.8-2.4l-0.9,2.4H705.7z"/>
		<path d="M712.2,1233.3h0.8l-2,5.6h-0.8l-1.9-5.6h0.8l1.5,4.7L712.2,1233.3z"/>
		<path d="M715.6,1233.3v5.6h-0.8v-5.6H715.6z"/>
		<path d="M722.7,1233.3v5.6H722l-3.1-4.6l0.1,4.6h-0.7v-5.6h0.7l3.1,4.5l0-4.5H722.7z"/>
		<path d="M730.6,1235.9v3H730v-0.8c-0.5,0.7-1.3,0.9-2.1,0.9c-1.7,0-2.8-1.2-2.8-2.9c0-1.4,0.9-3,2.9-3c0.7,0,1.4,0.2,2,0.7
			c0.4,0.4,0.6,0.7,0.6,0.9l-0.8,0.2c-0.1-0.2-0.2-0.4-0.4-0.7c-0.2-0.2-0.7-0.6-1.4-0.6c-1.6,0-2.1,1.3-2.1,2.3
			c0,1.1,0.6,2.3,2.1,2.3c0.7,0,2-0.3,2-1.8h-2v-0.6H730.6z"/>
		<path d="M737.1,1236.5v2.4h-0.7v-5.6h2.4c0.3,0,0.6,0,0.9,0.1c0.7,0.2,1,0.8,1,1.5c0,0.6-0.3,1.3-1,1.6c-0.3,0.1-0.6,0.1-0.9,0.1
			H737.1z M737.1,1235.8h1.6c0.4,0,0.7,0,1-0.3c0.2-0.2,0.3-0.5,0.3-0.8c0-0.2,0-0.5-0.3-0.7c-0.2-0.2-0.5-0.2-0.8-0.2h-1.7V1235.8z
			"/>
		<path d="M743.4,1238.2h2.7v0.7h-3.5v-5.7h0.8V1238.2z"/>
		<path d="M751.1,1237.2H749l-0.6,1.7h-0.8l2.2-5.6h0.8l2.1,5.6h-0.8L751.1,1237.2z M750.9,1236.5l-0.8-2.4l-0.9,2.4H750.9z"/>
		<path d="M755.7,1233.9v5H755v-5h-1.7v-0.7h4.1v0.7H755.7z"/>
		<path d="M760.1,1236.3v1.9h3.3v0.7h-4v-5.6h3.9v0.7h-3.2v1.7h2.8v0.7H760.1z"/>
	</g>
</g>
</svg>
