<?xml version="1.0" encoding="utf-8"?>
<!-- Generator: Adobe Illustrator 21.1.0, SVG Export Plug-In . SVG Version: 6.00 Build 0)  -->
<svg version="1.1" id="Layer_1" xmlns="http://www.w3.org/2000/svg" xmlns:xlink="http://www.w3.org/1999/xlink" x="0px" y="0px"
	 viewBox="0 0 1280 789" style="enable-background:new 0 0 1280 789;" xml:space="preserve">
<g>
	<g>
		<path d="M716.9,86.3V92h-0.8v-5.6H716.9z"/>
		<path d="M724,86.3V92h-0.7l-3.1-4.6l0.1,4.6h-0.7v-5.6h0.7l3.1,4.5l0-4.5H724z"/>
		<path d="M729.8,86.3h0.8l-2,5.6h-0.8l-1.9-5.6h0.8l1.5,4.7L729.8,86.3z"/>
		<path d="M733.2,86.3V92h-0.8v-5.6H733.2z"/>
		<path d="M737.4,87v5h-0.8v-5H735v-0.7h4.1V87H737.4z"/>
		<path d="M743.3,90.2h-2.2l-0.6,1.7h-0.8l2.2-5.6h0.8l2.1,5.6h-0.8L743.3,90.2z M743,89.6l-0.8-2.4l-0.9,2.4H743z"/>
		<path d="M747.8,87v5h-0.8v-5h-1.7v-0.7h4.1V87H747.8z"/>
		<path d="M752.1,86.3V92h-0.8v-5.6H752.1z"/>
		<path d="M757.3,92.1c-1.7,0-2.8-1.2-2.8-3c0-2.1,1.4-3,2.8-3c1.6,0,2.8,1.1,2.8,2.9C760.1,90.8,759.2,92.1,757.3,92.1z
			 M757.3,86.8c-1.4,0-2,1.1-2,2.4c0,1.2,0.6,2.4,2,2.4c1.5,0,2-1.3,2-2.4C759.3,87.7,758.6,86.8,757.3,86.8z"/>
		<path d="M767,86.3V92h-0.7l-3.1-4.6l0.1,4.6h-0.7v-5.6h0.7l3.1,4.5l0-4.5H767z"/>
		<path d="M774.7,87v5h-0.8v-5h-1.7v-0.7h4.1V87H774.7z"/>
		<path d="M780.4,92.1c-1.7,0-2.8-1.2-2.8-3c0-2.1,1.4-3,2.8-3c1.6,0,2.8,1.1,2.8,2.9C783.3,90.8,782.3,92.1,780.4,92.1z
			 M780.4,86.8c-1.4,0-2,1.1-2,2.4c0,1.2,0.6,2.4,2,2.4c1.5,0,2-1.3,2-2.4C782.5,87.7,781.7,86.8,780.4,86.8z"/>
		<path d="M791.9,90.2h-2.2l-0.6,1.7h-0.8l2.2-5.6h0.8l2.1,5.6h-0.8L791.9,90.2z M791.7,89.6l-0.8-2.4l-0.9,2.4H791.7z"/>
		<path d="M722.8,100.3h0.8l-1.7,5.6h-0.7l-1.5-4.7l-1.4,4.7h-0.8l-1.7-5.6h0.8l1.3,4.7l1.4-4.7h0.7l1.5,4.7L722.8,100.3z"/>
		<path d="M726.5,103.4v1.9h3.3v0.7h-4v-5.6h3.9v0.7h-3.2v1.7h2.8v0.7H726.5z"/>
		<path d="M732.1,100.3h1.8c0.8,0,1.5,0,2.2,0.7c0.7,0.7,0.7,1.7,0.7,2.1c0,0.4,0,1.5-0.8,2.2c-0.7,0.6-1.4,0.6-1.9,0.6h-1.9V100.3z
			 M732.9,101v4.3h1c0.5,0,0.9,0,1.2-0.2c0.4-0.2,0.9-0.7,0.9-1.9c0-0.9-0.3-1.8-1.2-2.1c-0.3-0.1-0.6-0.1-1-0.1H732.9z"/>
		<path d="M739.2,100.3h1.8c0.8,0,1.5,0,2.2,0.7c0.7,0.7,0.7,1.7,0.7,2.1c0,0.4,0,1.5-0.8,2.2c-0.7,0.6-1.4,0.6-1.9,0.6h-1.9V100.3z
			 M739.9,101v4.3h1c0.5,0,0.9,0,1.2-0.2c0.4-0.2,0.9-0.7,0.9-1.9c0-0.9-0.3-1.8-1.2-2.1c-0.3-0.1-0.6-0.1-1-0.1H739.9z"/>
		<path d="M746.9,100.3v5.6h-0.8v-5.6H746.9z"/>
		<path d="M754,100.3v5.6h-0.7l-3.1-4.6l0.1,4.6h-0.7v-5.6h0.7l3.1,4.5l0-4.5H754z"/>
		<path d="M761.9,103v3h-0.6v-0.8c-0.5,0.7-1.3,0.9-2.1,0.9c-1.7,0-2.8-1.2-2.8-2.9c0-1.4,0.9-3,2.9-3c0.7,0,1.4,0.2,2,0.7
			c0.4,0.4,0.6,0.7,0.6,0.9l-0.8,0.2c-0.1-0.2-0.2-0.4-0.4-0.7c-0.2-0.2-0.7-0.6-1.4-0.6c-1.6,0-2.1,1.3-2.1,2.3
			c0,1.1,0.6,2.3,2.1,2.3c0.7,0,2-0.3,2-1.8h-2V103H761.9z"/>
		<path d="M768.3,100.3v5.6h-0.8v-5.6H768.3z"/>
		<path d="M775.4,100.3v5.6h-0.7l-3.1-4.6l0.1,4.6H771v-5.6h0.7l3.1,4.5l0-4.5H775.4z"/>
		<path d="M782,103.6v2.4h-0.7v-5.6h2.4c0.3,0,0.6,0,0.9,0.1c0.7,0.2,1,0.8,1,1.5c0,0.6-0.3,1.3-1,1.6c-0.3,0.1-0.6,0.1-0.9,0.1H782
			z M782,102.9h1.6c0.4,0,0.7,0,1-0.3c0.2-0.2,0.3-0.5,0.3-0.8c0-0.2,0-0.5-0.3-0.7c-0.2-0.2-0.5-0.2-0.8-0.2H782V102.9z"/>
		<path d="M791.9,100.3v3.6c0,0.2,0,0.5-0.1,0.7c-0.2,0.7-0.8,1.4-2.1,1.4c-0.4,0-1.2-0.1-1.7-0.8c-0.4-0.5-0.4-0.9-0.4-1.5v-3.5
			h0.8v3.4c0,0.5,0,1,0.3,1.3c0.3,0.4,0.8,0.4,1.1,0.4c0.7,0,1.2-0.3,1.4-0.9c0.1-0.2,0.1-0.5,0.1-0.8v-3.4H791.9z"/>
		<path d="M799.8,103v3h-0.6v-0.8c-0.5,0.7-1.3,0.9-2.1,0.9c-1.7,0-2.8-1.2-2.8-2.9c0-1.4,0.9-3,2.9-3c0.7,0,1.4,0.2,2,0.7
			c0.4,0.4,0.6,0.7,0.6,0.9L799,102c-0.1-0.2-0.2-0.4-0.4-0.7c-0.2-0.2-0.7-0.6-1.4-0.6c-1.6,0-2.1,1.3-2.1,2.3
			c0,1.1,0.6,2.3,2.1,2.3c0.7,0,2-0.3,2-1.8h-2V103H799.8z"/>
		<path d="M803.2,105.3h2.7v0.7h-3.5v-5.7h0.8V105.3z"/>
		<path d="M808.6,100.3v5.6h-0.8v-5.6H808.6z"/>
		<path d="M814,104.2h-2.2l-0.6,1.7h-0.8l2.2-5.6h0.8l2.1,5.6h-0.8L814,104.2z M813.7,103.6l-0.8-2.4l-0.9,2.4H813.7z"/>
	</g>
</g>
<g>
	<g>
		<path d="M902.9,754.3v5.6h-0.8v-5.6H902.9z"/>
		<path d="M910,754.3v5.6h-0.7l-3.1-4.6l0.1,4.6h-0.7v-5.6h0.7l3.1,4.5l0-4.5H910z"/>
		<path d="M915.8,754.3h0.8l-2,5.6h-0.8l-1.9-5.6h0.8l1.5,4.7L915.8,754.3z"/>
		<path d="M919.2,754.3v5.6h-0.8v-5.6H919.2z"/>
		<path d="M923.4,755v5h-0.8v-5H921v-0.7h4.1v0.7H923.4z"/>
		<path d="M929.3,758.2h-2.2l-0.6,1.7h-0.8l2.2-5.6h0.8l2.1,5.6h-0.8L929.3,758.2z M929,757.6l-0.8-2.4l-0.9,2.4H929z"/>
		<path d="M933.8,755v5h-0.8v-5h-1.7v-0.7h4.1v0.7H933.8z"/>
		<path d="M938.1,754.3v5.6h-0.8v-5.6H938.1z"/>
		<path d="M943.3,760.1c-1.7,0-2.8-1.2-2.8-3c0-2.1,1.4-3,2.8-3c1.6,0,2.8,1.1,2.8,2.9C946.1,758.8,945.2,760.1,943.3,760.1z
			 M943.3,754.8c-1.4,0-2,1.1-2,2.4c0,1.2,0.6,2.4,2,2.4c1.5,0,2-1.3,2-2.4C945.3,755.7,944.6,754.8,943.3,754.8z"/>
		<path d="M953,754.3v5.6h-0.7l-3.1-4.6l0.1,4.6h-0.7v-5.6h0.7l3.1,4.5l0-4.5H953z"/>
		<path d="M960.7,755v5h-0.8v-5h-1.7v-0.7h4.1v0.7H960.7z"/>
		<path d="M966.4,760.1c-1.7,0-2.8-1.2-2.8-3c0-2.1,1.4-3,2.8-3c1.6,0,2.8,1.1,2.8,2.9C969.3,758.8,968.3,760.1,966.4,760.1z
			 M966.4,754.8c-1.4,0-2,1.1-2,2.4c0,1.2,0.6,2.4,2,2.4c1.5,0,2-1.3,2-2.4C968.5,755.7,967.7,754.8,966.4,754.8z"/>
		<path d="M977.9,758.2h-2.2l-0.6,1.7h-0.8l2.2-5.6h0.8l2.1,5.6h-0.8L977.9,758.2z M977.7,757.6l-0.8-2.4l-0.9,2.4H977.7z"/>
		<path d="M985.3,757.6v2.4h-0.7v-5.6h2.4c0.3,0,0.6,0,0.9,0.1c0.7,0.2,1,0.8,1,1.5c0,0.6-0.3,1.3-1,1.6c-0.3,0.1-0.6,0.1-0.9,0.1
			H985.3z M985.3,756.9h1.6c0.4,0,0.7,0,1-0.3c0.2-0.2,0.3-0.5,0.3-0.8c0-0.2,0-0.5-0.3-0.7c-0.2-0.2-0.5-0.2-0.8-0.2h-1.7V756.9z"
			/>
		<path d="M993.4,758.2h-2.2l-0.6,1.7h-0.8l2.2-5.6h0.8l2.1,5.6H994L993.4,758.2z M993.1,757.6l-0.8-2.4l-0.9,2.4H993.1z"/>
		<path d="M997.4,757.6v2.4h-0.7v-5.6h2.1c0.8,0,1.2,0,1.7,0.3c0.4,0.3,0.6,0.8,0.6,1.3c0,1.3-1.1,1.5-1.3,1.6l1.6,2.4h-0.9
			l-1.5-2.4H997.4z M997.4,756.9h1.5c0.2,0,0.5,0,0.7-0.1c0.5-0.1,0.7-0.5,0.7-0.9c0-0.1,0-0.5-0.3-0.8c-0.3-0.2-0.7-0.2-1.1-0.2
			h-1.5V756.9z"/>
		<path d="M1004.2,754.3v5.6h-0.8v-5.6H1004.2z"/>
		<path d="M1008.7,757.3c-0.8-0.2-2-0.4-2-1.6c0-0.6,0.3-0.9,0.5-1.1c0.5-0.4,1.1-0.5,1.5-0.5c0.4,0,1,0,1.5,0.4
			c0.6,0.4,0.7,1,0.7,1.3l-0.8,0c0-0.2,0-0.6-0.5-0.9c-0.3-0.2-0.6-0.3-1-0.3c-0.7,0-1.3,0.3-1.3,0.9c0,0.6,0.6,0.8,1.1,0.9l0.6,0.2
			c0.4,0.1,0.7,0.2,0.9,0.2c0.8,0.4,1,1,1,1.4c0,0.5-0.2,1-0.7,1.4c-0.5,0.4-1.2,0.4-1.5,0.4c-0.5,0-2.3-0.1-2.4-1.9l0.8-0.1
			c0,0.2,0,0.7,0.5,1.1c0.3,0.3,0.7,0.4,1.2,0.4c0.8,0,1.4-0.4,1.4-1.1c0-0.7-0.5-0.8-1.1-0.9L1008.7,757.3z"/>
		<path d="M1014.1,754.3v5.6h-0.8v-5.6H1014.1z"/>
		<path d="M1019.5,758.2h-2.2l-0.6,1.7h-0.8l2.2-5.6h0.8l2.1,5.6h-0.8L1019.5,758.2z M1019.3,757.6l-0.8-2.4l-0.9,2.4H1019.3z"/>
		<path d="M1027.3,754.3v5.6h-0.7l-3.1-4.6l0.1,4.6h-0.7v-5.6h0.7l3.1,4.5l0-4.5H1027.3z"/>
		<path d="M902.9,771.4v1.9h3.3v0.7h-4v-5.6h3.9v0.7h-3.2v1.7h2.8v0.7H902.9z"/>
		<path d="M913,768.3v5.6h-0.7l-3.1-4.6l0.1,4.6h-0.7v-5.6h0.7l3.1,4.5l0-4.5H913z"/>
		<path d="M920.9,771v3h-0.6v-0.8c-0.5,0.7-1.3,0.9-2.1,0.9c-1.7,0-2.8-1.2-2.8-2.9c0-1.4,0.9-3,2.9-3c0.7,0,1.4,0.2,2,0.7
			c0.4,0.4,0.6,0.7,0.6,0.9l-0.8,0.2c-0.1-0.2-0.2-0.4-0.4-0.7c-0.2-0.2-0.7-0.6-1.4-0.6c-1.6,0-2.1,1.3-2.1,2.3
			c0,1.1,0.6,2.3,2.1,2.3c0.7,0,2-0.3,2-1.8h-2V771H920.9z"/>
		<path d="M926.4,772.2h-2.2l-0.6,1.7h-0.8l2.2-5.6h0.8l2.1,5.6H927L926.4,772.2z M926.1,771.6l-0.8-2.4l-0.9,2.4H926.1z"/>
		<path d="M934.8,771v3h-0.6v-0.8c-0.5,0.7-1.3,0.9-2.1,0.9c-1.7,0-2.8-1.2-2.8-2.9c0-1.4,0.9-3,2.9-3c0.7,0,1.4,0.2,2,0.7
			c0.4,0.4,0.6,0.7,0.6,0.9L934,770c-0.1-0.2-0.2-0.4-0.4-0.7c-0.2-0.2-0.7-0.6-1.4-0.6c-1.6,0-2.1,1.3-2.1,2.3
			c0,1.1,0.6,2.3,2.1,2.3c0.7,0,2-0.3,2-1.8h-2V771H934.8z"/>
		<path d="M938.3,771.4v1.9h3.3v0.7h-4v-5.6h3.9v0.7h-3.2v1.7h2.8v0.7H938.3z"/>
		<path d="M949.3,768.3v5.6h-0.7l0.1-4.7l-1.8,4.7h-0.6l-1.8-4.7l0.1,4.7h-0.7v-5.6h1l1.7,4.6l1.7-4.6H949.3z"/>
		<path d="M952.7,771.4v1.9h3.3v0.7h-4v-5.6h3.9v0.7h-3.2v1.7h2.8v0.7H952.7z"/>
		<path d="M962.7,768.3v5.6h-0.7l-3.1-4.6l0.1,4.6h-0.7v-5.6h0.7l3.1,4.5l0-4.5H962.7z"/>
		<path d="M967.1,769v5h-0.8v-5h-1.7v-0.7h4.1v0.7H967.1z"/>
		<path d="M974.8,771.6v2.4h-0.7v-5.6h2.4c0.3,0,0.6,0,0.9,0.1c0.7,0.2,1,0.8,1,1.5c0,0.6-0.3,1.3-1,1.6c-0.3,0.1-0.6,0.1-0.9,0.1
			H974.8z M974.8,770.9h1.6c0.4,0,0.7,0,1-0.3c0.2-0.2,0.3-0.5,0.3-0.8c0-0.2,0-0.5-0.3-0.7c-0.2-0.2-0.5-0.2-0.8-0.2h-1.7V770.9z"
			/>
		<path d="M982.8,772.2h-2.2l-0.6,1.7h-0.8l2.2-5.6h0.8l2.1,5.6h-0.8L982.8,772.2z M982.6,771.6l-0.8-2.4l-0.9,2.4H982.6z"/>
		<path d="M986.9,771.6v2.4h-0.7v-5.6h2.1c0.8,0,1.2,0,1.7,0.3c0.4,0.3,0.6,0.8,0.6,1.3c0,1.3-1.1,1.5-1.3,1.6l1.6,2.4h-0.9
			l-1.5-2.4H986.9z M986.9,770.9h1.5c0.2,0,0.5,0,0.7-0.1c0.5-0.1,0.7-0.5,0.7-0.9c0-0.1,0-0.5-0.3-0.8c-0.3-0.2-0.7-0.2-1.1-0.2
			h-1.5V770.9z"/>
		<path d="M994.6,769v5h-0.8v-5h-1.7v-0.7h4.1v0.7H994.6z"/>
		<path d="M1000.5,771.4v2.6h-0.8v-2.6l-2-3.1h0.9l1.5,2.4l1.5-2.4h0.9L1000.5,771.4z"/>
	</g>
</g>
<g>
	<g>
		<path d="M648.2,745.3c-0.8-0.2-2-0.4-2-1.6c0-0.6,0.3-0.9,0.5-1.1c0.5-0.4,1.1-0.5,1.5-0.5c0.4,0,1,0,1.5,0.4
			c0.6,0.4,0.7,1,0.7,1.3l-0.8,0c0-0.2,0-0.6-0.5-0.9c-0.3-0.2-0.6-0.3-1-0.3c-0.7,0-1.3,0.3-1.3,0.9c0,0.6,0.6,0.8,1.1,0.9l0.6,0.2
			c0.4,0.1,0.7,0.2,0.9,0.2c0.8,0.4,1,1,1,1.4c0,0.5-0.2,1-0.7,1.4c-0.5,0.4-1.2,0.4-1.5,0.4c-0.5,0-2.3-0.1-2.4-1.9l0.8-0.1
			c0,0.2,0,0.7,0.5,1.1c0.3,0.3,0.7,0.4,1.2,0.4c0.8,0,1.4-0.4,1.4-1.1c0-0.7-0.5-0.8-1.1-0.9L648.2,745.3z"/>
		<path d="M654.5,743v5h-0.8v-5h-1.7v-0.7h4.1v0.7H654.5z"/>
		<path d="M662.4,742.3v3.6c0,0.2,0,0.5-0.1,0.7c-0.2,0.7-0.8,1.4-2.1,1.4c-0.4,0-1.2-0.1-1.7-0.8c-0.4-0.5-0.4-0.9-0.4-1.5v-3.5
			h0.8v3.4c0,0.5,0,1,0.3,1.3c0.3,0.4,0.8,0.4,1.1,0.4c0.7,0,1.2-0.3,1.4-0.9c0.1-0.2,0.1-0.5,0.1-0.8v-3.4H662.4z"/>
		<path d="M665.2,742.3h1.8c0.8,0,1.5,0,2.2,0.7c0.7,0.7,0.7,1.7,0.7,2.1c0,0.4,0,1.5-0.8,2.2c-0.7,0.6-1.4,0.6-1.9,0.6h-1.9V742.3z
			 M665.9,743v4.3h1c0.5,0,0.9,0,1.2-0.2c0.4-0.2,0.9-0.7,0.9-1.9c0-0.9-0.3-1.8-1.2-2.1c-0.3-0.1-0.6-0.1-1-0.1H665.9z"/>
		<path d="M673.8,745.4v2.6H673v-2.6l-2-3.1h0.9l1.5,2.4l1.5-2.4h0.9L673.8,745.4z"/>
		<path d="M681.9,745.3v2.7h-0.8v-5.7h3.6v0.7h-2.9v1.7h2.7v0.7H681.9z"/>
		<path d="M689.2,748.1c-1.7,0-2.8-1.2-2.8-3c0-2.1,1.4-3,2.8-3c1.6,0,2.8,1.1,2.8,2.9C692.1,746.8,691.1,748.1,689.2,748.1z
			 M689.3,742.8c-1.4,0-2,1.1-2,2.4c0,1.2,0.6,2.4,2,2.4c1.5,0,2-1.3,2-2.4C691.3,743.7,690.6,742.8,689.3,742.8z"/>
		<path d="M695.2,745.6v2.4h-0.7v-5.6h2.1c0.8,0,1.2,0,1.7,0.3c0.4,0.3,0.6,0.8,0.6,1.3c0,1.3-1.1,1.5-1.3,1.6l1.6,2.4h-0.9
			l-1.5-2.4H695.2z M695.2,744.9h1.5c0.2,0,0.5,0,0.7-0.1c0.5-0.1,0.7-0.5,0.7-0.9c0-0.1,0-0.5-0.3-0.8c-0.3-0.2-0.7-0.2-1.1-0.2
			h-1.5V744.9z"/>
		<path d="M707.5,746.2h-2.2l-0.6,1.7h-0.8l2.2-5.6h0.8l2.1,5.6h-0.8L707.5,746.2z M707.2,745.6l-0.8-2.4l-0.9,2.4H707.2z"/>
		<path d="M648.1,757v5h-0.8v-5h-1.7v-0.7h4.1v0.7H648.1z"/>
		<path d="M652.5,759.6v2.4h-0.7v-5.6h2.1c0.8,0,1.2,0,1.7,0.3c0.4,0.3,0.6,0.8,0.6,1.3c0,1.3-1.1,1.5-1.3,1.6l1.6,2.4h-0.9
			l-1.5-2.4H652.5z M652.5,758.9h1.5c0.2,0,0.5,0,0.7-0.1c0.5-0.1,0.7-0.5,0.7-0.9c0-0.1,0-0.5-0.3-0.8c-0.3-0.2-0.7-0.2-1.1-0.2
			h-1.5V758.9z"/>
		<path d="M661.1,762.1c-1.7,0-2.8-1.2-2.8-3c0-2.1,1.4-3,2.8-3c1.6,0,2.8,1.1,2.8,2.9C663.9,760.8,662.9,762.1,661.1,762.1z
			 M661.1,756.8c-1.4,0-2,1.1-2,2.4c0,1.2,0.6,2.4,2,2.4c1.5,0,2-1.3,2-2.4C663.1,757.7,662.4,756.8,661.1,756.8z"/>
		<path d="M667,759.6v2.4h-0.7v-5.6h2.4c0.3,0,0.6,0,0.9,0.1c0.7,0.2,1,0.8,1,1.5c0,0.6-0.3,1.3-1,1.6c-0.3,0.1-0.6,0.1-0.9,0.1H667
			z M667,758.9h1.6c0.4,0,0.7,0,1-0.3c0.2-0.2,0.3-0.5,0.3-0.8c0-0.2,0-0.5-0.3-0.7c-0.2-0.2-0.5-0.2-0.8-0.2H667V758.9z"/>
		<path d="M673.4,756.3v5.6h-0.8v-5.6H673.4z"/>
		<path d="M681.2,759.9c-0.2,1.1-1.1,2.2-2.8,2.2c-1.9,0-2.8-1.4-2.8-3c0-1.6,0.9-3,2.9-3c2,0,2.4,1.4,2.6,1.7l-0.8,0.2
			c-0.1-0.2-0.1-0.4-0.3-0.6c-0.3-0.3-0.8-0.7-1.5-0.7c-0.6,0-1.2,0.2-1.6,0.7c-0.4,0.4-0.5,1-0.5,1.6c0,1.4,0.7,2.4,2,2.4
			c0.8,0,1.7-0.5,1.9-1.7L681.2,759.9z"/>
		<path d="M686,760.2h-2.2l-0.6,1.7h-0.8l2.2-5.6h0.8l2.1,5.6h-0.8L686,760.2z M685.7,759.6l-0.8-2.4l-0.9,2.4H685.7z"/>
		<path d="M690,761.3h2.7v0.7h-3.5v-5.7h0.8V761.3z"/>
		<path d="M700,759.3c-0.8-0.2-2-0.4-2-1.6c0-0.6,0.3-0.9,0.5-1.1c0.5-0.4,1.1-0.5,1.5-0.5c0.4,0,1,0,1.5,0.4c0.6,0.4,0.7,1,0.7,1.3
			l-0.8,0c0-0.2,0-0.6-0.5-0.9c-0.3-0.2-0.6-0.3-1-0.3c-0.7,0-1.3,0.3-1.3,0.9c0,0.6,0.6,0.8,1.1,0.9l0.6,0.2
			c0.4,0.1,0.7,0.2,0.9,0.2c0.8,0.4,1,1,1,1.4c0,0.5-0.2,1-0.7,1.4c-0.5,0.4-1.2,0.4-1.5,0.4c-0.5,0-2.3-0.1-2.4-1.9l0.8-0.1
			c0,0.2,0,0.7,0.5,1.1c0.3,0.3,0.7,0.4,1.2,0.4c0.8,0,1.4-0.4,1.4-1.1c0-0.7-0.5-0.8-1.1-0.9L700,759.3z"/>
		<path d="M710,759.9c-0.2,1.1-1.1,2.2-2.8,2.2c-1.9,0-2.8-1.4-2.8-3c0-1.6,0.9-3,2.9-3c2,0,2.4,1.4,2.6,1.7l-0.8,0.2
			c-0.1-0.2-0.1-0.4-0.3-0.6c-0.3-0.3-0.8-0.7-1.5-0.7c-0.6,0-1.2,0.2-1.6,0.7c-0.4,0.4-0.5,1-0.5,1.6c0,1.4,0.7,2.4,2,2.4
			c0.8,0,1.7-0.5,1.9-1.7L710,759.9z"/>
		<path d="M712.8,759.4v1.9h3.3v0.7h-4v-5.6h3.9v0.7h-3.2v1.7h2.8v0.7H712.8z"/>
		<path d="M722.9,756.3v5.6h-0.7l-3.1-4.6l0.1,4.6h-0.7v-5.6h0.7l3.1,4.5l0-4.5H722.9z"/>
		<path d="M726.4,759.4v1.9h3.3v0.7h-4v-5.6h3.9v0.7h-3.2v1.7h2.8v0.7H726.4z"/>
	</g>
</g>
<g>
	<path d="M1211.7,390.9v-3.5h-2.9v-0.8h6.4v0.8h-2.7v3.5h2.7v0.9h-6.4v-0.9H1211.7z"/>
	<path d="M1210.7,399v-2.4l-1.9-0.7v-0.9l6.4,2.4v0.9l-6.4,2.3v-0.9L1210.7,399z M1211.4,398.7l2.6-0.9l-2.6-1V398.7z"/>
	<path d="M1211.5,404.6h-2.7v-0.8h6.4v2.7c0,0.3,0,0.7-0.1,1c-0.3,0.7-1,1.1-1.7,1.1c-0.7,0-1.5-0.3-1.8-1.2c-0.1-0.3-0.1-0.6-0.1-1
		V404.6z M1212.2,404.6v1.8c0,0.5,0,0.8,0.3,1.1c0.2,0.2,0.5,0.3,0.8,0.3c0.2,0,0.6,0,0.8-0.3c0.2-0.3,0.2-0.6,0.2-0.9v-2H1212.2z"
		/>
	<path d="M1211.5,412.7h-2.7v-0.8h6.4v2.7c0,0.3,0,0.7-0.1,1c-0.3,0.7-1,1.1-1.7,1.1c-0.7,0-1.5-0.3-1.8-1.2c-0.1-0.3-0.1-0.6-0.1-1
		V412.7z M1212.2,412.7v1.8c0,0.5,0,0.8,0.3,1.1c0.2,0.2,0.5,0.3,0.8,0.3c0.2,0,0.6,0,0.8-0.3c0.2-0.3,0.2-0.6,0.2-0.9v-2H1212.2z"
		/>
	<path d="M1211.7,422.4h-2.9v-0.9h2.9l3.4-2.2v1l-2.7,1.7l2.7,1.7v1L1211.7,422.4z"/>
	<path d="M1215.1,438.8h-6.4V438l5.3,0.1l-5.3-2v-0.7l5.2-2l-5.2,0.1v-0.8h6.4v1.1l-5.2,2l5.2,2V438.8z"/>
	<path d="M1211.7,443.4h-2.2v3.7h-0.7v-4.5h6.4v4.4h-0.7v-3.6h-2v3.1h-0.7V443.4z"/>
	<path d="M1215.1,455.4h-6.4v-0.8l5.2-3.5l-5.2,0.1v-0.8h6.4v0.8l-5.1,3.4l5.1,0V455.4z"/>
	<path d="M1208.6,462.2c0-1.9,1.4-3.2,3.3-3.2c2.4,0,3.3,1.6,3.3,3.2c0,1.8-1.2,3.2-3.3,3.2C1210.1,465.4,1208.6,464.3,1208.6,462.2
		z M1214.6,462.2c0-1.6-1.2-2.3-2.7-2.3c-1.3,0-2.7,0.7-2.7,2.3c0,1.7,1.4,2.3,2.7,2.3C1213.5,464.5,1214.6,463.7,1214.6,462.2z"/>
	<path d="M1211.1,475c-1.2-0.3-2.5-1.3-2.5-3.1c0-2.1,1.6-3.1,3.3-3.1c1.8,0,3.3,1,3.3,3.2c0,2.2-1.5,2.7-1.9,2.9l-0.2-0.9
		c0.2-0.1,0.4-0.1,0.7-0.4c0.4-0.3,0.7-0.9,0.7-1.7c0-0.7-0.3-1.3-0.8-1.7c-0.5-0.4-1.2-0.5-1.8-0.5c-1.6,0-2.7,0.8-2.7,2.3
		c0,0.9,0.5,1.9,1.9,2.1L1211.1,475z"/>
	<path d="M1210.7,481.6v-2.4l-1.9-0.7v-0.9l6.4,2.4v0.9l-6.4,2.3v-0.9L1210.7,481.6z M1211.4,481.3l2.6-0.9l-2.6-1V481.3z"/>
	<path d="M1209.5,487.2v3.1h-0.8v-3.9h6.4v0.8H1209.5z"/>
	<path d="M1211.7,500.6c0.2-0.9,0.5-2.3,1.8-2.3c0.6,0,1,0.3,1.2,0.6c0.5,0.6,0.5,1.3,0.5,1.7c0,0.5,0,1.1-0.5,1.7
		c-0.5,0.6-1.1,0.8-1.5,0.8l-0.1-0.9c0.2,0,0.7,0,1.1-0.5c0.2-0.3,0.3-0.7,0.3-1.1c0-0.8-0.3-1.4-1-1.4c-0.7,0-0.9,0.7-1,1.3
		l-0.2,0.7c-0.1,0.5-0.2,0.7-0.3,1c-0.4,1-1.2,1.1-1.6,1.1c-0.6,0-1.2-0.2-1.5-0.8c-0.4-0.6-0.5-1.3-0.5-1.7c0-0.6,0.1-2.5,2.2-2.7
		l0.1,0.9c-0.2,0-0.8,0-1.2,0.5c-0.3,0.4-0.4,0.8-0.4,1.3c0,0.9,0.4,1.6,1.3,1.6c0.7,0,0.9-0.6,1.1-1.2L1211.7,500.6z"/>
	<path d="M1214.4,509h-5.6v-0.9h5.6v-1.9h0.7v4.7h-0.7V509z"/>
	<path d="M1215.1,518.9h-4.1c-0.3,0-0.5,0-0.8-0.1c-0.8-0.2-1.6-0.9-1.6-2.4c0-0.5,0.1-1.4,0.8-2c0.5-0.4,1-0.4,1.7-0.4h3.9v0.9
		h-3.8c-0.6,0-1.1,0-1.5,0.3c-0.5,0.4-0.5,0.9-0.5,1.2c0,0.7,0.4,1.3,1.1,1.5c0.3,0.1,0.5,0.1,0.9,0.1h3.8V518.9z"/>
	<path d="M1215.1,522.8v2c0,0.9,0,1.7-0.8,2.4c-0.8,0.8-1.9,0.8-2.4,0.8c-0.4,0-1.7,0-2.5-0.9c-0.7-0.7-0.7-1.6-0.7-2.1v-2.2H1215.1
		z M1214.4,523.6h-4.9v1.1c0,0.6,0,1,0.3,1.4c0.2,0.4,0.8,1,2.2,1c1,0,2-0.3,2.3-1.3c0.1-0.4,0.1-0.7,0.1-1.2V523.6z"/>
	<path d="M1215.1,532.3h-6.4v-0.9h6.4V532.3z"/>
	<path d="M1208.6,539c0-1.9,1.4-3.2,3.3-3.2c2.4,0,3.3,1.6,3.3,3.2c0,1.8-1.2,3.2-3.3,3.2C1210.1,542.2,1208.6,541.1,1208.6,539z
		 M1214.6,539c0-1.6-1.2-2.3-2.7-2.3c-1.3,0-2.7,0.7-2.7,2.3c0,1.7,1.4,2.3,2.7,2.3C1213.5,541.3,1214.6,540.5,1214.6,539z"/>
</g>
</svg>
